<?xml version="1.0" standalone="no"?>
<!DOCTYPE svg PUBLIC "-//W3C//DTD SVG 20010904//EN"
 "http://www.w3.org/TR/2001/REC-SVG-20010904/DTD/svg10.dtd">
<svg version="1.0" xmlns="http://www.w3.org/2000/svg"
 width="1267.000000pt" height="1267.000000pt" viewBox="0 0 1267.000000 1267.000000"
 preserveAspectRatio="xMidYMid meet">

<g transform="translate(0.000000,1267.000000) scale(0.100000,-0.100000)"
fill="#000000" stroke="none">
<path d="M7720 10878 c-175 -24 -320 -152 -320 -280 0 -22 5 -48 11 -59 8 -17
7 -23 -8 -35 -10 -7 -24 -11 -32 -9 -9 4 -11 0 -7 -10 4 -13 2 -14 -14 -5 -25
13 -43 4 -35 -19 5 -13 4 -14 -6 -3 -15 14 -33 17 -25 3 7 -11 -30 -45 -42
-37 -5 3 -26 -4 -48 -14 -21 -11 -46 -20 -56 -20 -10 0 -18 -4 -18 -10 0 -5
-7 -10 -15 -10 -8 0 -15 -7 -15 -15 0 -18 -5 -18 -30 -5 -16 9 -18 8 -14 -5 4
-11 2 -13 -9 -10 -8 4 -17 -1 -20 -9 -7 -19 -47 -22 -47 -3 0 8 -3 7 -9 -3 -6
-8 -7 -18 -5 -22 3 -4 -2 -8 -11 -8 -8 0 -18 -7 -21 -15 -4 -8 -10 -13 -14
-10 -13 8 -68 -15 -74 -31 -3 -8 -12 -14 -21 -14 -8 0 -15 -5 -15 -11 0 -5 -4
-8 -9 -5 -5 3 -11 -1 -15 -9 -3 -8 -17 -15 -31 -15 -14 0 -25 -4 -25 -10 0 -5
-9 -10 -19 -10 -10 0 -21 -7 -25 -15 -3 -8 -12 -15 -21 -15 -8 0 -15 -7 -15
-15 0 -8 -7 -15 -15 -15 -8 0 -15 -5 -15 -11 0 -8 -4 -8 -12 -1 -8 5 -22 6
-33 1 -11 -4 -14 -8 -7 -8 6 -1 12 -8 12 -18 0 -15 -2 -15 -17 0 -14 11 -21
12 -29 4 -26 -27 -51 -43 -84 -56 -19 -7 -49 -20 -67 -27 -17 -8 -36 -14 -43
-14 -6 0 -8 -5 -4 -12 5 -7 0 -9 -14 -6 -13 4 -27 -1 -37 -12 -8 -9 -36 -26
-60 -36 -25 -10 -45 -25 -46 -34 0 -10 -2 -11 -6 -3 -3 10 -8 9 -20 -2 -8 -8
-19 -13 -24 -10 -5 4 -9 1 -9 -6 0 -6 -8 -9 -20 -6 -11 3 -18 2 -15 -3 3 -4
-7 -11 -21 -14 -14 -4 -43 -18 -64 -31 -22 -14 -45 -26 -52 -27 -7 -2 -16 -7
-20 -13 -4 -5 -12 -10 -18 -10 -6 0 -14 -5 -18 -12 -4 -6 -16 -13 -27 -15 -11
-1 -26 -9 -33 -15 -7 -7 -22 -13 -33 -13 -11 0 -22 -6 -25 -14 -3 -8 -20 -17
-39 -20 -21 -4 -35 -13 -38 -26 -3 -12 -11 -18 -19 -15 -8 3 -23 -4 -35 -15
-12 -11 -29 -20 -37 -20 -8 0 -21 -7 -30 -15 -8 -8 -27 -20 -43 -27 -15 -6
-30 -12 -33 -14 -3 -1 -16 -5 -29 -10 -23 -7 -24 -8 -5 -15 16 -6 15 -8 -8 -8
-16 -1 -28 -6 -28 -12 0 -6 -9 -9 -20 -6 -12 3 -21 -1 -25 -12 -6 -19 -105
-81 -132 -81 -15 0 -16 -2 -3 -10 12 -8 10 -10 -8 -10 -13 0 -38 -14 -56 -32
-17 -18 -40 -35 -51 -36 -11 -2 -27 -12 -36 -23 -9 -10 -19 -16 -22 -12 -4 3
-13 0 -22 -7 -8 -7 -15 -9 -15 -5 0 4 -7 2 -15 -5 -8 -6 -20 -8 -27 -4 -7 4
-10 4 -6 0 10 -12 -23 -45 -38 -39 -17 6 -18 -9 -3 -24 13 -13 -24 -28 -42
-17 -8 4 -9 3 -5 -4 7 -12 -5 -16 -31 -13 -7 1 -13 -4 -13 -11 0 -8 -9 -21
-20 -31 -11 -9 -20 -14 -20 -10 0 3 -10 -3 -22 -15 -13 -11 -50 -35 -83 -52
-33 -17 -89 -47 -124 -67 -36 -19 -75 -35 -88 -35 -13 0 -23 -3 -23 -7 0 -3
-20 -6 -45 -5 -33 1 -45 -2 -45 -12 0 -8 -11 -20 -25 -26 -14 -6 -24 -17 -21
-23 5 -15 -20 -31 -64 -40 -19 -4 -62 -15 -95 -25 -52 -15 -73 -16 -164 -7
-196 19 -360 -15 -452 -96 -38 -34 -86 -109 -94 -147 -16 -80 -17 -100 -6
-100 6 0 11 12 12 28 2 95 55 170 155 217 53 26 72 29 193 33 98 3 132 2 127
-7 -4 -6 -16 -11 -26 -11 -10 0 -21 -6 -23 -12 -3 -8 -6 -6 -6 4 -1 15 -5 16
-27 8 -14 -6 -36 -10 -50 -10 -13 0 -24 -5 -24 -11 0 -6 -9 -8 -20 -4 -14 4
-20 2 -20 -9 0 -10 -6 -13 -15 -10 -11 5 -13 2 -9 -10 6 -15 -6 -21 -30 -17
-5 1 -6 -5 -2 -14 3 -10 2 -13 -4 -10 -13 8 -70 -51 -70 -72 0 -8 -4 -12 -10
-8 -5 3 -16 -7 -25 -22 -9 -15 -14 -21 -11 -11 9 32 -9 29 -20 -4 -6 -18 -17
-33 -25 -33 -7 0 -18 -13 -24 -30 -5 -16 -15 -34 -22 -40 -7 -5 -13 -28 -14
-50 -2 -22 -6 -45 -11 -51 -5 -7 -3 -14 6 -17 9 -4 12 -15 9 -31 -3 -14 0 -33
7 -41 10 -12 10 -19 2 -27 -8 -8 -6 -17 5 -34 8 -13 13 -35 11 -49 -3 -14 1
-30 8 -36 8 -6 14 -23 14 -38 0 -15 5 -32 11 -38 6 -6 11 -32 11 -57 1 -25 4
-46 8 -46 7 0 14 -24 27 -85 2 -10 9 -22 15 -27 7 -4 9 -10 5 -14 -4 -4 -2
-13 4 -21 7 -7 15 -28 19 -46 4 -18 12 -31 19 -29 7 1 10 -2 6 -8 -4 -6 -4
-23 0 -39 5 -22 10 -28 26 -24 19 5 23 -3 19 -40 -1 -15 3 -17 20 -12 15 5 20
4 16 -4 -4 -6 -3 -11 3 -11 6 0 7 -7 4 -17 -4 -11 -3 -14 5 -9 18 11 45 -21
39 -45 -4 -13 0 -22 11 -26 27 -10 71 -66 72 -91 0 -13 4 -20 10 -17 6 3 13 0
16 -9 8 -22 38 -31 30 -9 -5 15 -4 15 9 -1 8 -11 15 -24 15 -29 0 -5 6 -7 14
-4 8 3 17 -1 20 -9 4 -10 -2 -14 -21 -14 -14 0 -23 -3 -19 -7 11 -11 66 -12
66 -1 0 5 5 6 11 2 8 -4 7 -9 -2 -15 -8 -5 -10 -9 -5 -9 5 0 2 -7 -5 -16 -12
-15 -11 -16 7 -10 12 3 34 1 50 -5 16 -7 33 -11 37 -11 4 1 10 -5 13 -13 3 -8
10 -12 15 -9 5 3 9 -2 9 -10 0 -8 6 -19 14 -23 8 -5 20 -19 26 -33 12 -28 7 3
-5 34 -8 18 -7 18 20 0 15 -10 23 -20 16 -22 -6 -2 -11 -11 -11 -19 0 -14 2
-14 19 1 18 17 20 16 26 -3 3 -12 3 -26 -1 -33 -4 -7 2 -4 14 6 19 17 22 17
22 3 0 -11 5 -14 17 -10 12 5 14 3 8 -8 -7 -12 -6 -12 7 -1 13 11 21 11 40 1
13 -7 25 -15 28 -19 3 -4 25 -15 50 -24 142 -49 505 -204 505 -215 0 -17 -180
-156 -241 -186 -54 -26 -69 -30 -60 -17 3 5 -8 6 -25 4 -16 -2 -36 1 -44 8
-12 10 -15 10 -15 0 0 -8 -8 -10 -25 -6 -21 5 -28 1 -44 -24 -17 -28 -19 -29
-32 -13 -12 15 -12 16 3 11 11 -5 18 0 21 12 7 27 -14 21 -35 -10 -10 -14 -18
-20 -18 -15 0 6 -5 2 -11 -8 -7 -12 -15 -15 -27 -8 -9 4 -46 14 -81 20 -34 7
-70 15 -80 19 -14 5 -14 4 -1 -9 8 -8 37 -21 63 -29 27 -7 51 -19 54 -27 3 -7
17 -13 31 -13 14 0 22 -3 18 -7 -4 -5 -13 -8 -19 -8 -7 0 -12 -14 -12 -30 -1
-21 -6 -31 -19 -33 -11 -3 -16 0 -12 7 11 18 -10 13 -25 -6 -8 -10 -9 -14 -2
-10 6 4 14 3 17 -2 3 -5 15 -7 26 -4 11 3 20 1 20 -5 0 -14 -33 -24 -56 -16
-18 5 -18 5 -1 -9 17 -14 15 -17 -36 -51 -64 -43 -87 -66 -65 -66 8 0 18 4 24
9 9 9 124 71 130 71 2 0 4 -9 4 -20 0 -13 5 -17 14 -14 9 3 17 -3 21 -17 7
-22 8 -22 22 -3 11 15 15 16 22 5 5 -8 7 -20 4 -28 -3 -7 -1 -13 5 -13 6 0 13
6 15 13 4 10 6 10 6 0 1 -8 14 -13 32 -13 26 0 31 -3 26 -20 -3 -11 0 -23 5
-27 7 -3 8 -1 4 5 -4 7 -1 12 8 12 9 0 16 -7 16 -16 0 -8 4 -12 10 -9 10 6 66
-47 127 -121 69 -83 152 -277 140 -325 -3 -10 -1 -22 4 -25 5 -3 9 -21 9 -40
0 -30 -10 -44 -87 -118 -167 -159 -208 -196 -235 -208 -16 -7 -28 -18 -28 -23
0 -6 -41 -44 -90 -84 l-91 -74 -69 26 c-39 14 -70 22 -70 18 0 -13 45 -61 57
-61 6 0 14 -7 17 -16 9 -24 7 -29 -6 -16 -18 18 -28 15 -29 -10 0 -13 -3 -17
-6 -10 -7 18 -30 15 -51 -8 l-19 -21 -7 23 -7 23 -9 -22 c-5 -13 -14 -23 -20
-23 -5 0 -10 -8 -11 -17 0 -15 -2 -15 -9 2 -8 19 -9 19 -9 -3 -1 -19 -4 -21
-20 -12 -28 15 -32 13 -26 -13 3 -12 -1 -36 -10 -52 -15 -29 -15 -29 -21 -7
-4 12 -11 22 -16 22 -5 0 -6 -9 -3 -20 10 -33 -10 -49 -50 -40 -20 4 -35 4
-35 -1 0 -5 4 -9 9 -9 5 0 7 -9 4 -19 -4 -16 -9 -18 -28 -11 -30 11 -38 -14
-19 -59 7 -17 9 -31 5 -31 -5 0 -12 8 -15 17 -6 15 -8 15 -16 3 -9 -13 -10
-13 -10 0 -1 12 -4 11 -15 -4 -11 -15 -12 -23 -3 -33 6 -7 8 -16 4 -20 -3 -4
-13 2 -21 13 -15 19 -15 19 -8 0 5 -15 3 -18 -10 -13 -10 4 -17 0 -19 -11 -2
-9 -12 -17 -23 -17 -13 0 -20 -6 -19 -17 1 -10 -4 -14 -12 -11 -9 3 -14 -2
-14 -12 0 -9 -10 -25 -22 -36 -13 -10 -17 -18 -10 -19 6 0 12 -5 12 -11 0 -6
-7 -9 -15 -5 -8 3 -15 0 -15 -7 0 -7 -25 -36 -56 -65 -51 -49 -59 -53 -90 -47
-33 6 -34 5 -34 -30 0 -35 -3 -37 -47 -38 -30 0 -30 -14 0 -20 17 -3 15 -5 -8
-6 -17 0 -36 4 -42 10 -7 7 -21 3 -46 -13 -29 -19 -35 -28 -30 -48 2 -14 1
-21 -4 -15 -4 6 -16 11 -25 13 -13 2 -18 -4 -18 -20 0 -18 -2 -20 -10 -8 -8
12 -10 12 -15 -2 -4 -9 -8 -23 -9 -31 -1 -8 -7 -21 -14 -29 -6 -8 -9 -23 -6
-34 3 -11 -3 -28 -16 -42 -14 -15 -19 -29 -15 -43 4 -11 2 -25 -3 -32 -5 -7
-12 -32 -14 -57 -3 -25 -13 -81 -22 -126 -22 -109 -26 -240 -8 -283 11 -28 11
-35 0 -42 -10 -7 -10 -9 0 -9 7 0 12 -13 12 -29 0 -43 10 -61 32 -61 15 0 18
-5 13 -21 -6 -18 -4 -20 15 -14 16 5 23 2 27 -14 3 -11 9 -18 14 -15 5 3 9 0
9 -6 0 -6 8 -14 18 -17 9 -4 45 -24 78 -45 34 -21 99 -54 145 -73 l84 -35 -2
-54 c-2 -49 -22 -142 -43 -191 -62 -152 -106 -229 -189 -335 -75 -95 -194
-201 -323 -287 -59 -39 -241 -125 -308 -144 -36 -11 -73 -24 -82 -29 -9 -5
-54 -18 -100 -30 -46 -11 -99 -24 -118 -30 -19 -5 -102 -26 -185 -45 -280 -68
-277 -66 -510 -150 -82 -30 -161 -57 -174 -61 -139 -39 -388 -163 -451 -224
-41 -39 -147 -114 -201 -141 -66 -34 -73 -53 -38 -97 32 -41 70 -62 114 -62
84 0 136 28 251 136 132 124 265 191 579 290 61 19 144 48 185 65 113 44 271
92 445 133 61 14 139 35 175 46 36 11 98 29 139 41 109 30 297 106 366 146
344 201 506 471 550 916 4 37 10 67 13 67 8 0 231 -63 277 -78 17 -6 84 -22
150 -37 66 -15 131 -31 144 -36 13 -6 74 -21 135 -34 61 -14 167 -38 236 -55
69 -17 175 -42 235 -55 204 -45 290 -65 350 -80 79 -19 272 -61 412 -90 62
-13 116 -26 121 -29 5 -3 65 -17 133 -31 118 -23 171 -35 327 -70 37 -9 122
-27 190 -40 68 -13 127 -27 131 -29 4 -3 66 -17 137 -31 169 -35 244 -50 329
-70 39 -9 117 -25 175 -36 58 -10 128 -25 155 -33 28 -9 100 -25 160 -36 103
-20 154 -31 315 -66 36 -7 112 -23 170 -34 58 -10 130 -26 160 -34 30 -8 105
-24 165 -35 94 -18 307 -60 383 -76 13 -3 22 -13 22 -25 0 -28 17 -33 33 -10
l14 21 113 -21 c62 -11 115 -22 118 -24 2 -3 -21 -55 -52 -117 -31 -62 -56
-117 -56 -123 0 -6 11 -21 24 -34 l24 -22 23 37 c13 21 26 40 29 43 4 3 25 37
48 75 23 39 50 80 60 93 l18 23 90 -16 c211 -40 334 -64 373 -75 19 -5 37 -7
39 -5 10 10 -30 55 -48 55 -10 0 -29 5 -42 10 -13 6 -63 19 -113 30 -165 36
-270 66 -258 73 6 4 23 2 37 -4 35 -16 41 -7 21 31 -9 17 -14 38 -11 45 5 13
189 291 281 425 79 114 108 155 127 180 10 14 42 57 70 95 61 82 73 95 87 95
6 0 11 4 11 10 0 5 6 7 14 4 10 -4 12 2 9 20 -3 16 -1 26 6 26 6 0 11 -6 11
-12 1 -8 6 -6 14 5 7 9 19 17 26 17 7 0 10 8 7 20 -3 11 -2 18 3 15 4 -3 10 1
13 9 4 9 14 12 28 9 14 -4 20 -2 16 4 -4 6 2 13 13 16 11 3 20 12 20 21 0 9 4
16 9 16 8 0 24 37 22 51 0 4 10 5 22 2 18 -4 19 -3 7 6 -12 9 -10 11 13 11 16
0 26 4 22 9 -3 5 -1 13 5 16 8 5 8 11 1 19 -8 9 -5 12 12 12 13 -1 22 5 22 14
0 8 11 20 25 27 14 7 21 13 16 13 -5 0 -1 9 9 20 10 11 22 17 26 14 5 -3 9 7
9 22 0 24 2 25 17 13 15 -12 16 -12 10 5 -6 14 -4 17 8 12 9 -3 15 0 15 9 0
15 13 30 53 60 19 14 23 22 14 27 -8 6 -5 10 11 14 13 4 22 14 22 25 0 11 4
19 9 19 5 0 13 9 16 20 5 16 12 19 27 14 14 -4 18 -2 14 5 -4 6 0 14 8 17 9 3
16 12 16 18 0 7 11 19 25 26 14 7 25 16 25 20 0 12 77 90 89 90 7 0 9 4 6 10
-3 5 -1 10 5 10 7 0 9 7 6 16 -4 12 -2 15 9 10 8 -3 14 0 12 7 -1 7 3 11 9 10
7 -1 14 11 18 27 3 17 11 29 18 28 7 -2 17 11 22 29 6 18 18 34 29 37 13 3 16
9 11 18 -6 10 -4 10 9 -1 15 -12 17 -12 11 3 -5 12 0 19 15 23 11 3 18 9 16
14 -3 4 6 16 20 25 21 14 23 19 13 32 -10 12 -10 14 0 8 7 -4 12 -2 12 6 0 10
2 10 9 0 6 -10 11 -5 20 18 7 22 15 30 26 26 8 -3 15 -1 15 4 0 6 -4 10 -9 10
-5 0 -7 9 -4 20 4 15 11 19 24 15 11 -4 19 -2 19 5 0 6 5 8 11 4 8 -4 9 4 5
27 -3 19 -3 29 0 23 3 -7 14 -9 25 -7 13 4 17 8 9 13 -7 5 2 21 29 49 22 23
44 41 48 41 4 -1 9 4 12 11 2 7 -1 9 -10 4 -8 -4 -4 2 8 14 23 22 39 28 28 11
-3 -5 -1 -10 5 -10 7 0 9 8 5 20 -4 12 -2 20 5 20 6 0 8 5 4 12 -5 8 -2 9 9 5
14 -5 16 -2 11 18 -6 25 9 35 21 15 11 -18 25 0 25 31 0 16 5 29 10 29 6 0 10
-5 10 -10 0 -6 6 -5 14 2 8 7 14 15 14 18 -2 34 5 46 24 47 13 1 24 7 26 13 2
5 8 8 13 5 5 -4 6 1 2 10 -3 10 0 21 8 26 11 7 11 9 1 9 -7 0 -10 5 -6 11 3 6
0 15 -7 20 -10 6 -3 9 21 10 19 0 30 3 24 5 -15 6 -5 46 10 41 6 -2 10 -11 10
-20 -1 -9 2 -14 7 -11 5 3 9 12 9 19 0 8 14 30 31 50 18 20 30 38 27 40 -3 3
-13 -4 -23 -15 -20 -22 -44 -28 -26 -6 9 11 9 15 0 18 -9 3 -7 12 4 33 9 17
16 24 17 16 0 -11 4 -10 14 4 8 11 12 24 9 31 -2 6 3 14 11 17 9 4 16 16 16
27 0 12 3 19 8 17 4 -3 14 2 22 11 13 14 12 15 -3 9 -9 -3 -17 -2 -17 3 0 6 9
10 20 10 13 0 18 5 14 15 -4 9 3 16 20 21 22 5 24 8 11 21 -20 20 -19 26 5 20
13 -3 21 1 26 15 4 14 12 18 26 15 16 -5 19 -2 15 14 -6 21 8 35 18 19 4 -7
14 -3 26 11 11 12 16 25 13 28 -4 3 -9 0 -11 -6 -3 -7 -12 -13 -21 -13 -13 0
-14 2 -4 9 8 4 13 12 13 17 -1 5 2 10 7 10 32 6 52 19 52 34 0 10 3 27 6 37 5
15 4 15 -5 3 -8 -12 -11 -8 -11 19 0 23 -4 32 -13 28 -19 -7 -41 8 -32 23 4 6
16 9 27 7 18 -5 27 4 32 35 1 7 5 19 9 26 8 11 2 16 -15 13 -21 -3 -5 17 17
21 13 3 22 1 19 -3 -3 -5 -1 -9 5 -9 5 0 12 -8 14 -17 4 -15 5 -16 6 -2 0 9
13 25 29 35 20 13 24 14 14 2 -7 -8 -10 -23 -6 -32 9 -24 23 -19 17 7 -4 18
-3 19 6 7 6 -8 11 -25 11 -37 0 -17 -4 -21 -17 -16 -10 4 -14 2 -9 -5 3 -6 -2
-15 -11 -21 -16 -9 -16 -10 -1 -11 9 0 18 5 20 11 6 17 46 2 51 -19 3 -12 5
-11 6 6 1 13 -5 22 -14 22 -12 0 -13 5 -4 26 8 21 6 31 -8 47 -10 11 -12 17
-5 13 7 -4 12 -1 12 8 0 8 7 16 15 18 13 3 13 6 0 31 -8 15 -10 25 -5 22 15
-9 12 8 -6 33 -20 29 -32 28 -29 -3 2 -14 -1 -25 -6 -25 -5 0 -9 6 -9 14 0 9
-9 14 -20 13 -12 -1 -18 -7 -16 -14 3 -7 -1 -13 -9 -13 -8 0 -15 6 -15 13 0
19 20 36 36 30 8 -3 14 -1 14 5 0 5 -7 12 -15 16 -21 8 -19 29 3 22 14 -5 13
-3 -3 10 -19 16 -19 16 -1 10 12 -4 23 -1 27 6 7 10 11 10 21 0 14 -14 32 -16
23 -2 -3 6 1 10 9 10 9 0 16 7 16 15 0 16 16 21 22 6 2 -5 11 -4 21 3 16 13
16 15 -4 40 l-20 26 20 0 c13 0 21 6 21 18 0 15 -2 15 -11 2 -8 -12 -9 -10 -4
8 5 16 1 24 -12 29 -10 3 -30 17 -45 31 -15 14 -31 22 -35 19 -3 -4 -1 -7 5
-7 7 0 12 -7 12 -15 0 -21 -5 -19 -34 10 -14 14 -31 25 -38 24 -9 0 -10 -2 -1
-5 7 -3 9 -12 6 -20 -4 -12 -8 -12 -19 3 -12 17 -14 17 -31 0 -16 -15 -16 -19
-3 -27 8 -5 11 -10 5 -10 -21 0 -32 16 -33 48 0 17 4 32 9 32 5 0 8 3 7 8 -3
11 45 102 54 102 4 0 8 5 8 12 0 6 7 20 17 30 9 10 14 20 11 23 -2 3 -22 -20
-44 -50 -41 -59 -83 -112 -123 -154 -13 -14 -27 -35 -32 -46 -15 -33 -32 -57
-75 -103 l-42 -44 -7 33 c-4 19 -12 39 -17 46 -5 6 -12 45 -15 85 l-6 74 89
125 c128 181 186 270 181 276 -3 3 -12 -8 -20 -24 -13 -25 -25 -40 -67 -90 -5
-6 -22 -29 -37 -51 -73 -101 -136 -183 -139 -179 -7 7 25 136 54 217 26 77 45
105 167 251 141 169 245 324 245 363 0 16 6 26 15 26 19 0 20 24 1 39 -29 24
-192 54 -366 67 -41 3 -80 7 -86 9 -15 4 9 139 28 162 8 11 9 16 1 21 -8 5
-12 52 -12 137 0 217 -60 477 -133 575 -12 17 -19 32 -16 35 6 6 -19 37 -94
118 -54 58 -54 55 30 118 31 24 99 77 151 118 78 62 96 72 110 62 59 -43 79
-51 124 -51 60 0 67 15 37 81 l-24 49 24 33 c19 24 24 45 25 88 0 100 -75 176
-199 198 -33 6 -61 11 -63 11 -2 0 -8 12 -13 26 -8 19 -7 31 2 42 9 11 9 14 1
9 -32 -19 -28 191 5 318 25 92 62 176 74 169 6 -4 14 0 19 7 4 8 12 14 16 14
4 0 22 10 40 23 17 12 36 22 42 22 6 0 11 7 11 15 0 8 7 15 15 15 17 0 83 44
101 68 7 9 14 13 14 8 0 -5 8 0 18 11 9 11 23 18 31 15 10 -3 12 0 8 12 -4 11
1 18 18 22 17 4 22 11 20 25 -3 16 0 19 17 13 13 -4 18 -2 14 5 -4 6 2 31 14
55 11 25 20 52 20 60 0 9 11 23 25 32 14 9 35 31 48 48 l22 31 -32 -23 c-36
-25 -73 -29 -73 -7 0 8 5 15 10 15 6 0 10 4 10 9 0 4 -12 7 -26 5 -19 -2 -28
3 -31 17 -3 10 -11 19 -19 19 -7 0 -17 6 -21 13 -4 6 -28 12 -53 12 -33 0 -45
4 -45 15 0 8 -6 20 -14 26 -41 32 54 15 221 -39 25 -9 49 -13 51 -10 8 7 -10
50 -32 82 -29 40 -360 201 -511 249 -36 12 -90 30 -120 41 -30 10 -89 29 -130
41 -41 12 -102 31 -135 41 -33 10 -123 35 -200 55 -77 19 -212 56 -300 81 -88
25 -205 56 -260 69 -55 13 -113 29 -130 35 -43 14 -486 126 -570 143 -38 8
-97 21 -130 30 -33 9 -82 21 -110 26 -27 5 -115 23 -195 41 -189 40 -198 42
-379 73 -85 15 -158 29 -163 32 -5 3 -46 12 -91 20 -45 8 -102 19 -127 24 -25
6 -78 17 -119 24 -40 8 -77 20 -81 26 -5 8 -13 9 -26 2 -12 -5 -47 -6 -89 -1
-89 10 -212 9 -295 -3z m229 -61 c15 -2 -140 -97 -159 -97 -5 0 -10 -3 -10 -8
0 -9 -70 -48 -81 -45 -4 1 -15 -7 -24 -17 -10 -11 -22 -20 -27 -20 -5 0 -26
-11 -47 -24 -21 -14 -42 -22 -46 -18 -3 4 -11 -1 -17 -11 -7 -13 -13 -15 -22
-8 -10 8 -16 4 -24 -14 -8 -17 -16 -23 -28 -18 -13 5 -15 3 -10 -8 4 -8 0 -5
-9 6 -31 39 5 126 86 207 59 58 93 72 199 80 34 3 190 -1 219 -5z m166 -23
c83 -15 214 -39 300 -54 125 -21 216 -40 232 -49 10 -5 59 -17 108 -26 50 -9
97 -19 105 -22 8 -4 21 -5 28 -4 6 1 12 -4 12 -10 0 -7 2 -10 5 -7 7 6 120
-18 240 -52 95 -27 102 -28 140 -29 l30 -1 -25 -13 c-14 -7 -27 -10 -30 -6 -3
4 -19 6 -37 5 -17 -1 -31 3 -30 8 1 6 -10 11 -24 11 -17 1 -25 -4 -22 -11 2
-6 -3 -14 -13 -18 -11 -4 -15 -2 -11 8 7 17 -27 28 -41 14 -7 -7 -12 -3 -16
10 -5 14 -13 18 -26 15 -11 -3 -20 -9 -20 -14 0 -5 -4 -9 -10 -9 -6 0 -6 9 0
25 12 30 10 31 -21 4 -18 -15 -25 -17 -27 -7 -3 15 -93 58 -106 50 -5 -3 2
-11 15 -18 l24 -13 -25 -1 c-15 0 -36 12 -55 31 -17 19 -31 27 -33 20 -3 -8
-9 -6 -18 6 -8 11 -17 14 -21 8 -13 -17 -36 -17 -30 0 4 8 5 15 3 15 -3 0 -11
3 -20 6 -11 4 -16 0 -16 -12 -1 -18 -1 -18 -14 -2 -10 13 -15 15 -24 6 -9 -9
-12 -8 -12 5 0 10 -5 14 -15 11 -8 -4 -15 -1 -15 5 0 7 -7 7 -25 -1 -19 -8
-34 -8 -62 0 -21 7 -57 14 -79 16 -23 2 -52 10 -65 16 -18 10 -24 10 -33 -1
-15 -19 -37 -22 -30 -5 3 8 1 17 -5 21 -6 3 -11 -2 -12 -12 0 -12 -2 -14 -6
-4 -4 10 -7 10 -13 1 -6 -9 -13 -9 -29 -1 -18 10 -21 9 -22 -6 -1 -12 -3 -11
-8 6 -6 23 -7 23 -24 7 -16 -17 -17 -16 -18 1 0 10 -3 13 -6 6 -2 -7 -16 -13
-29 -13 -13 0 -24 -4 -24 -10 0 -5 -8 -10 -17 -10 -15 0 -16 2 -3 10 8 5 12
12 8 15 -3 3 -12 0 -20 -8 -12 -12 -17 -12 -32 -1 -10 7 -24 10 -32 7 -8 -3
-14 0 -14 6 0 6 -8 11 -18 11 -19 0 -65 29 -46 30 6 0 24 11 40 25 34 29 34
29 139 9z m-175 -73 c0 -6 -4 -13 -10 -16 -5 -3 -10 1 -10 9 0 9 5 16 10 16 6
0 10 -4 10 -9z m-160 -65 c0 -2 -7 -7 -16 -10 -8 -3 -12 -2 -9 4 6 10 25 14
25 6z m163 -23 c-7 -2 -19 -2 -25 0 -7 3 -2 5 12 5 14 0 19 -2 13 -5z m57 -25
c0 -5 15 -8 33 -8 18 0 50 -9 71 -21 21 -11 41 -18 43 -15 3 3 15 -1 27 -9 11
-8 28 -15 38 -15 10 0 18 -4 18 -8 0 -7 91 -36 115 -37 6 0 12 -3 15 -7 4 -4
23 -9 43 -10 20 -2 37 -6 37 -10 0 -5 12 -8 26 -8 17 0 23 -4 18 -12 -5 -7 -2
-9 8 -5 19 7 88 -13 88 -25 0 -5 9 -6 20 -3 12 4 27 1 35 -5 8 -7 22 -10 30
-6 8 3 15 1 15 -5 0 -6 4 -8 8 -5 11 7 75 -16 98 -34 13 -11 16 -12 10 -1 -12
20 52 4 77 -19 18 -18 16 -40 -4 -40 -6 0 -7 5 -4 10 4 6 -7 10 -24 10 -18 0
-31 -5 -31 -12 0 -8 -4 -6 -10 3 -5 9 -21 20 -35 23 -14 4 -25 13 -25 21 0 8
-5 15 -11 15 -5 0 -7 -4 -4 -10 3 -5 -3 -10 -14 -10 -12 0 -21 6 -21 13 0 9
-2 9 -9 -1 -9 -15 -20 -15 -38 -1 -6 6 -30 10 -53 11 -22 0 -46 5 -53 12 -7 6
-23 12 -37 14 -13 1 -27 7 -31 13 -9 14 -20 13 -30 -3 -7 -11 -11 -10 -18 2
-7 9 -30 15 -71 16 -34 1 -66 7 -73 12 -7 6 -34 12 -61 15 -27 3 -52 10 -56
16 -8 14 -60 10 -60 -4 0 -5 -4 -4 -9 4 -5 8 -31 15 -62 16 -63 4 -99 14 -99
27 0 5 -3 7 -8 4 -11 -6 -37 16 -45 39 -7 20 -7 20 8 1 16 -21 21 -10 5 14
-15 25 13 45 64 45 25 0 46 -3 46 -7z m1450 -119 c0 -6 -7 -9 -15 -5 -10 3
-15 -1 -16 -12 -1 -15 -2 -15 -6 1 -4 14 -8 16 -19 6 -12 -10 -13 -9 -8 5 7
18 64 23 64 5z m100 -15 c17 -3 30 -12 30 -20 0 -18 -15 -18 -32 0 -18 17 -76
26 -82 12 -2 -6 -5 -3 -5 7 -1 15 4 18 29 13 17 -3 44 -9 60 -12z m60 -34 c0
-11 -4 -20 -10 -20 -5 0 -10 9 -10 20 0 11 5 20 10 20 6 0 10 -9 10 -20z m67
-1 l28 -11 -23 -9 c-25 -10 -46 -3 -37 11 3 5 -3 11 -12 13 -16 4 -16 5 -1 6
9 0 29 -4 45 -10z m-751 -138 c-13 -20 -26 -11 -26 16 0 25 1 26 16 11 9 -9
13 -21 10 -27z m944 -252 c0 -5 -4 -7 -10 -4 -5 3 -10 1 -10 -5 0 -6 -5 -8
-10 -5 -6 4 -8 11 -5 16 8 12 35 11 35 -2z m56 -29 c3 0 2 5 -1 10 -11 18 36
10 62 -10 32 -25 50 -26 32 -2 -12 15 -12 16 2 5 9 -7 20 -9 24 -5 5 4 5 2 2
-4 -8 -13 44 -27 68 -18 8 4 15 1 15 -7 0 -7 3 -9 7 -6 3 4 13 1 21 -6 12 -9
16 -9 19 1 3 6 11 12 18 12 7 0 16 -6 19 -12 5 -10 7 -10 12 0 5 10 9 10 20 1
11 -9 14 -9 14 1 0 8 8 4 19 -8 19 -22 37 -30 26 -12 -3 6 3 10 14 10 12 0 21
-5 21 -11 0 -6 6 -9 13 -6 6 2 22 -5 34 -16 18 -16 25 -17 37 -8 17 14 31 -1
22 -25 -3 -8 -2 -12 3 -9 6 3 14 -3 20 -12 8 -14 13 -15 19 -5 7 10 11 10 22
-2 7 -9 16 -13 21 -10 5 3 9 -1 9 -8 0 -10 2 -11 8 0 10 15 45 4 39 -12 -3 -8
9 -13 36 -15 22 -1 45 -5 51 -9 11 -7 16 -8 70 -11 21 -1 27 -5 22 -17 -3 -8
-2 -12 4 -9 6 3 10 1 10 -4 0 -6 10 -11 23 -10 20 0 20 1 3 8 -13 5 -16 10 -9
14 7 4 18 -2 26 -14 10 -13 17 -16 22 -10 4 8 11 6 21 -4 9 -8 24 -15 35 -15
10 0 19 -4 19 -10 0 -5 7 -10 16 -10 9 0 23 -8 31 -17 8 -10 12 -13 9 -6 -4 6
-2 14 4 18 5 3 10 -3 10 -14 0 -11 6 -24 14 -28 7 -4 16 -15 19 -23 4 -13 6
-12 6 1 1 24 41 32 41 9 0 -10 6 -21 13 -23 7 -3 5 -6 -5 -6 -10 -1 -18 6 -18
14 0 22 -18 18 -25 -5 -5 -15 -12 -19 -25 -15 -10 3 -24 0 -31 -7 -19 -18 -79
-14 -120 8 -42 21 -186 34 -174 14 5 -9 2 -10 -12 -6 -12 4 -30 -4 -53 -24
-29 -24 -32 -29 -16 -30 11 0 33 -12 49 -27 16 -16 27 -22 25 -14 -2 7 3 16
10 18 7 3 12 -3 13 -14 0 -14 2 -15 7 -3 4 8 14 15 22 16 8 1 26 4 40 8 21 6
22 5 7 -4 -9 -6 -15 -15 -12 -21 4 -5 1 -9 -4 -9 -6 0 -11 -5 -11 -11 0 -6 7
-9 15 -5 9 3 15 0 15 -9 0 -8 -5 -15 -10 -15 -6 0 -16 -12 -22 -26 -11 -23
-13 -24 -19 -7 -7 16 -8 16 -8 1 -1 -16 -12 -23 -33 -19 -5 0 -8 -3 -8 -8 0
-5 -9 -7 -20 -4 -12 3 -20 0 -20 -6 0 -7 -4 -9 -10 -6 -5 3 -10 1 -10 -5 0 -6
-4 -8 -10 -5 -5 3 -18 1 -28 -4 -13 -7 -23 -6 -32 2 -10 10 -12 8 -6 -7 7 -19
6 -19 -14 -1 -17 16 -20 16 -20 2 0 -10 -5 -14 -15 -11 -8 4 -15 10 -15 16 0
5 4 7 9 4 5 -3 11 3 14 13 4 15 1 18 -12 13 -14 -5 -14 -4 -2 11 9 11 10 17 2
17 -6 0 -11 8 -11 18 0 11 -9 27 -21 38 -12 10 -29 34 -39 53 l-17 35 -83 3
c-46 2 -89 8 -96 14 -7 6 -18 9 -26 8 -19 -3 -80 26 -71 34 3 4 -3 7 -14 7
-29 0 -90 60 -97 96 -8 36 6 79 34 103 22 19 31 57 13 54 -7 -2 -13 1 -13 7 0
5 -7 7 -15 4 -8 -3 -30 4 -50 16 -20 12 -42 19 -51 16 -9 -3 -25 5 -40 19 -20
20 -23 27 -12 38 10 12 15 12 26 0 7 -7 16 -13 18 -13z m-2480 1 c-3 -5 -15
-7 -26 -4 -28 7 -25 13 6 13 14 0 23 -4 20 -9z m537 -132 c-8 -8 -13 -7 -18 2
-6 8 -4 10 5 4 10 -6 12 -4 6 11 -6 15 -5 17 5 7 9 -10 10 -16 2 -24z m-35
-39 c11 -22 16 -40 12 -40 -4 0 -12 10 -18 23 l-11 22 0 -25 c-1 -17 -4 -21
-9 -12 -5 7 -16 10 -25 6 -9 -3 -15 -10 -12 -14 3 -4 -2 -11 -11 -14 -12 -5
-15 -2 -10 10 3 8 6 20 6 25 0 5 11 9 24 9 30 0 42 16 26 35 -8 9 -8 15 -2 15
5 0 19 -18 30 -40z m92 0 c0 -5 -5 -10 -11 -10 -5 0 -7 5 -4 10 3 6 8 10 11
10 2 0 4 -4 4 -10z m-210 -52 c0 -12 -3 -18 -7 -14 -10 10 -11 46 -1 40 4 -3
8 -15 8 -26z m3790 16 c0 -8 -5 -12 -10 -9 -6 4 -8 11 -5 16 9 14 15 11 15 -7z
m-3853 -46 c-3 -8 -6 -5 -6 6 -1 11 2 17 5 13 3 -3 4 -12 1 -19z m3873 12 c0
-5 -2 -10 -4 -10 -3 0 -8 5 -11 10 -3 6 -1 10 4 10 6 0 11 -4 11 -10z m-4783
-122 c-3 -8 -6 -5 -6 6 -1 11 2 17 5 13 3 -3 4 -12 1 -19z m-177 2 c0 -5 -2
-10 -4 -10 -3 0 -8 5 -11 10 -3 6 -1 10 4 10 6 0 11 -4 11 -10z m4440 -24 c0
-3 -4 -8 -10 -11 -5 -3 -10 -1 -10 4 0 6 5 11 10 11 6 0 10 -2 10 -4z m-700
-286 c0 -5 -10 -14 -21 -21 -15 -8 -19 -8 -15 0 11 17 -10 13 -28 -5 -9 -8
-16 -12 -17 -7 -1 4 -4 -3 -8 -16 -3 -13 -15 -29 -26 -35 -11 -6 -22 -14 -25
-18 -3 -3 -18 -10 -33 -13 -15 -4 -32 -15 -37 -24 -9 -15 -9 -14 -10 2 0 9 -5
17 -11 17 -15 0 41 53 61 58 8 2 29 4 45 3 23 0 26 2 15 9 -10 6 -11 10 -2 10
6 0 12 7 12 15 0 9 6 12 15 9 8 -4 15 -1 15 5 0 6 7 11 15 11 8 0 15 7 15 15
0 13 4 14 20 5 11 -6 20 -15 20 -20z m-4240 0 c0 -5 -4 -10 -10 -10 -5 0 -10
5 -10 10 0 6 5 10 10 10 6 0 10 -4 10 -10z m5105 -338 c-8 -56 -15 -158 -15
-227 0 -98 -3 -125 -13 -125 -8 0 -22 -9 -32 -20 -10 -11 -24 -20 -32 -20 -7
0 -13 -4 -13 -10 0 -5 -5 -10 -10 -10 -6 0 -37 -17 -70 -37 -32 -21 -87 -56
-122 -77 -35 -22 -93 -59 -129 -83 -37 -23 -69 -43 -73 -43 -3 0 -50 -29 -103
-63 -112 -73 -284 -180 -346 -217 -24 -14 -59 -37 -78 -52 -20 -16 -39 -28
-43 -28 -3 0 -39 -22 -79 -48 -39 -26 -79 -52 -88 -57 -9 -6 -61 -40 -115 -76
-55 -36 -133 -87 -174 -114 -41 -26 -104 -66 -140 -90 -36 -23 -114 -73 -173
-111 -60 -38 -158 -101 -218 -141 -61 -39 -114 -73 -117 -75 -9 -4 -267 -173
-317 -207 -22 -16 -44 -30 -50 -32 -5 -2 -102 -65 -215 -139 -294 -195 -276
-185 -243 -132 65 102 151 194 175 186 19 -6 25 10 8 21 -6 4 -1 14 12 25 21
17 24 17 30 2 6 -15 7 -15 7 -1 1 12 10 16 39 15 39 -1 43 5 28 52 -6 18 -4
22 13 22 14 0 23 9 27 25 3 14 10 23 14 20 5 -3 12 0 15 6 4 5 13 8 20 5 18
-6 58 42 50 61 -4 12 -2 13 8 5 10 -8 20 -7 41 3 16 8 34 15 41 15 8 0 17 10
20 21 6 17 9 19 16 8 7 -11 9 -10 9 4 0 9 7 17 16 17 9 0 18 9 21 19 3 12 11
17 19 14 8 -3 25 6 39 21 13 14 30 23 38 20 8 -3 17 2 21 11 3 9 10 13 16 10
6 -3 7 1 4 9 -4 11 0 16 15 16 12 0 21 5 21 11 0 5 5 7 12 3 7 -5 9 -2 6 7 -4
10 1 15 13 16 12 1 17 -3 13 -10 -3 -7 1 -3 10 7 8 10 13 23 10 27 -2 4 5 13
16 19 11 6 20 8 20 4 0 -3 6 -1 14 6 8 6 12 19 9 27 -5 13 -1 15 20 9 17 -4
27 -2 27 4 0 6 14 16 31 22 22 8 27 13 18 19 -7 4 -10 12 -5 16 4 4 14 0 21
-11 13 -17 14 -15 20 18 5 25 13 36 25 36 9 0 29 11 44 25 15 14 32 25 38 25
5 0 7 7 4 16 -3 8 -2 12 3 9 5 -3 12 -1 16 5 4 6 10 8 15 5 4 -2 13 8 20 25 8
20 21 31 43 36 28 6 30 8 12 15 -18 7 -18 8 -2 8 12 1 16 5 11 14 -5 8 -2 8 9
-2 15 -12 17 -11 17 9 0 18 3 20 14 11 11 -10 16 -8 21 8 3 12 13 21 21 21 8
0 12 -4 9 -10 -3 -5 -1 -10 4 -10 13 0 13 2 2 33 -10 25 -9 25 30 21 30 -4 39
-2 39 11 0 8 7 15 15 15 10 0 15 7 13 18 -2 13 3 17 27 15 17 -1 24 0 18 3
-10 4 -10 8 0 18 12 13 65 31 80 28 4 -1 7 3 7 9 0 5 5 7 10 4 6 -3 10 1 10 9
0 14 19 21 43 17 5 -1 6 3 2 9 -3 5 1 10 11 10 14 0 15 2 3 17 -13 15 -12 16
9 11 12 -4 22 -2 22 4 0 5 5 6 10 3 17 -11 32 5 20 20 -9 11 -5 14 19 13 34
-1 72 36 64 62 -3 9 -1 11 4 5 9 -11 49 -35 59 -35 3 0 3 7 0 16 -4 9 1 28 9
41 13 19 19 22 30 13 10 -8 19 -9 32 -1 13 7 14 10 4 11 -8 0 -12 3 -8 6 3 3
16 -1 29 -10 12 -9 31 -16 41 -16 16 0 18 5 13 30 -3 19 -2 29 4 25 6 -3 7 1
4 9 -3 9 -2 16 4 16 5 0 13 -7 16 -15 4 -13 10 -14 26 -5 11 6 20 18 20 26 0
9 5 12 12 8 7 -5 9 0 6 14 -3 12 -3 21 1 20 27 -3 41 5 41 23 0 17 3 19 13 10
14 -11 27 -5 27 11 0 5 -4 6 -10 3 -5 -3 -10 -1 -10 5 0 7 8 9 21 5 16 -5 27
0 44 19 14 16 26 23 30 17 9 -15 45 10 45 31 0 20 15 24 25 8 11 -17 24 -11
31 14 7 28 54 65 54 44 0 -9 3 -8 10 2 5 8 7 24 4 34 -6 17 -2 18 25 13 23 -5
31 -3 31 8 0 8 5 15 10 15 6 0 8 11 4 27 l-7 27 26 -17 c27 -17 27 -17 37 7 9
26 30 44 30 27 0 -6 5 -11 10 -11 6 0 8 12 4 28 -4 21 -3 24 5 12 8 -10 13
-12 19 -4 4 6 22 17 40 25 23 10 32 19 28 32 -3 13 2 17 24 17 16 0 32 5 36
11 4 8 9 7 15 -2 7 -11 9 -9 9 6 0 27 14 46 35 49 9 1 25 20 35 40 10 23 20
34 24 27 4 -6 12 -8 18 -5 6 4 6 10 0 16 -14 14 6 71 23 64 8 -3 15 8 19 30 4
18 12 33 18 31 6 -1 17 8 23 20 7 13 15 20 18 16 4 -3 7 2 7 12 0 10 2 16 5
13 3 -3 -1 -51 -10 -106z m-5877 29 c4 1 10 0 15 -1 4 -1 10 -3 15 -5 17 -5
48 -17 64 -26 10 -5 27 -9 37 -9 11 0 23 -5 26 -11 4 -6 13 -8 21 -5 8 3 14 1
14 -3 0 -5 23 -14 50 -21 28 -7 53 -16 56 -21 3 -5 15 -9 27 -9 24 0 134 -33
164 -49 10 -5 43 -19 73 -31 30 -13 73 -31 95 -40 22 -10 85 -35 140 -55 134
-49 190 -72 255 -105 30 -16 75 -34 99 -41 23 -7 45 -19 48 -26 3 -7 8 -11 12
-8 4 2 28 -6 54 -19 25 -13 48 -22 51 -19 2 3 15 -4 27 -16 12 -11 25 -18 29
-16 4 2 16 -2 26 -10 10 -8 26 -15 35 -15 9 0 22 -7 29 -15 7 -8 21 -15 31
-15 11 0 28 -9 39 -20 11 -11 23 -19 28 -19 22 4 42 -2 37 -11 -4 -6 6 -10 22
-11 15 0 22 -3 16 -6 -23 -9 -14 -25 11 -19 17 4 26 1 30 -10 4 -10 13 -14 22
-10 8 3 30 -2 47 -11 18 -9 38 -18 46 -19 8 -2 17 -8 21 -15 4 -6 14 -9 21 -7
7 2 24 -7 36 -20 13 -14 23 -19 23 -13 0 9 5 8 15 -3 8 -8 24 -13 35 -11 13 3
18 0 14 -7 -5 -8 -1 -9 10 -5 10 4 23 -1 33 -13 10 -11 27 -20 38 -20 11 0 42
-8 68 -17 47 -17 49 -17 62 0 7 10 23 20 35 22 19 4 20 2 8 -12 -8 -11 -9 -14
-1 -10 14 9 49 -9 78 -39 11 -11 38 -32 61 -46 23 -15 59 -42 80 -62 21 -20
44 -36 50 -36 6 0 21 -12 35 -26 22 -24 23 -26 7 -38 -10 -7 -15 -15 -12 -18
8 -9 -89 -1 -121 10 -58 19 -100 41 -142 71 -24 17 -47 31 -53 31 -5 0 -10 4
-10 8 0 13 -59 53 -80 55 -11 1 -20 5 -20 10 0 5 -11 7 -25 5 -14 -3 -25 -2
-25 2 0 3 -17 11 -37 16 -22 6 -37 15 -35 23 1 7 -2 10 -7 7 -5 -3 -14 1 -21
9 -7 8 -21 15 -31 15 -11 0 -28 9 -38 19 -11 11 -21 17 -24 15 -2 -2 -16 7
-30 20 -14 13 -28 22 -31 19 -6 -6 -126 49 -126 58 0 4 -10 5 -22 1 -16 -4
-20 -2 -15 10 4 12 1 14 -15 10 -14 -3 -27 3 -40 19 -11 13 -17 18 -13 12 4
-9 -2 -13 -19 -13 -19 0 -24 4 -19 16 4 12 0 14 -19 9 -20 -5 -26 -2 -31 15
-3 11 -9 20 -14 19 -24 -4 -53 2 -48 10 3 5 0 13 -6 17 -8 4 -9 3 -5 -4 10
-16 -36 -16 -52 1 -13 12 -17 14 -52 16 -11 0 -20 8 -20 17 0 10 -5 14 -15 10
-9 -3 -18 0 -21 8 -3 7 -15 14 -27 14 -37 2 -51 7 -90 30 -21 12 -46 22 -56
22 -10 0 -24 6 -30 14 -7 8 -20 12 -30 9 -10 -3 -22 0 -26 7 -5 8 -10 8 -21
-1 -8 -6 -14 -7 -14 -2 0 5 -12 10 -27 11 -15 1 -31 6 -36 11 -5 5 -16 7 -23
4 -8 -3 -14 0 -14 7 0 7 -8 10 -20 7 -11 -3 -26 0 -33 6 -7 7 -19 13 -27 15
-8 2 -16 8 -18 13 -2 5 -12 9 -21 9 -10 0 -31 7 -48 15 -16 8 -38 16 -49 18
-29 6 -57 18 -75 34 -9 8 -28 15 -41 17 -13 1 -30 6 -38 11 -8 5 -20 10 -26
11 -5 1 -30 11 -54 23 -24 11 -52 21 -61 21 -10 0 -19 3 -21 8 -1 4 -28 15
-58 25 -91 31 -140 52 -140 59 0 4 -17 10 -37 14 -21 3 -43 11 -48 18 -6 6
-20 17 -33 24 -18 10 -22 10 -22 0 0 -8 -5 -5 -11 5 -5 9 -18 17 -27 17 -9 0
-22 12 -29 26 -10 22 -10 25 4 20 11 -5 14 -2 9 9 -3 9 -2 14 2 11 4 -2 14 -1
22 4 7 4 24 4 37 -1 13 -5 27 -8 31 -8z m4562 -12 c0 -5 -7 -9 -15 -9 -7 0
-19 -8 -24 -17 -10 -16 -10 -16 -11 3 0 11 5 25 11 31 12 12 39 7 39 -8z m-60
-33 c0 -3 -4 -8 -10 -11 -5 -3 -10 -1 -10 4 0 6 5 11 10 11 6 0 10 -2 10 -4z
m-200 -146 c5 0 10 6 12 12 3 7 7 2 11 -11 3 -13 3 -20 0 -17 -6 5 -23 -11
-62 -59 -9 -12 -31 -27 -48 -34 -18 -7 -33 -19 -33 -26 0 -13 -50 -51 -62 -47
-5 1 -8 -2 -8 -8 0 -5 -5 -10 -11 -10 -6 0 -27 -14 -46 -30 -19 -17 -38 -28
-44 -25 -5 4 -9 -3 -9 -14 0 -16 -6 -21 -24 -21 -16 0 -27 -7 -31 -20 -4 -11
-10 -18 -14 -16 -4 3 -23 -10 -42 -30 -34 -34 -101 -74 -126 -74 -7 0 -13 -4
-13 -9 0 -5 -10 -11 -21 -14 -14 -4 -20 -11 -16 -21 3 -8 2 -18 -3 -21 -6 -4
-10 1 -10 9 0 9 -7 16 -16 16 -8 0 -12 -4 -9 -10 3 -5 2 -10 -4 -10 -6 0 -8
-7 -5 -15 4 -11 -1 -15 -17 -15 -19 0 -21 -2 -9 -10 12 -8 12 -10 1 -10 -8 0
-12 -3 -8 -6 11 -11 -32 -44 -49 -37 -12 4 -15 3 -10 -5 4 -7 1 -12 -9 -12
-10 0 -13 5 -9 13 5 6 -7 0 -25 -16 -18 -15 -36 -25 -41 -22 -4 3 -10 -2 -14
-10 -3 -8 -12 -15 -21 -15 -8 0 -15 -5 -15 -11 0 -6 -7 -9 -15 -5 -9 3 -15 0
-15 -10 0 -8 -4 -13 -10 -9 -5 3 -18 -3 -29 -14 -12 -12 -27 -18 -36 -15 -9 4
-23 -3 -35 -17 -17 -21 -21 -22 -30 -9 -9 12 -10 10 -5 -7 5 -18 2 -23 -12
-23 -30 -1 -54 -25 -47 -46 4 -11 4 -16 -1 -12 -11 10 -45 -10 -45 -27 0 -8
-9 -19 -20 -25 -11 -6 -20 -17 -20 -25 0 -8 -3 -15 -7 -16 -5 0 -15 -2 -25 -4
-9 -2 -18 5 -21 16 -4 16 -2 19 16 13 20 -6 20 -6 4 10 -19 19 -22 36 -7 36 6
0 10 5 10 10 0 14 43 56 53 52 5 -1 6 6 2 17 -4 14 0 21 13 25 14 5 19 17 21
51 2 38 -7 54 -22 43 -2 -2 -10 2 -18 9 -15 12 -75 9 -93 -6 -6 -5 -30 -15
-54 -22 -24 -7 -50 -22 -58 -33 -8 -11 -14 -16 -14 -10 0 6 -13 9 -31 6 -31
-4 -31 -4 -24 28 5 23 4 30 -4 26 -6 -4 -11 -3 -11 3 0 5 4 12 9 15 14 9 -11
67 -26 62 -7 -3 -13 -4 -13 -2 0 3 -3 12 -7 22 -4 12 -3 15 5 10 8 -5 10 -2 6
8 -3 9 -13 16 -21 16 -7 0 -19 12 -26 28 -12 27 -37 41 -37 21 0 -7 -10 -9
-25 -7 -14 3 -25 1 -25 -3 0 -5 -6 -9 -13 -9 -17 0 -44 -33 -39 -48 2 -7 -1
-12 -8 -12 -16 0 -9 -121 7 -138 10 -10 10 -19 2 -33 -6 -12 -8 -28 -4 -36 3
-9 0 -20 -7 -25 -21 -13 -31 -9 -24 10 5 14 4 14 -9 -2 -8 -11 -15 -14 -15 -8
0 7 -10 12 -22 12 -22 0 -108 75 -108 93 0 15 -41 47 -80 63 -24 10 -46 13
-70 8 -53 -12 -80 -12 -87 -1 -3 6 -1 7 4 4 6 -4 14 0 17 9 3 8 2 12 -4 9 -6
-3 -13 2 -17 11 -4 10 -2 19 5 22 6 2 9 9 6 16 -3 7 8 18 23 25 15 7 28 12 28
11 0 -1 12 3 26 9 15 5 30 7 34 3 3 -3 22 -8 42 -9 42 -2 93 -21 93 -34 0 -5
5 -9 11 -9 13 0 39 25 39 38 0 5 15 32 34 60 19 27 32 53 28 58 -4 4 1 4 11 1
12 -5 17 -1 17 12 0 15 13 22 53 32 28 7 61 14 72 14 11 0 26 4 33 9 8 5 18 4
25 -3 15 -15 40 -14 31 2 -5 8 -2 8 9 -2 9 -7 17 -10 17 -5 0 5 5 2 10 -6 9
-13 10 -13 10 0 1 8 8 2 16 -13 8 -15 20 -25 25 -21 6 3 13 -3 16 -15 3 -12 9
-21 14 -21 5 0 8 -3 7 -7 -1 -5 4 -19 11 -33 21 -37 31 -90 17 -90 -6 0 -4 -5
4 -10 8 -5 11 -10 5 -10 -5 0 -2 -5 7 -11 12 -7 25 -6 40 2 54 29 190 12 204
-26 4 -8 10 -12 15 -9 5 3 9 -1 9 -9 0 -19 47 -50 54 -36 2 5 3 4 2 -3 -2 -7
-9 -12 -15 -11 -14 4 -15 -14 -1 -22 5 -3 19 6 32 20 12 14 28 25 35 25 7 0
13 5 13 11 0 8 6 7 16 -2 15 -12 16 -11 10 8 -5 16 -2 25 15 33 15 8 19 9 15
1 -4 -6 -3 -11 3 -11 5 0 13 9 16 20 3 11 11 20 17 20 5 0 8 7 5 15 -4 8 -2
17 3 20 6 4 10 -2 11 -12 0 -15 2 -14 11 4 6 12 26 27 45 34 19 6 37 17 40 25
3 8 11 14 19 14 8 0 14 5 14 11 0 7 9 9 22 6 14 -4 27 0 35 11 8 9 12 12 9 6
-3 -7 3 -14 14 -17 16 -4 18 -2 11 11 -14 29 8 62 66 98 15 10 45 31 66 47 20
16 37 26 37 23 0 -4 15 9 34 29 19 19 38 35 43 35 4 0 28 21 53 46 25 25 57
53 73 62 15 9 27 20 27 24 0 11 56 38 78 38 11 0 25 6 31 14 7 8 21 12 31 9
13 -4 22 1 27 13 7 18 8 18 11 2 2 -10 7 -18 12 -18z m1574 -252 c7 -42 7 -42
-65 -107 -40 -36 -87 -79 -104 -96 -18 -16 -76 -70 -130 -120 -54 -49 -103
-95 -109 -100 -6 -6 -40 -35 -76 -64 -36 -30 -69 -60 -75 -66 -5 -7 -28 -25
-50 -40 -22 -16 -44 -34 -50 -40 -12 -13 -126 -108 -180 -150 -52 -41 -205
-163 -231 -184 -11 -10 -46 -37 -79 -62 -32 -24 -75 -57 -96 -74 -88 -70 -316
-243 -374 -285 -100 -72 -700 -527 -780 -592 -11 -9 -49 -39 -85 -67 -87 -69
-125 -99 -175 -141 -23 -19 -51 -42 -62 -50 -25 -20 -137 -113 -143 -120 -3
-3 -48 -41 -100 -84 -52 -44 -104 -89 -114 -99 -25 -26 -32 -13 -45 88 -20
155 -22 149 37 131 37 -12 25 12 -18 34 -22 11 -40 23 -40 26 0 15 22 156 32
199 5 28 17 56 26 63 9 6 11 12 4 12 -8 0 -8 8 1 30 13 31 19 34 402 285 320
210 429 280 485 315 30 19 57 37 60 40 3 3 30 21 60 40 30 19 66 42 80 52 14
11 52 36 85 57 33 21 125 81 205 133 80 52 215 139 300 193 85 54 193 123 240
154 93 61 118 77 140 88 8 4 76 48 151 98 151 100 148 98 239 155 36 23 99 63
140 90 41 28 98 63 125 79 28 16 57 36 65 43 8 7 30 21 48 31 19 10 39 23 46
28 6 6 26 20 45 32 108 70 137 87 147 87 6 0 14 -19 18 -42z m157 -12 c30 -8
74 -29 97 -46 34 -24 42 -36 42 -61 0 -38 -54 -121 -74 -113 -16 6 -87 88
-104 120 -6 12 -20 45 -32 73 -19 49 -19 52 -3 48 10 -3 43 -12 74 -21z m-784
-38 c-3 -8 -6 -5 -6 6 -1 11 2 17 5 13 3 -3 4 -12 1 -19z m649 -76 c8 -29 32
-89 54 -134 22 -44 39 -82 38 -83 -2 -1 -34 -24 -72 -51 -39 -27 -80 -56 -92
-64 -12 -8 -52 -36 -88 -62 -107 -77 -102 -76 -196 -23 -14 8 -46 18 -72 21
-27 4 -48 10 -48 14 0 4 19 25 43 45 57 51 217 197 231 211 6 7 47 50 91 97
44 47 84 85 89 83 5 -1 15 -25 22 -54z m-7154 -3 c3 -9 9 -9 25 0 16 8 24 8
29 0 3 -6 15 -9 25 -6 11 3 25 -1 32 -8 7 -7 25 -12 39 -12 15 0 40 -10 56
-22 17 -11 39 -21 50 -21 10 0 31 -9 45 -20 14 -11 30 -20 35 -20 6 0 19 -8
28 -17 17 -17 18 -17 11 0 -7 18 8 24 18 6 4 -6 13 -8 21 -5 9 3 14 -1 14 -12
0 -14 2 -15 10 -2 8 13 11 12 24 -5 9 -11 16 -24 16 -29 0 -4 7 -6 15 -2 9 3
15 0 15 -8 0 -8 12 -19 28 -24 20 -8 22 -11 8 -11 -15 -1 -17 -4 -8 -13 8 -8
15 -8 25 0 18 15 30 3 16 -15 -9 -10 -8 -13 4 -13 18 0 30 37 13 44 -6 2 -4 5
4 5 22 1 56 -49 40 -59 -8 -5 -8 -9 4 -13 8 -3 22 0 30 8 7 8 16 11 20 8 3 -4
6 1 6 11 0 9 4 15 8 12 5 -3 7 -20 4 -38 -4 -27 -2 -31 9 -20 18 17 30 15 23
-3 -4 -8 -1 -15 5 -15 6 0 11 4 11 8 0 5 7 9 15 9 8 0 15 -7 15 -15 0 -11 3
-12 13 -4 15 13 30 4 42 -23 8 -20 8 -19 14 2 5 19 8 20 23 9 10 -7 15 -16 11
-19 -3 -4 4 -7 16 -7 19 0 22 4 18 21 -3 13 -1 19 6 16 7 -2 11 -15 11 -28 -2
-29 15 -42 34 -27 11 9 12 6 7 -18 -5 -26 -4 -27 6 -8 9 18 14 20 35 10 17 -8
22 -17 18 -31 -4 -16 -3 -17 5 -5 7 10 11 11 11 3 0 -9 17 -13 50 -13 31 0 50
-4 50 -12 0 -6 3 -8 7 -5 3 4 12 2 19 -4 8 -6 21 -9 29 -5 8 3 23 -4 33 -15
12 -12 25 -17 36 -13 9 4 16 3 15 -2 -5 -27 2 -34 20 -25 14 8 20 7 25 -4 4
-11 13 -14 29 -10 16 4 30 1 40 -10 9 -9 21 -14 26 -10 6 3 19 -5 30 -17 18
-18 21 -19 21 -5 0 25 18 21 22 -5 2 -14 11 -24 23 -26 17 -3 17 -1 5 7 -11 8
-11 11 -2 11 7 0 15 -7 18 -15 6 -14 8 -13 20 2 13 17 13 17 14 1 0 -10 7 -18
15 -18 8 0 15 -7 15 -15 0 -12 4 -13 18 -6 12 6 23 5 37 -5 10 -8 28 -14 40
-14 11 0 37 -9 58 -20 20 -11 44 -20 53 -20 8 0 13 -4 9 -9 -3 -5 -1 -12 4
-15 5 -4 13 -2 16 4 4 7 11 7 18 2 7 -5 29 -12 50 -16 25 -5 37 -12 38 -24 0
-14 2 -13 9 3 7 18 9 18 15 3 4 -9 20 -20 36 -23 16 -4 29 -12 29 -19 0 -7 13
-12 32 -12 25 1 35 -5 45 -24 11 -22 18 -21 14 2 0 4 14 1 33 -7 18 -8 37 -11
40 -7 4 3 11 1 15 -6 4 -7 21 -14 37 -16 20 -3 28 -8 26 -20 -3 -18 15 -18 36
2 20 18 31 15 25 -8 -4 -15 -1 -19 9 -15 7 3 23 -2 33 -12 21 -19 48 -23 61
-10 4 4 14 -2 22 -14 8 -11 20 -18 28 -15 7 3 20 -2 29 -10 9 -9 22 -14 30
-11 7 3 19 -1 25 -9 7 -8 18 -14 25 -14 7 0 18 -6 24 -14 6 -7 30 -16 53 -20
22 -4 46 -10 52 -13 5 -4 21 -8 35 -9 13 -2 28 -9 32 -15 7 -12 33 -19 72 -20
12 0 17 -5 13 -14 -3 -9 0 -12 10 -8 9 3 14 -1 14 -13 0 -15 2 -16 9 -5 9 15
51 6 63 -13 5 -8 11 -7 20 2 18 18 31 15 25 -7 -4 -15 0 -19 14 -16 10 2 22
-2 26 -9 5 -7 16 -16 27 -19 14 -6 17 -3 12 8 -8 21 8 19 29 -5 10 -11 23 -20
29 -20 6 0 4 5 -4 10 -25 16 -7 11 32 -9 21 -10 35 -21 32 -23 -10 -11 79 -18
91 -8 11 9 12 7 8 -9 -6 -22 4 -29 52 -35 17 -2 45 -12 64 -21 27 -14 40 -16
62 -8 31 12 47 -5 26 -27 -7 -6 5 -2 26 10 31 19 37 20 37 6 0 -11 9 -16 30
-16 17 0 30 -5 30 -12 0 -10 2 -10 8 -2 4 7 23 11 42 10 28 -1 36 -6 38 -24 4
-26 22 -30 23 -4 1 11 4 9 9 -8 8 -24 8 -24 9 -2 1 25 19 30 27 7 4 -8 10 -12
15 -9 5 3 9 -1 9 -8 0 -10 2 -10 9 1 5 7 14 10 21 6 6 -4 17 1 25 11 14 18 14
18 15 -3 0 -26 3 -27 31 -12 18 9 19 7 14 -18 -3 -15 -2 -22 1 -15 7 16 34 -3
34 -24 0 -15 -34 -36 -44 -27 -3 3 -6 1 -6 -5 0 -7 7 -12 16 -12 13 0 14 -3 4
-15 -7 -8 -10 -26 -8 -39 4 -18 0 -26 -14 -29 -11 -3 -18 0 -18 10 0 8 -4 12
-9 8 -6 -3 -4 -22 5 -47 17 -48 17 -51 4 -43 -6 3 -7 -1 -4 -9 3 -9 1 -16 -5
-16 -16 0 -14 -25 3 -39 12 -10 19 -8 35 8 26 26 26 16 0 -54 -23 -62 -29 -64
-104 -30 -16 7 -41 17 -55 20 -14 4 -52 18 -85 30 -33 13 -130 49 -215 80 -85
31 -189 69 -230 85 -41 16 -163 61 -270 100 -107 39 -215 79 -240 90 -25 10
-79 31 -120 45 -41 15 -84 31 -95 36 -18 8 -273 103 -455 169 -190 69 -430
154 -485 171 -53 16 -375 126 -415 142 -8 3 -42 14 -75 25 -33 12 -127 46
-210 77 -82 31 -179 68 -215 81 -36 13 -78 31 -94 40 -18 11 -27 12 -25 5 5
-13 178 -92 309 -141 41 -15 93 -35 114 -45 22 -9 76 -29 120 -45 45 -16 140
-49 211 -75 199 -70 379 -133 490 -170 55 -19 125 -43 155 -54 30 -11 93 -34
140 -51 47 -17 146 -53 221 -79 74 -27 144 -53 155 -59 10 -5 55 -22 99 -36
44 -15 89 -31 100 -36 11 -6 70 -28 130 -49 216 -76 340 -121 360 -130 11 -5
81 -30 155 -56 74 -26 178 -62 230 -82 52 -19 124 -43 160 -54 36 -11 74 -24
85 -29 11 -5 42 -18 70 -28 27 -11 51 -24 53 -30 5 -15 -32 -46 -141 -118
l-98 -65 -52 20 c-29 11 -95 36 -147 56 -52 19 -115 44 -140 55 -25 10 -90 35
-145 55 -55 21 -113 43 -130 50 -16 7 -86 34 -155 60 -69 26 -152 58 -185 70
-147 58 -194 75 -201 75 -4 0 -26 9 -48 19 -23 11 -61 26 -86 35 -25 8 -67 24
-95 34 -27 11 -88 34 -135 51 -47 18 -105 41 -130 52 -25 10 -90 35 -145 55
-128 45 -369 131 -512 183 -61 22 -119 44 -130 50 -10 6 -56 24 -103 40 -161
56 -524 208 -672 281 -32 16 -58 25 -58 21 0 -7 43 -29 245 -121 50 -22 104
-47 120 -55 17 -7 75 -32 130 -55 55 -23 114 -47 130 -54 30 -13 91 -36 310
-121 66 -25 129 -50 140 -55 11 -5 56 -21 100 -35 44 -15 98 -35 120 -44 22
-10 67 -28 100 -40 33 -13 85 -33 115 -46 30 -13 66 -26 80 -30 14 -4 39 -13
55 -21 17 -7 84 -34 150 -59 218 -84 305 -118 435 -168 72 -29 214 -82 335
-128 44 -16 94 -36 110 -44 17 -7 48 -19 70 -26 22 -6 63 -22 90 -34 28 -12
84 -34 125 -48 201 -70 255 -95 253 -116 -3 -25 4 -26 27 -6 16 15 24 12 198
-56 20 -8 22 -15 22 -86 0 -43 7 -118 16 -168 16 -95 88 -326 110 -360 23 -32
17 -54 -6 -25 -17 21 -21 23 -31 10 -9 -13 -10 -13 -5 2 3 12 -2 19 -17 24
-12 3 -30 13 -39 22 -10 8 -18 12 -18 8 0 -4 -6 -4 -12 1 -7 4 -17 8 -23 9 -5
0 -16 2 -22 2 -7 1 -13 9 -13 17 0 9 -6 12 -15 9 -8 -4 -15 -1 -15 5 0 6 -7
11 -15 11 -8 0 -15 -5 -15 -12 0 -6 -8 -1 -19 10 -10 12 -34 25 -52 29 -19 3
-37 10 -40 16 -10 15 -129 37 -129 23 -1 -6 -8 1 -16 17 -8 15 -21 28 -29 28
-28 3 -33 4 -41 12 -11 10 -36 9 -29 -2 3 -5 -13 -2 -34 7 -22 9 -36 19 -31
20 6 2 10 10 10 18 0 9 -4 13 -9 10 -5 -4 -12 0 -14 6 -3 8 -6 6 -6 -4 -1 -10
-6 -18 -12 -18 -6 0 -8 7 -5 16 4 12 2 15 -9 10 -8 -3 -15 -1 -15 3 0 5 6 11
13 14 6 3 2 4 -10 4 -13 -1 -23 -5 -23 -11 0 -5 -8 -2 -18 7 -10 10 -24 17
-30 17 -7 0 -12 5 -12 11 0 5 5 7 12 3 6 -4 8 -3 4 4 -3 5 0 13 6 15 9 4 8 6
-3 6 -8 1 -24 -5 -34 -13 -11 -8 -25 -11 -33 -8 -11 4 -11 6 0 13 9 6 4 9 -14
9 -23 0 -28 5 -28 24 0 21 -4 23 -36 21 -23 -1 -38 3 -41 11 -3 8 -13 14 -23
14 -11 0 -22 5 -25 11 -4 6 -13 8 -21 5 -8 -3 -14 0 -15 7 0 9 -2 9 -5 0 -7
-17 -54 5 -54 26 0 13 -2 13 -9 3 -7 -11 -18 -9 -55 11 -28 15 -42 27 -34 30
8 4 7 6 -4 6 -10 1 -18 6 -18 11 0 6 -8 5 -19 -2 -16 -10 -23 -9 -38 3 -10 8
-31 21 -47 28 -24 10 -27 14 -15 22 12 7 11 9 -3 9 -10 0 -18 -4 -18 -10 0 -5
-5 -10 -11 -10 -6 0 -9 6 -6 14 3 8 -1 17 -9 20 -8 3 -14 1 -14 -4 0 -11 -71
15 -80 29 -3 5 -20 16 -37 25 -18 9 -33 21 -33 26 0 6 -4 10 -10 10 -5 0 -6
-7 -3 -17 4 -11 3 -14 -5 -9 -7 4 -12 14 -12 22 0 10 -8 13 -27 9 -16 -3 -22
-2 -15 1 20 10 13 26 -10 23 -28 -4 -51 9 -42 23 5 7 -2 9 -19 6 -15 -3 -28
-1 -29 4 -2 5 -12 10 -21 12 -10 1 -22 8 -26 15 -5 7 -24 13 -42 14 -20 1 -40
10 -47 20 -8 10 -19 16 -25 14 -6 -2 -22 2 -35 9 -14 7 -30 10 -37 7 -7 -2
-16 5 -20 16 -7 24 -25 28 -25 7 0 -9 -7 -12 -20 -9 -11 3 -20 12 -20 19 0 8
-6 14 -14 14 -8 0 -17 6 -20 13 -5 10 -7 10 -12 0 -3 -7 -15 -13 -27 -13 -12
0 -17 4 -12 8 15 11 17 32 2 32 -7 0 -19 -6 -26 -12 -9 -8 -11 -8 -8 -2 4 7
-1 15 -10 19 -10 3 -19 1 -21 -4 -2 -7 -10 -5 -19 5 -9 8 -22 13 -29 10 -8 -3
-14 1 -14 9 0 9 -6 12 -15 9 -8 -4 -15 -1 -15 5 0 6 -5 11 -11 11 -5 0 -7 -5
-3 -12 5 -8 2 -9 -10 -5 -10 4 -22 7 -27 7 -5 0 -14 11 -19 24 -6 17 -15 23
-34 21 -14 -2 -26 1 -26 6 0 6 -4 8 -9 4 -6 -3 -26 4 -46 15 -19 11 -40 20
-45 20 -10 0 -50 31 -81 64 -12 12 -19 15 -19 7 0 -7 -6 -11 -12 -8 -7 2 -12
9 -11 15 2 6 -3 9 -11 6 -8 -3 -17 0 -21 5 -3 6 -11 9 -16 6 -5 -4 -9 -2 -9 3
0 5 -20 15 -45 21 -24 6 -48 18 -53 27 -11 19 -22 20 -33 2 -7 -10 -9 -10 -9
0 0 6 -6 12 -14 12 -7 0 -48 18 -91 40 -43 22 -85 40 -94 40 -9 0 -24 7 -34
15 -11 7 -25 11 -33 8 -8 -3 -14 0 -14 7 0 6 -5 8 -11 4 -6 -3 -24 4 -41 16
-16 12 -36 19 -44 16 -8 -3 -14 1 -14 10 0 11 -6 13 -20 9 -18 -6 -25 2 -22
26 1 4 -8 4 -20 1 -14 -3 -19 -1 -14 6 4 6 -1 11 -11 11 -35 0 -58 6 -66 19
-5 7 -12 10 -17 7 -5 -3 -16 5 -24 17 -9 12 -16 17 -16 10 0 -6 -4 -12 -10
-12 -5 0 -10 7 -10 16 0 10 -6 14 -15 11 -8 -4 -17 -2 -20 3 -8 13 -65 40 -84
40 -9 0 -43 14 -76 30 -33 17 -73 33 -90 36 -16 3 -31 9 -33 13 -1 4 -14 6
-27 3 -14 -2 -31 0 -38 5 -6 6 -27 13 -46 17 -44 8 -133 65 -124 79 3 5 1 7
-4 4 -6 -4 -21 1 -33 11 l-22 18 26 80 c15 44 33 118 42 165 22 119 30 379 14
492 -7 51 -14 104 -15 119 -1 15 -8 35 -16 44 -11 13 -11 18 -2 21 10 4 9 8
-2 20 -14 14 -14 17 2 29 22 17 30 17 35 3z m4828 -83 c0 -3 -4 -8 -10 -11 -5
-3 -10 -1 -10 4 0 6 5 11 10 11 6 0 10 -2 10 -4z m1391 -29 c-10 -9 -11 -8 -5
6 3 10 9 15 12 12 3 -3 0 -11 -7 -18z m-5359 -159 c-7 -7 -12 -8 -12 -2 0 14
12 26 19 19 2 -3 -1 -11 -7 -17z m3268 -92 c0 -2 -7 -9 -15 -16 -12 -10 -15
-10 -15 4 0 9 7 16 15 16 8 0 15 -2 15 -4z m2650 -68 c25 -10 55 -26 68 -34
23 -15 22 -16 -60 -71 -46 -30 -92 -63 -103 -72 -11 -10 -27 -21 -35 -25 -8
-3 -52 -32 -96 -64 -45 -31 -130 -90 -190 -131 -60 -41 -115 -81 -123 -88 -20
-21 -131 -95 -131 -88 0 4 -12 -7 -26 -24 -14 -17 -32 -31 -39 -31 -7 0 -15
-4 -17 -8 -1 -5 -41 -37 -88 -72 -47 -36 -91 -71 -99 -78 -8 -8 -33 -25 -55
-39 -23 -14 -49 -33 -58 -42 -10 -9 -47 -38 -83 -66 -36 -27 -96 -74 -133
-103 -37 -29 -71 -56 -77 -60 -5 -4 -68 -54 -140 -112 -71 -58 -138 -112 -149
-120 -10 -8 -58 -49 -106 -90 -48 -41 -113 -97 -145 -125 -33 -27 -95 -81
-140 -120 -95 -83 -510 -495 -580 -577 -28 -32 -52 -58 -55 -58 -3 0 -16 35
-29 78 -13 42 -30 97 -37 121 -22 69 -31 56 121 178 11 9 34 28 51 42 17 14
46 38 65 52 19 15 69 55 113 90 43 35 88 71 100 79 11 8 64 48 117 90 52 41
110 86 129 100 61 46 105 80 139 107 18 16 40 32 47 36 18 10 359 268 403 304
19 15 39 30 46 33 6 3 29 20 51 37 21 18 80 63 129 99 102 75 124 91 180 135
22 17 73 57 114 88 41 31 88 67 106 81 18 14 59 45 91 69 33 25 65 53 73 64 7
10 21 17 31 14 10 -2 17 1 16 7 0 7 49 54 109 105 161 135 252 213 329 283 37
34 45 37 81 31 22 -3 60 -14 85 -25z m-2686 7 c-4 -8 -8 -15 -10 -15 -2 0 -4
7 -4 15 0 8 4 15 10 15 5 0 7 -7 4 -15z m-185 -49 c22 -27 127 -38 141 -15 5
7 9 5 13 -5 4 -10 1 -16 -9 -16 -13 0 -12 -4 3 -24 12 -16 20 -20 25 -12 11
16 10 -3 -2 -46 -9 -30 -17 -39 -43 -46 -50 -14 -147 29 -147 64 0 6 -8 14
-18 16 -19 5 -29 58 -10 58 6 0 8 3 5 7 -7 7 11 33 23 33 4 0 13 -6 19 -14z
m-3973 -53 c-11 -11 -17 4 -9 23 7 18 8 18 11 1 2 -10 1 -21 -2 -24z m7000
-11 c23 -18 104 -138 104 -153 0 -5 -6 -9 -13 -9 -8 0 -24 -11 -37 -25 -16
-17 -30 -23 -44 -19 -16 4 -18 3 -6 -5 15 -10 16 -10 -35 -26 -8 -2 -14 1 -12
7 1 7 -7 14 -18 16 -11 2 -23 9 -27 15 -5 8 -9 6 -13 -5 -4 -11 -13 -14 -23
-10 -15 5 -15 4 -3 -11 17 -21 9 -33 -11 -15 -23 22 -36 19 -59 -13 -17 -24
-24 -28 -31 -17 -7 10 -11 10 -15 0 -2 -6 -9 -10 -14 -6 -14 9 -10 24 6 24 13
0 14 4 3 23 -7 12 -11 25 -10 30 2 9 -2 9 -22 1 -19 -7 -21 -30 -3 -37 6 -2 9
-8 4 -12 -4 -5 -13 0 -21 10 -8 11 -18 15 -27 11 -8 -4 -5 0 6 8 11 9 38 32
60 51 144 125 218 184 230 184 6 0 20 -7 31 -17z m-7012 -75 c-8 -34 -20 -75
-28 -92 -7 -16 -19 -45 -26 -62 -7 -18 -17 -30 -22 -27 -6 4 -7 9 -1 13 5 3
10 24 11 46 0 22 10 58 21 80 12 21 21 47 21 57 0 10 5 18 11 18 6 0 9 9 6 19
-3 13 0 18 8 15 10 -4 10 -17 -1 -67z m5386 -97 c0 -5 -4 -10 -10 -10 -5 0
-10 5 -10 10 0 6 5 10 10 10 6 0 10 -4 10 -10z m1754 -57 c31 -102 33 -108 28
-121 -2 -6 -8 -12 -14 -12 -6 0 -8 6 -5 14 6 15 -11 36 -29 36 -7 0 -15 -8
-18 -17 -3 -10 -4 -5 -2 12 4 28 3 28 -10 10 -18 -25 -18 -6 0 21 13 18 12 20
-5 20 -10 0 -19 -4 -19 -9 0 -5 -6 -4 -13 2 -8 6 -18 7 -23 3 -15 -13 20 32
51 65 16 18 33 33 36 33 3 0 14 -26 23 -57z m-489 -33 c3 -5 1 -10 -4 -10 -6
0 -11 5 -11 10 0 6 2 10 4 10 3 0 8 -4 11 -10z m102 -32 c9 -10 2 -13 -33 -13
-24 0 -44 1 -44 2 0 2 8 12 17 22 17 21 38 17 60 -11z m293 -63 c12 7 12 3 4
-20 -5 -13 -8 -14 -15 -3 -5 7 -9 8 -9 2 0 -14 38 -64 48 -63 19 3 25 -2 12
-11 -11 -7 -11 -10 -2 -10 7 0 10 -4 7 -10 -3 -5 -2 -10 4 -10 6 0 8 -8 5 -17
-2 -10 1 -8 7 5 14 26 22 27 39 7 7 -8 17 -15 23 -15 7 0 7 4 -1 12 -16 16
-16 91 1 85 6 -2 12 -19 12 -38 0 -19 3 -38 6 -44 12 -21 2 -241 -15 -303 -21
-78 -77 -200 -105 -229 -11 -12 -21 -28 -21 -36 0 -30 -137 -147 -153 -130
-13 12 -7 25 8 19 20 -7 19 4 -2 20 -10 7 -14 16 -9 21 5 4 11 2 13 -4 8 -22
25 -14 18 7 -3 11 -2 20 3 20 6 0 8 9 5 21 -4 14 -1 20 8 19 26 -4 40 0 35 9
-3 5 1 14 9 21 8 7 15 21 15 31 0 10 9 21 20 24 21 7 23 15 22 78 -1 36 8 44
41 38 5 -1 6 8 2 19 -3 11 -2 20 4 20 5 0 11 -8 13 -17 3 -17 4 -17 11 0 5 14
2 20 -13 24 -11 3 -20 10 -20 15 0 5 -12 26 -26 46 -15 20 -24 29 -20 19 3
-11 2 -16 -4 -12 -17 11 -31 -5 -17 -20 9 -10 16 -10 27 -1 13 9 13 9 2 -6 -8
-10 -19 -16 -25 -15 -7 1 -11 -6 -11 -15 1 -10 -2 -15 -7 -12 -5 3 -7 21 -5
40 3 25 1 34 -10 34 -9 0 -12 -4 -9 -10 3 -5 1 -10 -5 -10 -6 0 -8 -4 -5 -10
3 -5 2 -10 -4 -10 -5 0 -12 10 -14 23 -4 18 -4 17 -6 -6 0 -16 -5 -26 -10 -22
-6 3 -15 -5 -22 -17 -7 -13 -11 -23 -9 -23 2 0 -4 -13 -13 -30 -14 -25 -23
-22 -18 7 0 4 -11 3 -25 -2 -43 -17 -56 -13 -44 11 19 35 2 33 -20 -2 -17 -26
-21 -28 -17 -12 3 13 1 26 -4 29 -12 7 -11 44 1 44 6 0 10 5 10 11 0 5 -4 7
-10 4 -6 -4 -10 6 -11 22 0 15 -2 47 -5 71 -3 23 -1 42 3 42 4 0 8 12 9 28 2
62 9 90 25 100 13 8 19 8 22 -2 4 -9 15 -12 33 -8 17 3 25 1 20 -6 -4 -7 8 -9
34 -7 22 2 40 -1 40 -7 0 -5 -10 -6 -22 -2 -13 3 -20 3 -16 -1 4 -5 2 -15 -5
-23 -10 -13 -9 -14 10 -4 30 17 43 15 43 -5 0 -15 -2 -16 -10 -3 -5 8 -12 11
-17 7 -4 -5 -1 -12 7 -18 13 -8 13 -10 0 -19 -9 -6 -11 -10 -3 -10 7 0 18 10
24 23 7 12 17 25 23 29 8 5 8 13 -1 27 -7 11 -10 26 -7 34 3 8 -5 19 -18 25
-22 11 -22 12 -1 7 27 -7 33 4 18 33 -10 19 -14 20 -18 8 -4 -9 -12 -16 -19
-16 -10 0 -10 2 0 9 9 5 11 17 6 36 -6 23 -1 33 27 59 l34 31 27 -28 c15 -16
32 -26 38 -22z m90 25 c0 -5 -4 -10 -10 -10 -5 0 -10 5 -10 10 0 6 5 10 10 10
6 0 10 -4 10 -10z m-485 -21 c-4 -5 -2 -9 4 -9 7 0 6 -10 -2 -27 -15 -36 -28
-45 -44 -31 -10 8 -13 4 -13 -15 0 -19 -4 -25 -15 -21 -14 6 -19 -5 -16 -33 1
-7 -3 -13 -9 -13 -6 0 -8 5 -5 10 3 6 1 10 -5 10 -7 0 -14 -9 -17 -20 -3 -11
-8 -20 -12 -20 -4 0 -17 -9 -29 -20 -12 -11 -24 -19 -28 -18 -3 2 -18 -15 -33
-37 -15 -22 -35 -39 -44 -39 -9 1 -17 -4 -17 -12 0 -8 -4 -14 -10 -14 -5 0
-10 -7 -10 -15 0 -8 -5 -15 -10 -15 -6 0 -37 -27 -70 -60 -33 -33 -65 -60 -73
-60 -7 0 -19 -9 -27 -19 -7 -11 -17 -18 -22 -15 -4 3 -8 1 -8 -5 0 -14 -71
-85 -93 -94 -9 -3 -17 -13 -17 -22 0 -9 -9 -15 -26 -15 -14 0 -23 -4 -19 -10
3 -5 0 -10 -8 -10 -18 0 -49 -34 -40 -44 4 -4 -1 -4 -12 0 -14 6 -17 4 -12 -9
7 -18 -24 -42 -38 -29 -4 4 -6 0 -3 -8 3 -8 -5 -20 -16 -26 -12 -5 -20 -18
-20 -27 2 -16 -27 -24 -60 -18 -5 1 -3 -6 5 -15 12 -16 12 -17 -4 -11 -15 6
-17 3 -12 -13 5 -14 2 -20 -9 -20 -10 0 -16 -9 -16 -22 0 -18 -2 -20 -10 -8
-8 12 -10 12 -16 -3 -3 -9 -12 -17 -20 -17 -8 0 -11 -6 -8 -15 4 -8 1 -15 -5
-15 -6 0 -11 -7 -11 -15 0 -8 -6 -12 -14 -9 -7 3 -16 -2 -20 -11 -3 -9 -11
-13 -17 -9 -7 4 -9 3 -6 -3 6 -9 -26 -43 -41 -43 -5 0 -30 -23 -56 -50 -26
-28 -51 -48 -56 -45 -5 3 -12 0 -16 -6 -5 -8 -3 -9 6 -4 9 5 11 4 6 -3 -4 -7
-16 -12 -27 -12 -14 0 -19 -7 -20 -27 0 -24 -2 -25 -8 -8 -7 17 -8 17 -15 -8
-3 -15 -13 -27 -22 -27 -18 0 -44 -23 -44 -39 0 -10 -14 -15 -32 -12 -5 0 -8
-6 -8 -15 0 -8 -4 -12 -10 -9 -6 3 -7 -1 -4 -9 8 -20 -12 -20 -46 -1 l-25 14
25 10 c14 5 21 10 16 10 -5 1 3 13 18 27 14 15 26 31 26 35 0 5 6 9 14 9 8 0
23 11 34 25 11 14 27 25 36 25 8 0 21 10 27 22 7 13 19 29 26 37 13 12 16 12
25 0 7 -10 8 -7 4 11 -4 19 0 29 15 38 11 7 24 10 29 7 6 -4 10 4 10 17 0 18
2 20 10 8 5 -8 10 -10 10 -4 0 16 55 74 70 74 7 0 10 7 6 15 -3 8 -1 15 4 15
6 0 10 7 10 16 0 8 5 12 10 9 6 -3 10 -1 10 6 0 7 3 10 6 6 11 -11 31 17 26
36 -3 12 0 18 9 16 19 -4 59 10 59 21 0 19 79 92 91 84 9 -5 11 -2 6 9 -4 11
-2 14 9 10 8 -3 14 1 14 10 0 9 9 22 20 30 11 8 17 17 12 22 -4 4 1 6 10 2 9
-3 19 0 22 9 3 8 13 14 22 14 16 0 16 1 0 19 -14 16 -15 19 -2 24 8 3 24 3 37
0 20 -6 22 -4 16 25 -6 30 12 50 33 37 5 -3 14 10 21 29 9 26 17 32 33 30 12
-3 16 -2 9 2 -16 7 21 44 45 44 10 0 13 3 6 8 -6 4 -7 17 -3 32 l7 25 1 -24
c1 -21 7 -17 56 34 30 31 55 60 55 65 0 5 6 7 13 4 7 -2 19 7 27 21 7 14 19
25 26 25 6 0 22 9 35 21 13 11 18 18 12 14 -7 -3 -13 -4 -13 -1 0 9 50 56 58
54 13 -4 53 23 47 31 -3 5 2 11 10 15 8 3 15 0 15 -7 0 -7 9 2 19 20 11 17 25
31 33 30 38 -1 68 4 68 13 0 5 -7 7 -15 4 -11 -5 -13 -2 -9 10 4 12 10 13 24
6 21 -11 37 -13 27 -4 -8 8 16 33 26 27 4 -2 5 -9 2 -14z m55 10 c0 -5 5 -7
12 -3 6 4 8 3 5 -3 -8 -12 -57 -5 -57 8 0 5 9 9 20 9 11 0 20 -5 20 -11z
m-6980 -169 c0 -5 -5 -10 -11 -10 -5 0 -7 5 -4 10 3 6 8 10 11 10 2 0 4 -4 4
-10z m3645 -189 c-6 -5 -25 10 -25 20 0 5 6 4 14 -3 8 -7 12 -15 11 -17z
m3353 -64 c15 -16 14 -17 -1 -11 -9 3 -17 11 -17 18 0 6 -5 4 -11 -4 -9 -12
-10 -12 -5 3 3 10 6 24 7 30 0 7 3 5 6 -3 3 -8 13 -23 21 -33z m-3168 19 c0
-2 -9 -6 -20 -9 -11 -3 -18 -1 -14 4 5 9 34 13 34 5z m3163 -66 c-3 -12 -8
-19 -11 -16 -5 6 5 36 12 36 2 0 2 -9 -1 -20z m221 -5 c3 -8 1 -15 -4 -15 -6
0 -10 7 -10 15 0 8 2 15 4 15 2 0 6 -7 10 -15z m-293 -28 c-10 -9 -11 -8 -5 6
3 10 9 15 12 12 3 -3 0 -11 -7 -18z m46 17 c-3 -3 -12 -4 -19 -1 -8 3 -5 6 6
6 11 1 17 -2 13 -5z m-52 -44 c3 -6 -1 -7 -9 -4 -18 7 -21 14 -7 14 6 0 13 -4
16 -10z m-2550 -10 c3 -5 1 -10 -4 -10 -6 0 -11 5 -11 10 0 6 2 10 4 10 3 0 8
-4 11 -10z m2515 0 c0 -5 -5 -10 -11 -10 -5 0 -7 5 -4 10 3 6 8 10 11 10 2 0
4 -4 4 -10z m205 0 c3 -6 -1 -7 -9 -4 -18 7 -21 14 -7 14 6 0 13 -4 16 -10z
m65 -41 c0 -4 -5 -11 -12 -15 -7 -4 -8 -3 -4 4 4 6 2 22 -4 34 -11 22 -10 22
4 4 9 -11 16 -23 16 -27z m-2785 -18 c3 -6 -4 -9 -15 -8 -11 1 -20 5 -20 9 0
11 28 10 35 -1z m-2 -156 c-3 -9 -8 -14 -10 -11 -3 3 -2 9 2 15 9 16 15 13 8
-4z m3487 -79 c0 -8 -12 -24 -27 -36 -26 -21 -28 -21 -31 -3 -2 10 -8 23 -14
28 -6 6 -7 3 -2 -9 5 -14 3 -17 -7 -14 -8 2 -15 14 -17 26 -3 20 1 22 47 22
38 0 51 -4 51 -14z m-759 -23 c10 -11 10 -14 2 -9 -7 4 -13 3 -13 -3 0 -5 5
-12 10 -14 6 -3 5 -4 -2 -3 -7 1 -14 12 -14 24 -2 26 0 27 17 5z m-37 -6 c-3
-8 2 -19 9 -26 12 -10 10 -16 -13 -41 -28 -30 -53 -43 -30 -15 9 10 9 15 1 15
-6 0 -11 9 -11 21 0 11 4 18 9 15 5 -3 12 5 15 19 4 14 11 25 16 25 5 0 7 -6
4 -13z m-5874 -117 c0 -5 -7 -7 -15 -4 -8 4 -15 8 -15 10 0 2 7 4 15 4 8 0 15
-4 15 -10z m3056 -92 c-4 -18 -9 -55 -12 -83 -4 -27 -8 -52 -10 -54 -6 -7
-152 54 -148 61 3 4 31 24 62 44 31 21 66 43 77 50 31 20 38 16 31 -18z
m-3606 -34 c0 -2 -7 -4 -15 -4 -8 0 -15 4 -15 10 0 5 7 7 15 4 8 -4 15 -8 15
-10z m5598 -61 c-2 -22 -8 -28 -28 -28 -18 0 -25 5 -25 20 0 11 5 20 12 20 6
0 15 3 19 8 15 15 25 6 22 -20z m-82 -35 c0 -10 -3 -18 -7 -18 -4 0 -9 8 -11
18 -3 10 0 19 6 19 7 0 12 -9 12 -19z m-4404 -84 c-6 -11 -11 -13 -16 -5 -4 6
-2 11 4 11 7 0 9 9 5 23 -5 19 -4 20 5 5 7 -12 8 -24 2 -34z m285 17 c13 11
13 8 -3 -16 -10 -16 -13 -26 -6 -22 7 5 12 3 12 -4 0 -7 6 -5 13 6 15 20 42
12 33 -11 -3 -8 -1 -14 4 -14 5 0 11 -15 13 -32 4 -32 4 -32 5 5 2 40 2 40 27
31 11 -5 13 -9 6 -14 -8 -4 -5 -14 9 -30 21 -24 19 -43 -5 -34 -8 4 -12 11 -8
17 3 6 1 7 -6 3 -8 -5 -7 -15 6 -37 22 -37 53 -67 53 -51 0 7 8 4 18 -5 19
-18 19 -39 1 -28 -5 4 -9 1 -9 -4 0 -6 8 -11 18 -11 14 0 14 -2 3 -9 -10 -7
-20 -2 -34 17 -11 15 -24 31 -29 36 -4 6 -18 0 -33 -14 -23 -22 -25 -22 -25
-4 0 10 -4 15 -8 9 -8 -12 -44 -16 -37 -5 3 4 -1 10 -8 13 -17 6 -33 4 -29 -5
1 -5 -2 -8 -7 -8 -5 0 -12 10 -16 23 -3 12 -9 17 -11 10 -5 -12 -42 -4 -91 19
-11 6 -26 8 -31 4 -6 -3 -18 4 -26 16 l-16 22 0 -24 c-1 -23 -2 -22 -15 8 -8
17 -20 32 -27 32 -9 0 -9 -3 2 -10 8 -5 13 -10 10 -11 -3 0 -13 -2 -23 -4 -9
-2 -15 0 -12 5 3 4 -3 11 -12 14 -12 5 -14 9 -5 18 15 15 16 38 1 38 -5 0 -8
-3 -5 -8 2 -4 -7 -12 -20 -19 -13 -6 -22 -7 -19 -3 3 5 -2 13 -11 18 -11 6
-13 11 -5 16 6 4 11 2 11 -3 0 -6 4 -11 10 -11 6 0 9 3 9 8 -4 21 3 32 19 30
50 -4 63 2 58 25 -3 12 -3 16 0 9 5 -10 9 -10 20 -1 12 10 16 8 21 -9 7 -29
23 -28 24 1 1 13 3 16 6 7 2 -8 15 -23 30 -34 25 -18 25 -18 14 2 -18 34 -4
52 34 46 20 -3 36 0 41 7 5 9 12 6 26 -11 16 -19 20 -21 35 -9z m4103 -4 c0
-5 -4 -5 -10 -2 -5 3 -10 0 -10 -7 0 -10 -2 -10 -9 1 -6 9 -5 19 2 26 12 13
26 2 27 -18z m-4505 3 c-3 -5 -16 -10 -28 -9 -20 1 -20 2 3 9 14 4 26 8 28 9
2 1 0 -3 -3 -9z m71 -10 c11 0 12 -4 2 -19 -6 -10 -19 -17 -27 -16 -9 2 -20 4
-24 4 -5 1 -6 5 -2 11 3 5 12 7 20 3 8 -3 15 0 15 6 0 6 -5 11 -11 11 -5 0 -7
5 -3 12 6 9 9 9 12 0 2 -7 10 -12 18 -12z m4348 -15 c14 20 47 15 45 -7 0 -10
-2 -10 -6 0 -7 17 -23 15 -23 -3 0 -8 -7 -15 -16 -15 -10 0 -14 -6 -11 -15 4
-8 2 -17 -3 -20 -6 -4 -10 -2 -10 3 0 5 -10 12 -22 16 -18 4 -20 8 -10 18 10
10 15 10 23 -2 7 -11 9 -6 5 20 -5 30 -5 32 4 11 10 -23 11 -23 24 -6z m-5459
-5 c4 -6 11 -8 16 -5 10 7 13 -8 3 -18 -7 -7 -44 14 -44 25 0 12 18 10 25 -2z
m1520 0 c3 -5 1 -10 -4 -10 -6 0 -11 5 -11 10 0 6 2 10 4 10 3 0 8 -4 11 -10z
m3366 -30 c10 0 19 -4 19 -10 0 -5 -5 -10 -11 -10 -6 0 -8 -9 -4 -20 5 -14 2
-20 -9 -20 -9 0 -16 5 -16 11 0 5 -5 7 -12 3 -8 -5 -9 -2 -3 12 4 10 8 28 7
39 0 11 2 14 5 8 3 -7 13 -13 24 -13z m-4813 -15 c-3 -3 -9 2 -12 12 -6 14 -5
15 5 6 7 -7 10 -15 7 -18z m1520 6 c-9 -15 -9 -23 2 -36 8 -10 17 -12 22 -7
12 12 48 4 48 -10 0 -6 7 -5 15 2 13 11 15 8 15 -14 0 -14 5 -26 11 -26 6 0 9
8 7 18 -3 12 0 19 9 19 11 0 13 -8 9 -30 -3 -16 -6 -36 -6 -43 0 -8 -5 -14
-11 -14 -5 0 -7 5 -4 10 3 6 -1 10 -10 10 -9 0 -13 -4 -10 -10 3 -5 3 -10 -2
-10 -12 1 -60 29 -49 30 5 0 4 6 -1 13 -6 6 -9 20 -8 30 2 9 -1 15 -6 11 -5
-3 -9 -15 -9 -27 0 -18 -2 -19 -10 -7 -9 13 -11 13 -20 0 -8 -12 -10 -11 -10
8 0 12 5 22 11 22 6 0 3 7 -5 16 -21 20 -20 41 2 53 23 14 24 14 10 -8z m3792
-11 c-7 -4 -9 -13 -6 -19 4 -6 -1 -14 -10 -18 -16 -6 -16 -7 1 -13 17 -6 15
-9 -12 -25 -17 -10 -36 -28 -42 -39 -5 -12 -10 -15 -10 -8 -1 6 -5 12 -11 12
-5 0 -9 -10 -7 -21 1 -12 -4 -24 -12 -27 -10 -3 -12 0 -8 12 5 12 3 16 -5 13
-7 -2 -14 -12 -14 -23 -1 -10 -2 -23 -3 -28 -1 -5 -8 -3 -17 5 -13 10 -17 10
-25 -2 -7 -11 -9 -9 -9 8 0 12 5 25 10 28 6 4 8 11 4 16 -3 5 -2 9 3 8 44 -8
72 14 32 24 -13 4 -18 10 -14 17 6 9 9 9 15 0 5 -7 16 -9 29 -5 17 5 20 12 16
28 -5 16 -4 18 3 8 14 -19 54 3 45 26 -5 12 -2 15 10 10 11 -4 18 1 22 14 4
10 11 16 17 13 7 -4 6 -9 -2 -14z m43 -20 c3 -12 0 -20 -8 -20 -8 0 -11 8 -8
20 3 11 7 20 8 20 1 0 5 -9 8 -20z m-583 -25 c0 -2 -7 -8 -15 -15 -12 -10 -15
-10 -15 2 0 8 7 15 15 15 8 0 15 -1 15 -2z m-3065 -52 c-2 -10 -4 -21 -4 -25
-1 -5 -10 -8 -21 -8 -29 0 -27 37 3 43 12 2 23 5 24 6 1 0 0 -7 -2 -16z m-148
0 c-4 -3 -2 -12 4 -20 8 -9 8 -13 1 -13 -6 0 -14 5 -17 10 -6 10 2 30 12 30 4
0 3 -3 0 -7z m202 -19 c-8 -24 -8 -25 6 -14 13 11 14 10 9 -4 -3 -9 -9 -16
-13 -17 -19 -2 -61 -4 -61 -3 0 14 28 50 37 47 6 -2 14 1 18 6 12 20 15 11 4
-15z m-287 -36 c-7 -7 -12 -8 -12 -2 0 14 12 26 19 19 2 -3 -1 -11 -7 -17z
m345 4 c7 -5 9 -13 4 -21 -7 -11 -11 -9 -20 8 -12 21 -6 27 16 13z m2836 -25
c-3 -5 -9 -3 -14 4 -4 7 -5 17 -2 22 3 5 9 3 14 -4 4 -7 5 -17 2 -22z m-4317
3 c9 0 12 5 9 10 -3 6 -1 10 5 10 6 0 8 -10 4 -25 -6 -26 -5 -27 54 -28 12 -1
22 -5 22 -10 0 -5 7 -7 14 -4 9 4 17 -2 21 -14 5 -14 13 -18 31 -15 13 3 24 0
24 -6 0 -12 41 -47 57 -48 6 0 13 5 15 12 3 8 12 5 28 -10 13 -12 31 -22 39
-22 26 -1 95 -37 80 -42 -9 -3 -8 -6 4 -11 9 -3 17 -2 17 4 0 6 7 6 20 -1 11
-6 20 -17 20 -25 0 -8 5 -15 11 -15 5 0 7 5 4 10 -3 6 0 10 8 10 8 0 17 -7 21
-15 3 -8 12 -12 20 -9 9 3 31 -4 51 -16 20 -12 42 -19 51 -16 21 8 51 -10 60
-36 5 -18 8 -19 15 -5 5 9 16 14 24 11 8 -4 12 -10 9 -15 -3 -5 6 -9 21 -9 14
0 28 -6 31 -14 3 -8 12 -12 20 -9 8 3 22 -1 32 -10 9 -8 25 -13 34 -12 9 2 22
-3 29 -11 7 -9 17 -11 28 -4 13 6 20 3 29 -11 8 -12 20 -18 30 -15 9 3 24 1
32 -4 8 -5 11 -10 5 -11 -5 0 1 -4 15 -8 14 -4 30 -4 36 0 6 5 21 -2 37 -16
14 -14 43 -27 63 -30 20 -2 42 -9 50 -16 7 -6 18 -8 24 -4 5 3 10 -1 10 -9 0
-16 79 -33 102 -21 7 3 5 0 -4 -8 -10 -8 -15 -17 -11 -20 3 -4 13 -2 20 5 11
9 16 9 23 -1 4 -8 13 -11 19 -7 6 4 21 -2 33 -13 12 -12 28 -21 35 -21 8 0 11
-4 8 -10 -3 -5 -1 -10 4 -10 6 0 11 8 11 18 1 16 1 16 11 -1 5 -9 8 -21 5 -25
-3 -4 8 -7 25 -6 20 1 29 -3 29 -13 0 -13 2 -13 17 -2 15 12 16 12 10 -4 -5
-14 -2 -16 18 -11 16 4 25 2 25 -6 0 -7 7 -10 16 -6 8 3 12 2 9 -4 -3 -6 -3
-10 2 -11 4 0 20 -2 36 -4 18 -2 25 0 21 7 -4 6 -2 8 4 5 5 -4 8 -17 5 -30 -5
-18 -3 -20 8 -9 19 18 36 15 42 -8 5 -21 37 -28 37 -8 0 6 8 4 20 -7 10 -9 26
-15 35 -12 10 4 15 1 15 -10 0 -13 3 -14 12 -5 18 18 31 14 25 -8 -3 -13 -1
-19 6 -18 19 4 108 -33 102 -42 -3 -5 -1 -11 5 -15 6 -3 10 4 10 16 0 22 1 22
14 4 11 -16 17 -17 29 -7 12 10 14 8 10 -11 -6 -28 22 -56 39 -39 8 8 16 5 30
-11 10 -12 18 -17 17 -12 -3 24 2 26 19 5 10 -12 30 -23 45 -23 15 -1 27 -8
27 -15 0 -7 5 -10 10 -7 6 3 17 -1 26 -9 9 -9 20 -14 25 -11 5 4 9 1 9 -4 0
-6 7 -11 15 -11 8 0 15 -7 15 -15 0 -8 5 -15 11 -15 5 0 8 4 5 9 -3 5 2 8 11
7 22 -1 55 -34 48 -46 -3 -5 1 -7 9 -4 9 4 18 -1 22 -10 3 -9 15 -16 25 -16
11 0 27 -9 36 -20 10 -11 23 -20 30 -20 7 0 13 -4 13 -8 0 -12 56 -42 79 -42
13 0 21 -6 21 -16 0 -10 6 -14 14 -11 8 3 13 -1 12 -11 0 -9 4 -17 11 -17 7 0
19 -9 27 -20 14 -17 17 -18 26 -5 8 12 10 11 10 -8 0 -15 7 -26 20 -29 11 -3
18 -9 15 -13 -8 -12 47 -65 64 -62 12 3 12 1 4 -10 -14 -16 -1 -44 15 -34 12
7 20 -43 24 -156 3 -76 -3 -91 -27 -69 -6 4 -44 21 -85 36 -41 16 -82 35 -91
42 -8 7 -19 13 -23 13 -4 0 -31 11 -59 24 -29 13 -59 27 -67 30 -8 3 -22 10
-30 15 -8 6 -78 38 -155 71 -77 34 -168 75 -202 91 -34 16 -64 29 -67 29 -3 0
-53 23 -111 50 -58 28 -108 50 -112 50 -6 0 -116 49 -273 122 -47 22 -107 49
-135 60 -27 11 -61 26 -75 33 -14 8 -59 28 -100 45 -41 17 -84 35 -95 40 -26
13 -192 80 -335 137 -63 25 -133 53 -155 63 -22 10 -51 21 -65 25 -29 8 -107
41 -132 55 -22 12 -46 13 -32 1 5 -4 50 -25 99 -46 50 -21 113 -48 140 -61 28
-12 88 -39 135 -59 47 -21 119 -52 160 -70 41 -18 120 -52 175 -75 55 -23 105
-46 110 -51 6 -4 44 -21 85 -37 84 -34 234 -99 328 -143 34 -16 65 -29 68 -29
3 0 22 -7 42 -17 72 -32 167 -75 187 -83 11 -5 51 -23 88 -39 38 -17 71 -31
73 -31 6 0 228 -98 321 -141 34 -16 65 -29 67 -29 3 0 43 -17 88 -39 46 -21
108 -49 138 -62 30 -12 66 -31 79 -41 13 -10 30 -18 37 -18 8 0 14 -10 14 -23
0 -13 4 -27 9 -32 5 -6 12 -26 15 -47 l7 -36 -88 34 c-48 19 -110 45 -138 58
-153 73 -498 230 -650 296 -27 12 -68 30 -90 40 -42 19 -199 90 -300 135 -33
15 -78 35 -100 45 -76 36 -300 132 -410 177 -60 24 -123 51 -140 58 -16 8
-106 44 -200 80 -93 36 -188 74 -210 85 -93 43 -358 151 -365 148 -7 -3 72
-41 305 -149 44 -20 124 -57 178 -83 54 -25 100 -46 103 -46 3 0 38 -15 77
-34 40 -19 115 -53 167 -76 52 -24 131 -60 175 -80 44 -21 109 -50 145 -65 36
-15 70 -31 75 -35 6 -4 39 -20 75 -35 36 -15 85 -36 110 -48 25 -11 81 -35
125 -52 177 -72 261 -106 280 -115 11 -5 36 -15 55 -23 19 -8 60 -24 90 -36
30 -13 100 -40 155 -62 55 -22 108 -45 118 -50 11 -6 59 -26 107 -44 48 -18
96 -38 107 -44 10 -6 52 -24 93 -42 41 -17 82 -38 91 -45 8 -8 20 -14 26 -14
6 0 16 -7 23 -15 7 -8 8 -15 3 -15 -10 0 -11 -70 0 -88 5 -7 2 -15 -8 -19 -16
-5 -16 -7 -1 -15 9 -5 14 -14 10 -19 -3 -6 5 -20 19 -32 14 -12 28 -32 31 -44
5 -14 12 -20 22 -16 7 3 14 0 14 -7 0 -8 -10 -9 -30 -5 -18 4 -50 0 -82 -11
-37 -12 -69 -15 -117 -11 -99 9 -299 65 -416 116 -63 28 -196 80 -230 91 -21
7 -60 24 -86 36 -26 13 -50 24 -55 24 -4 0 -35 13 -68 29 -34 16 -88 41 -121
56 -33 15 -107 49 -165 77 -58 28 -134 64 -170 80 -36 17 -101 47 -145 68
-131 62 -227 106 -280 130 -56 26 -210 101 -240 118 -11 6 -51 26 -90 43 -38
17 -128 60 -200 94 -71 34 -152 72 -180 85 -27 12 -122 57 -210 100 -88 43
-170 81 -182 85 -28 8 -29 15 -4 42 53 57 110 212 118 323 4 68 8 79 41 119
106 126 119 162 24 68 -60 -59 -72 -62 -72 -19 0 40 -51 208 -95 312 -14 33
-25 63 -24 67 0 4 3 2 6 -4 2 -7 11 -13 19 -13z m4768 -1 c-3 -5 0 -17 7 -25
16 -20 3 -30 -18 -13 -15 12 -16 12 -10 -3 3 -9 1 -19 -6 -21 -9 -3 -8 -9 3
-22 14 -17 13 -18 -2 -12 -20 7 -29 -11 -16 -35 6 -14 5 -16 -7 -12 -8 3 -12
10 -9 15 3 5 0 9 -6 9 -7 0 -10 7 -7 14 4 10 1 13 -9 9 -9 -3 -12 -12 -9 -24
5 -14 1 -19 -12 -19 -15 0 -16 -2 -3 -10 13 -9 13 -12 -3 -21 -9 -6 -15 -14
-12 -20 4 -5 1 -9 -4 -9 -6 0 -11 21 -12 48 0 26 -3 40 -7 31 -6 -14 -9 -15
-20 -3 -7 8 -8 14 -2 14 5 0 10 8 10 18 0 13 2 14 9 4 7 -11 9 -11 14 2 4 9
11 16 16 16 6 0 8 -7 4 -16 -5 -14 -3 -14 15 2 14 12 18 20 11 25 -8 4 -8 9
-1 13 6 3 14 1 17 -4 8 -13 34 17 35 40 0 9 9 16 20 17 11 1 18 -3 14 -8z
m-474 -21 c0 -4 -7 -8 -15 -8 -8 0 -15 -3 -15 -7 0 -5 -11 -21 -24 -36 -21
-24 -25 -26 -28 -10 -2 10 9 29 25 44 27 25 57 34 57 17z m2191 -48 c-6 -28
-11 -85 -11 -125 0 -41 -4 -75 -9 -75 -4 0 -26 -26 -49 -57 -22 -32 -56 -74
-74 -93 -19 -19 -52 -57 -73 -85 -22 -27 -42 -52 -45 -55 -3 -3 -21 -25 -40
-50 -19 -25 -50 -61 -69 -80 -18 -19 -40 -45 -48 -57 -8 -13 -20 -20 -26 -16
-6 3 -7 1 -3 -6 4 -6 1 -17 -6 -24 -7 -8 -29 -33 -50 -58 -20 -24 -52 -64 -72
-87 -20 -24 -36 -49 -36 -55 0 -6 -3 -7 -7 -4 -3 4 -17 -8 -30 -26 -31 -42
-66 -86 -93 -117 -12 -14 -34 -41 -49 -60 -14 -19 -31 -39 -37 -45 -6 -5 -26
-30 -45 -55 -50 -66 -62 -81 -81 -102 -10 -10 -18 -22 -18 -28 0 -5 -9 -14
-20 -20 -11 -6 -20 -15 -20 -21 0 -6 -24 -39 -52 -73 -29 -35 -78 -96 -108
-135 -30 -40 -64 -83 -75 -95 -25 -29 -77 -94 -212 -266 -58 -74 -117 -149
-132 -165 -14 -17 -35 -43 -46 -59 -11 -15 -29 -38 -40 -50 -11 -13 -29 -36
-40 -51 -11 -16 -38 -51 -60 -79 -23 -28 -62 -78 -88 -111 -26 -33 -51 -65
-55 -70 -31 -38 -220 -293 -228 -307 -5 -9 -23 -31 -39 -50 -17 -18 -34 -40
-38 -48 -4 -8 -20 -31 -35 -51 -142 -187 -153 -199 -159 -182 -2 7 -11 9 -19
6 -8 -3 -14 1 -14 11 0 19 11 21 27 5 9 -9 15 -8 25 2 16 17 19 111 4 106 -6
-2 -10 -14 -9 -26 3 -27 -13 -28 -20 0 -3 12 -10 18 -15 15 -5 -3 -15 1 -22 9
-15 18 -4 131 16 160 9 12 14 14 14 6 0 -11 3 -11 16 -1 13 11 16 10 21 -8 3
-12 13 -22 22 -22 9 0 22 -5 28 -11 7 -7 12 -6 16 5 4 10 1 16 -9 16 -8 0 -13
4 -9 9 9 16 45 8 42 -8 -1 -9 5 -17 14 -19 11 -2 18 6 22 25 3 15 1 30 -4 31
-12 5 -12 22 1 22 5 0 12 -11 16 -25 3 -14 10 -22 15 -19 14 8 -20 66 -36 60
-9 -3 -12 0 -8 10 3 9 -1 14 -11 14 -9 0 -19 -6 -22 -14 -7 -18 -40 -26 -53
-13 -7 7 -13 3 -20 -14 -8 -19 -10 -20 -10 -5 -1 10 9 27 21 37 25 22 16 39
-12 21 -18 -11 -19 -10 -7 16 13 29 31 52 42 52 4 0 5 -7 1 -15 -3 -8 -1 -15
4 -15 6 0 10 12 10 26 0 14 4 23 9 20 4 -3 19 6 32 20 13 15 34 30 47 35 18 7
22 14 17 32 -5 19 -4 20 7 6 7 -9 19 -18 25 -20 10 -3 9 -11 -2 -33 -19 -36
-19 -52 0 -36 13 11 15 8 15 -14 0 -14 5 -26 10 -26 6 0 10 2 10 4 0 2 3 11 6
19 3 8 -2 22 -11 31 -14 14 -15 16 -1 16 9 0 13 6 10 14 -3 8 -1 23 6 33 10
16 11 14 7 -9 -4 -30 16 -40 26 -14 3 8 16 16 29 18 18 2 23 9 21 31 -2 26 1
28 21 23 17 -4 26 -1 30 11 4 9 4 18 1 21 -3 3 -5 0 -5 -6 0 -6 -12 -10 -27
-9 -20 1 -30 -5 -40 -23 -7 -14 -13 -19 -13 -12 0 7 -4 11 -10 7 -5 -3 -6 -13
-3 -23 5 -14 3 -14 -17 3 -15 13 -24 16 -27 9 -6 -17 -43 -4 -43 15 0 13 2 13
9 2 5 -8 16 -11 26 -7 15 5 15 7 1 22 -21 20 -20 24 3 24 13 0 21 -8 23 -22 3
-17 8 -10 19 27 12 40 12 51 2 53 -16 4 -16 7 2 42 9 17 11 30 6 30 -5 0 -11
-6 -14 -12 -2 -7 -7 -10 -11 -7 -3 3 14 28 39 55 25 27 45 53 45 58 0 4 7 2
16 -5 15 -12 16 -11 10 8 -4 12 -1 26 6 34 8 8 25 30 38 49 13 19 32 44 42 54
10 11 18 24 18 28 0 5 11 6 24 2 13 -3 27 -1 30 4 4 6 -3 8 -16 4 -14 -3 -19
-2 -14 6 4 7 17 12 29 12 16 0 19 3 8 9 -7 5 -10 14 -6 21 6 9 9 9 16 -1 14
-23 44 3 45 40 1 35 38 77 65 73 9 -1 22 4 29 13 17 21 6 30 -13 11 -8 -8 -17
-12 -21 -9 -13 13 34 40 61 35 19 -4 23 -7 11 -10 -15 -3 -18 -13 -16 -55 l1
-52 4 45 4 45 19 -25 20 -25 1 25 c1 24 1 24 7 3 5 -17 11 -20 22 -13 11 7 12
12 3 21 -17 17 14 44 51 44 25 0 30 4 28 20 -2 16 -1 17 7 5 8 -12 13 -12 22
-3 10 10 7 14 -11 21 -19 7 -20 10 -7 15 9 3 23 -1 31 -9 14 -13 16 -11 24 18
7 28 13 33 35 31 22 -1 27 3 27 20 0 18 -2 19 -10 7 -5 -8 -10 -12 -10 -7 0
10 23 51 34 59 6 4 4 14 -5 24 -12 15 -12 16 7 10 22 -7 64 25 64 48 0 8 7 16
15 20 8 3 12 12 9 21 -4 11 0 15 16 15 15 0 20 5 18 18 -2 9 -10 16 -17 14
-28 -6 -2 24 30 34 19 7 34 18 34 25 0 8 10 15 22 17 24 4 40 32 18 32 -8 0
-15 2 -15 4 0 2 -3 11 -6 20 -4 12 0 16 15 16 11 0 26 9 33 20 7 11 18 20 25
20 7 0 13 5 13 11 0 5 -6 7 -12 3 -7 -4 -4 2 7 13 11 11 23 18 28 16 4 -2 7
-1 6 4 -1 4 1 21 6 37 5 19 4 31 -4 35 -9 6 -8 11 4 21 12 10 19 10 27 2 16
-16 28 -15 28 3 0 8 5 15 10 15 6 0 10 9 10 21 0 14 5 19 14 16 14 -5 36 10
36 25 0 4 -7 8 -16 8 -10 0 -14 6 -10 15 3 8 1 15 -4 15 -14 0 -12 12 5 34 12
16 17 17 30 6 13 -11 18 -10 29 5 8 11 20 16 29 12 22 -8 62 32 47 47 -8 8
-14 6 -20 -4 -5 -8 -10 -10 -10 -5 0 15 16 36 26 34 20 -3 32 2 38 17 5 14 4
15 -9 4 -8 -7 -15 -11 -16 -9 -5 23 -3 59 3 59 4 0 8 7 8 15 0 8 5 15 10 15 6
0 10 -4 10 -10 0 -5 9 -10 21 -10 11 0 17 5 14 10 -3 6 4 10 17 10 22 1 22 1
4 15 -26 20 -36 19 -37 -2 0 -13 -2 -14 -6 -4 -7 18 23 41 54 41 13 0 23 4 23
9 0 6 -9 8 -20 6 -13 -3 -20 2 -20 12 0 9 6 13 15 10 8 -4 17 -2 20 3 4 6 2
10 -4 10 -6 0 0 11 12 24 12 13 51 59 87 102 36 43 94 112 130 154 36 42 83
98 105 125 22 27 68 83 103 124 35 42 78 94 97 116 137 165 198 233 203 229 2
-1 -1 -26 -7 -54z m-4894 24 c-7 -7 -37 7 -37 17 0 6 9 5 21 -1 11 -7 19 -14
16 -16z m3197 -28 c-10 -8 -21 -12 -23 -10 -3 2 4 11 15 18 10 8 21 12 23 10
3 -2 -4 -11 -15 -18z m-584 -20 c0 -21 -21 -31 -30 -15 -5 7 -6 17 -4 21 9 14
34 9 34 -6z m-20 -48 c0 -6 -7 -5 -15 2 -8 7 -15 17 -15 22 0 6 7 5 15 -2 8
-7 15 -17 15 -22z m-20 -6 c0 -4 -14 -13 -30 -21 -23 -10 -28 -16 -20 -26 8
-10 4 -12 -20 -9 -18 2 -29 0 -25 -6 9 -14 -6 -60 -19 -60 -18 0 -107 -90
-101 -101 4 -5 1 -9 -4 -9 -6 0 -11 6 -11 13 0 6 -6 3 -12 -8 -17 -28 -38 -49
-38 -36 0 6 -4 11 -8 11 -5 0 -7 -13 -4 -29 4 -26 2 -29 -17 -24 -16 4 -21 1
-21 -13 0 -16 -2 -17 -10 -4 -7 10 -10 11 -11 3 -1 -7 -2 -19 -3 -25 -1 -7
-11 -12 -23 -11 -16 2 -21 -2 -17 -12 4 -8 1 -15 -5 -15 -6 0 -19 -13 -30 -30
-10 -16 -20 -27 -23 -24 -4 3 -9 -4 -13 -15 -3 -12 -13 -21 -21 -21 -8 0 -14
-7 -14 -15 0 -19 -31 -55 -47 -55 -19 0 -43 -29 -37 -45 7 -17 -11 -21 -21 -5
-4 6 -11 8 -16 4 -5 -3 -7 -9 -4 -14 3 -5 -4 -11 -15 -15 -11 -3 -20 -11 -20
-16 0 -13 -25 -39 -37 -39 -4 0 -14 -9 -21 -20 -7 -12 -18 -17 -28 -13 -14 5
-15 3 -4 -18 13 -23 12 -23 -5 -9 -17 14 -18 13 -12 -3 6 -15 4 -16 -14 -6
-19 10 -20 9 -9 -11 9 -18 9 -21 0 -15 -9 5 -10 1 -5 -16 4 -14 3 -19 -2 -12
-6 9 -18 10 -38 4 -20 -6 -23 -10 -11 -10 19 -1 19 -2 -2 -21 -20 -19 -25 -20
-50 -8 -23 12 -27 19 -25 53 2 22 10 45 18 51 8 6 15 19 15 28 0 9 6 16 13 15
23 -3 37 1 34 10 -2 7 36 45 87 89 8 6 23 12 32 12 10 0 15 3 11 6 -11 11 29
45 46 38 10 -3 17 -1 17 5 0 6 9 11 20 11 11 0 20 7 20 15 0 8 7 15 15 15 8 0
20 9 27 20 7 11 19 20 26 20 7 0 18 11 24 25 6 14 30 39 52 55 22 17 36 30 31
30 -5 0 4 13 20 28 43 40 80 85 88 105 3 9 17 17 30 17 19 0 26 7 31 31 4 21
11 30 23 28 33 -3 42 1 37 15 -5 14 23 26 64 26 12 0 21 3 20 8 -5 15 37 72
49 68 8 -3 13 2 13 12 0 15 2 15 10 2 8 -13 10 -12 10 3 0 15 3 16 20 7 11 -6
20 -14 20 -18z m-1339 -13 c19 -16 20 -18 4 -10 -34 17 -51 31 -39 31 7 0 22
-9 35 -21z m1799 -20 c0 -23 -5 -29 -21 -29 -11 0 -18 -4 -14 -9 6 -10 -34
-37 -47 -33 -5 1 -8 -4 -9 -10 0 -7 -5 0 -10 17 -5 19 -5 31 2 36 6 3 11 10
11 15 1 19 11 34 19 28 5 -3 9 -1 9 5 0 11 29 19 48 13 6 -2 12 -17 12 -33z
m-1880 -19 c0 -5 -5 -10 -11 -10 -5 0 -7 5 -4 10 3 6 8 10 11 10 2 0 4 -4 4
-10z m37 -14 c0 -8 -6 -12 -15 -9 -11 5 -11 7 0 14 7 5 13 9 14 9 0 0 1 -6 1
-14z m1727 -38 c-3 -10 -1 -25 4 -35 6 -12 4 -27 -4 -43 -10 -18 -14 -20 -14
-8 0 10 -7 16 -19 15 -12 -1 -17 -7 -13 -19 5 -20 -14 -25 -21 -5 -4 9 -6 9
-6 -1 -1 -7 9 -17 22 -22 17 -8 13 -9 -20 -5 -30 3 -43 0 -47 -10 -3 -8 -15
-15 -26 -15 -11 0 -20 -4 -20 -10 0 -5 7 -7 15 -4 8 4 15 1 15 -5 0 -6 -5 -11
-11 -11 -5 0 -7 -4 -4 -10 9 -15 -5 -12 -44 9 -30 16 -32 19 -13 23 13 4 25
20 33 46 8 29 18 42 35 46 13 4 24 11 24 17 0 6 5 7 10 4 6 -4 7 -12 3 -18 -5
-8 -2 -8 9 0 8 7 19 9 24 5 4 -4 2 1 -6 11 -12 16 -10 22 25 53 28 25 41 31
47 22 4 -7 5 -21 2 -30z m-2674 -8 c0 -5 -5 -10 -11 -10 -5 0 -7 5 -4 10 3 6
8 10 11 10 2 0 4 -4 4 -10z m4924 -51 c-13 -15 -14 -22 -5 -33 7 -8 10 -20 6
-27 -5 -8 -1 -9 14 -4 18 5 21 2 21 -19 0 -30 15 -42 24 -19 6 15 8 15 16 3
13 -20 12 -31 -1 -27 -6 1 -14 -5 -16 -13 -3 -9 -1 -11 4 -5 13 16 66 19 61 4
-2 -7 -11 -14 -19 -17 -11 -3 -11 -1 1 8 13 10 13 11 0 7 -8 -2 -15 -12 -16
-23 -1 -32 -15 -83 -25 -90 -6 -3 -7 5 -3 20 3 15 2 26 -4 26 -6 0 -8 9 -5 20
8 29 -18 17 -52 -25 -15 -19 -32 -32 -38 -28 -5 3 -7 1 -4 -4 4 -6 -2 -21 -13
-33 -11 -13 -20 -27 -20 -32 0 -4 -6 -8 -12 -8 -18 0 -63 80 -46 80 9 0 10 2
1 8 -23 15 -20 74 5 70 11 -2 16 3 14 14 -2 10 2 27 8 38 15 29 61 75 71 73 5
-2 9 3 9 11 0 24 35 78 38 60 2 -8 -4 -24 -14 -35z m-272 -104 c7 -33 13 -62
13 -65 1 -3 5 -20 9 -37 6 -26 3 -39 -15 -65 -13 -18 -28 -37 -35 -43 -6 -5
-31 -36 -55 -68 -86 -114 -100 -132 -112 -142 -7 -5 -24 -26 -38 -45 -15 -19
-40 -49 -55 -66 -16 -17 -40 -46 -54 -65 -27 -36 -84 -105 -130 -156 -16 -18
-32 -38 -37 -46 -4 -8 -28 -38 -53 -67 -43 -51 -112 -134 -128 -155 -25 -32
-107 -134 -126 -155 -11 -13 -25 -32 -31 -41 -5 -9 -27 -36 -47 -60 -37 -43
-154 -191 -273 -345 -33 -42 -67 -84 -75 -93 -15 -16 -55 -66 -95 -120 -11
-15 -37 -47 -57 -72 -20 -24 -76 -93 -124 -154 -48 -60 -94 -116 -101 -123 -7
-8 -17 -22 -23 -32 -5 -10 -18 -28 -29 -41 -43 -52 -188 -236 -216 -276 -16
-23 -77 -103 -135 -178 -58 -75 -109 -144 -115 -153 -5 -9 -16 -23 -23 -31 -8
-8 -24 -30 -37 -50 -13 -20 -42 -61 -64 -91 -22 -30 -52 -72 -66 -92 -30 -45
-42 -47 -55 -10 -6 15 -15 36 -20 47 -32 71 -34 92 -12 127 12 19 32 46 44 61
13 14 50 65 83 112 74 106 244 338 280 382 15 18 38 50 52 70 14 21 32 42 39
46 8 4 14 14 14 22 0 7 4 15 8 17 5 2 39 44 77 93 66 87 238 307 321 410 22
28 49 64 60 80 10 17 21 32 25 35 4 3 37 43 74 90 36 47 77 99 90 115 14 17
56 71 94 120 38 50 76 97 83 105 7 9 26 34 43 55 16 22 35 47 42 55 26 33 109
138 133 169 14 19 32 41 40 50 8 9 25 30 38 46 24 32 46 58 115 141 23 28 78
95 122 149 44 54 85 103 90 109 6 6 28 34 50 61 22 28 43 52 47 53 5 2 8 8 8
14 0 5 6 15 13 22 17 19 47 54 87 106 19 24 41 51 48 60 8 8 43 53 78 100 36
47 73 94 82 105 17 20 17 20 20 -5 1 -14 8 -52 14 -85z m373 85 c3 -5 1 -10
-4 -10 -6 0 -11 5 -11 10 0 6 2 10 4 10 3 0 8 -4 11 -10z m-65 -21 c0 -5 -4
-9 -10 -9 -5 0 -10 7 -10 16 0 8 5 12 10 9 6 -3 10 -10 10 -16z m185 1 c3 -5
1 -10 -4 -10 -6 0 -11 5 -11 10 0 6 2 10 4 10 3 0 8 -4 11 -10z m-2669 -47
c-10 -10 -19 5 -10 18 6 11 8 11 12 0 2 -7 1 -15 -2 -18z m-2135 -26 c-10 -9
-11 -8 -5 6 3 10 9 15 12 12 3 -3 0 -11 -7 -18z m2099 5 c0 -5 10 -14 23 -21
l22 -11 -22 6 c-24 6 -32 -9 -12 -22 8 -4 7 -9 -2 -15 -10 -6 -5 -9 14 -9 17
0 26 -4 22 -10 -10 -17 -47 -1 -79 34 -20 21 -25 24 -17 9 6 -12 15 -24 20
-27 5 -4 7 -16 3 -28 -3 -14 -1 -19 6 -14 6 3 13 2 16 -3 8 -12 -15 -20 -45
-14 -17 3 -26 0 -27 -9 -3 -37 -11 -52 -30 -59 -13 -5 -22 -4 -22 1 0 5 -7 7
-15 4 -22 -9 -18 -23 8 -34 22 -9 22 -9 -3 -10 -16 0 -20 -3 -13 -8 9 -6 6
-11 -8 -21 -20 -12 -21 -11 -14 18 7 31 2 35 -42 34 -16 -1 -17 13 -2 23 8 4
7 9 -2 15 -12 7 -12 9 0 9 7 0 11 6 8 15 -8 18 9 30 46 34 7 0 17 11 22 23 6
12 16 23 22 26 10 3 10 -4 2 -28 -6 -17 -9 -34 -5 -37 3 -4 6 1 6 10 0 10 5
17 11 17 5 0 7 5 4 10 -3 6 1 10 9 10 8 0 20 -8 25 -17 9 -16 10 -16 11 5 0
16 -6 22 -21 22 -12 0 -19 5 -16 13 2 6 12 11 21 11 10 -1 15 4 14 15 -2 10 3
15 13 13 9 -1 19 4 23 13 6 16 26 21 26 7z m127 -14 c-3 -8 -6 -5 -6 6 -1 11
2 17 5 13 3 -3 4 -12 1 -19z m-70 -40 c-3 -8 -6 -5 -6 6 -1 11 2 17 5 13 3 -3
4 -12 1 -19z m-97 -82 c0 -3 -4 -8 -10 -11 -5 -3 -10 -1 -10 4 0 6 5 11 10 11
6 0 10 -2 10 -4z m-4216 -33 c-7 -32 -78 -180 -97 -203 -35 -42 -54 -51 -81
-39 -14 7 -26 17 -26 22 0 9 65 87 150 180 19 21 39 45 43 53 13 22 18 16 11
-13z m4021 -25 c1 -13 3 -26 4 -29 0 -3 12 -4 26 -1 31 5 32 -11 3 -31 l-23
-15 25 -10 c14 -6 19 -11 13 -11 -7 -1 -22 -10 -33 -21 -11 -11 -30 -20 -42
-20 -21 -1 -22 -2 -5 -14 9 -7 17 -17 17 -21 0 -4 -7 -2 -15 5 -10 9 -15 9
-15 1 0 -6 -5 -11 -10 -11 -6 0 -10 6 -9 13 3 22 -1 37 -10 37 -10 0 -2 -51
12 -68 7 -9 5 -11 -9 -5 -17 6 -18 5 -4 -13 14 -18 14 -18 -2 -5 -10 7 -15 17
-12 22 3 5 -2 6 -10 3 -10 -4 -16 -18 -16 -36 0 -23 -4 -29 -15 -24 -10 4 -15
-1 -15 -14 0 -11 -6 -20 -14 -20 -7 0 -19 -7 -26 -15 -10 -12 -9 -15 6 -16 18
-1 18 -2 1 -6 -10 -3 -16 -10 -13 -16 37 -89 32 -121 -19 -113 -24 4 -35 2
-35 -6 0 -7 -7 -2 -16 10 -19 28 -60 27 -58 -1 2 -15 -1 -16 -14 -5 -13 11
-14 11 -8 -1 5 -8 3 -17 -5 -22 -12 -8 -11 -11 2 -19 12 -7 15 -19 9 -53 -3
-23 -3 -55 1 -70 4 -15 3 -27 -2 -27 -5 0 -9 -10 -10 -22 0 -13 -3 -18 -5 -11
-3 7 -11 10 -17 8 -7 -2 -24 14 -40 36 -15 22 -32 37 -37 34 -6 -3 -10 -2 -10
4 0 6 -12 14 -26 17 -19 5 -24 12 -21 25 3 12 0 19 -10 19 -8 0 -12 -4 -9 -9
3 -5 -3 -11 -14 -14 -13 -3 -20 0 -20 9 0 8 -6 11 -15 8 -8 -4 -16 -1 -16 5
-5 45 -2 74 9 78 6 3 12 13 12 24 0 10 12 26 26 36 14 10 41 31 60 46 19 16
38 25 45 21 7 -4 9 -3 6 3 -8 13 71 103 90 103 7 0 13 5 13 11 0 6 7 9 15 5 9
-3 15 0 15 10 0 12 5 11 22 -5 20 -19 22 -19 33 -4 7 10 11 23 8 30 -3 7 0 13
6 13 6 0 11 -7 11 -15 0 -9 6 -12 17 -8 11 4 12 8 5 11 -7 2 -12 11 -12 19 0
14 2 14 18 1 35 -30 46 -33 40 -10 -4 15 -2 22 9 22 8 0 11 -5 7 -12 -5 -7 -3
-8 5 -3 9 5 7 13 -10 31 -12 13 -19 27 -16 31 4 3 7 1 7 -5 0 -7 5 -12 11 -12
6 0 8 9 4 20 -5 15 -2 20 10 20 11 0 15 -5 11 -16 -3 -9 -2 -12 4 -9 6 4 10
12 9 18 -5 42 21 52 38 15 8 -19 10 -20 16 -4 4 10 3 15 -3 11 -6 -3 -10 -1
-10 4 0 6 5 11 11 11 6 0 9 6 6 13 -3 8 3 20 13 27 10 8 16 20 12 29 -3 9 -2
13 3 9 4 -4 9 -18 10 -30z m-38 0 c-3 -8 -6 -5 -6 6 -1 11 2 17 5 13 3 -3 4
-12 1 -19z m2813 12 c8 -5 11 -10 5 -10 -5 0 -17 5 -25 10 -8 5 -10 10 -5 10
6 0 17 -5 25 -10z m-258 -25 c3 3 17 -13 32 -36 l28 -41 -23 -24 c-12 -13 -25
-21 -29 -19 -4 3 -7 -7 -7 -21 0 -14 -12 -37 -25 -52 -14 -15 -31 -36 -39 -48
-16 -24 -71 -92 -114 -140 -16 -18 -41 -50 -55 -69 -14 -20 -43 -60 -66 -88
-22 -29 -62 -82 -88 -120 -26 -37 -56 -73 -67 -80 -10 -8 -16 -16 -14 -19 3
-3 -7 -16 -22 -30 -15 -13 -33 -33 -40 -44 -6 -10 -16 -18 -22 -17 -6 2 -11
-6 -11 -18 0 -11 -4 -17 -10 -14 -5 3 -10 -3 -10 -14 0 -11 -13 -30 -29 -42
-17 -12 -27 -28 -24 -35 4 -10 0 -12 -13 -7 -12 4 -15 3 -10 -6 9 -14 -32 -63
-45 -55 -5 3 -9 -1 -9 -8 0 -24 -25 -68 -38 -68 -7 0 -10 -4 -7 -10 3 -5 1
-10 -4 -10 -6 0 -11 -6 -11 -14 0 -7 -7 -19 -15 -26 -10 -9 -15 -9 -15 -1 0 6
-4 11 -10 11 -5 0 -7 -6 -4 -13 3 -8 -2 -20 -11 -27 -8 -7 -15 -22 -15 -33 0
-11 -3 -17 -6 -14 -4 4 -14 -8 -23 -26 -9 -17 -23 -32 -31 -32 -8 0 -16 -9
-18 -19 -2 -10 -13 -28 -23 -39 -10 -12 -19 -30 -20 -41 0 -12 -3 -15 -6 -8
-7 17 -23 5 -23 -18 0 -10 -10 -26 -22 -35 -13 -8 -23 -19 -23 -23 0 -4 -3 -6
-6 -5 -4 1 -15 -7 -24 -17 -11 -12 -13 -20 -7 -20 7 0 12 -5 12 -11 0 -6 -7
-9 -15 -5 -10 3 -15 -1 -15 -12 0 -20 -79 -128 -91 -125 -4 1 -10 -10 -14 -25
-3 -16 -19 -44 -35 -63 -51 -61 -130 -170 -130 -180 0 -5 -4 -9 -10 -9 -5 0
-10 -6 -10 -14 0 -8 -4 -16 -9 -18 -6 -1 -41 -45 -80 -96 -38 -51 -85 -111
-104 -135 -18 -23 -69 -87 -113 -142 -43 -55 -92 -117 -109 -139 -16 -21 -41
-54 -55 -71 -129 -166 -281 -374 -355 -487 -49 -75 -93 -137 -96 -137 -4 -1
-17 18 -28 41 -12 24 -33 61 -46 83 -14 22 -25 50 -25 62 0 11 20 47 43 80 24
32 77 103 117 158 41 55 78 105 82 110 5 6 40 53 78 105 39 52 82 109 95 125
13 17 41 53 61 80 21 28 58 76 83 109 59 74 83 106 153 199 32 42 64 85 73 94
8 10 56 70 106 133 50 63 103 131 119 150 16 19 49 62 74 95 25 33 49 65 53
70 5 6 26 32 48 60 22 27 43 54 47 60 5 5 23 29 40 51 18 23 51 65 73 94 22
29 56 72 75 95 19 24 51 63 70 86 19 24 42 54 51 68 9 15 37 49 62 76 26 28
47 53 47 57 0 4 19 29 43 56 23 27 56 65 72 86 17 21 38 47 49 59 10 12 53 65
95 117 42 52 78 97 81 100 3 3 34 41 70 85 35 44 72 89 82 100 9 11 61 76 115
145 53 69 102 128 108 132 5 4 15 1 21 -7 6 -8 13 -12 16 -10z m378 9 c0 -3
-7 -12 -15 -21 -20 -19 -32 -10 -14 11 14 15 29 21 29 10z m-2953 -26 c-3 -8
-6 -5 -6 6 -1 11 2 17 5 13 3 -3 4 -12 1 -19z m223 12 c0 -5 -4 -10 -10 -10
-5 0 -10 5 -10 10 0 6 5 10 10 10 6 0 10 -4 10 -10z m2571 -42 c-6 -10 -8 -24
-4 -31 17 -27 3 -57 -28 -57 -22 0 -23 4 -9 30 7 13 6 19 -4 23 -10 4 -12 -1
-9 -16 5 -17 3 -20 -7 -10 -16 15 -5 63 15 63 9 0 20 12 26 28 10 25 11 26 21
8 8 -14 8 -24 -1 -38z m-2904 -100 c-3 -7 -5 -2 -5 12 0 14 2 19 5 13 2 -7 2
-19 0 -25z m-82 -29 c11 -17 -1 -21 -15 -4 -8 9 -8 15 -2 15 6 0 14 -5 17 -11z
m2842 -39 c1 -11 -2 -22 -6 -24 -6 -4 -7 26 -2 42 3 8 7 -1 8 -18z m-6787 -6
c10 -10 -19 -39 -38 -38 -12 0 -20 -4 -19 -10 1 -6 -8 -12 -20 -14 -13 -2 -23
-8 -23 -13 0 -5 -7 -9 -15 -9 -22 0 -19 7 22 56 31 39 40 44 62 39 14 -4 28
-9 31 -11z m6873 -27 c3 -7 -3 -13 -14 -14 -15 -1 -16 1 -6 12 15 18 14 18 20
2z m-106 -29 c-3 -8 -6 -5 -6 6 -1 11 2 17 5 13 3 -3 4 -12 1 -19z m-12 -15
c3 -16 16 -38 27 -50 12 -13 17 -23 10 -23 -6 0 -18 -7 -26 -16 -17 -16 -19
-13 -18 31 1 12 -1 14 -4 5 -2 -8 -19 -23 -36 -33 -25 -14 -33 -15 -40 -5 -8
10 -11 10 -15 0 -2 -6 -10 -9 -15 -6 -7 4 -8 2 -4 -4 4 -6 13 -9 21 -5 9 3 15
-1 15 -11 0 -17 -9 -20 -34 -10 -20 8 -21 33 -1 40 8 4 13 10 10 14 -3 5 11 7
30 6 29 -3 33 -1 23 11 -9 11 -13 11 -19 1 -4 -7 -11 -9 -15 -6 -8 8 32 75 49
82 25 10 35 5 42 -21z m-3377 -1 c6 -18 -15 -14 -22 4 -4 10 -1 14 6 12 6 -2
14 -10 16 -16z m3416 -18 c3 -8 2 -12 -4 -9 -6 3 -10 10 -10 16 0 14 7 11 14
-7z m31 -14 c3 -5 1 -10 -4 -10 -6 0 -11 5 -11 10 0 6 2 10 4 10 3 0 8 -4 11
-10z m-1050 -119 c-8 -16 -24 -32 -34 -36 -11 -3 -23 -15 -26 -26 -4 -10 -11
-19 -16 -19 -13 0 26 58 59 88 33 29 36 28 17 -7z m870 -1 c-3 -5 -13 -6 -21
-3 -12 4 -13 8 -3 14 15 9 32 2 24 -11z m-55 -10 c0 -5 -4 -10 -10 -10 -5 0
-10 5 -10 10 0 6 5 10 10 10 6 0 10 -4 10 -10z m0 -40 c0 -5 -7 -7 -15 -4 -8
4 -15 8 -15 10 0 2 7 4 15 4 8 0 15 -4 15 -10z m-840 -10 c0 -5 -4 -10 -10
-10 -5 0 -10 5 -10 10 0 6 5 10 10 10 6 0 10 -4 10 -10z m950 -7 c0 -5 -5 -15
-10 -23 -8 -12 -10 -11 -10 8 0 12 5 22 10 22 6 0 10 -3 10 -7z m-208 -78 c-2
-14 -6 -25 -8 -25 -2 0 -4 11 -4 25 0 14 4 25 9 25 4 0 6 -11 3 -25z m-871
-18 c-10 -9 -11 -8 -5 6 3 10 9 15 12 12 3 -3 0 -11 -7 -18z m-6391 9 c0 -3
-4 -8 -10 -11 -5 -3 -10 -1 -10 4 0 6 5 11 10 11 6 0 10 -2 10 -4z m587 -58
c-3 -8 -6 -5 -6 6 -1 11 2 17 5 13 3 -3 4 -12 1 -19z m6618 2 c3 -5 1 -10 -4
-10 -6 0 -11 5 -11 10 0 6 2 10 4 10 3 0 8 -4 11 -10z m-862 -17 c-7 -2 -13
-11 -13 -19 0 -8 -4 -14 -10 -14 -5 0 -10 4 -10 8 0 12 22 32 35 31 5 0 4 -3
-2 -6z m1042 -43 c8 -13 -40 -31 -62 -23 -13 5 -9 9 18 19 19 7 35 13 36 13 1
1 5 -4 8 -9z m-108 -126 c-3 -3 -12 -4 -19 -1 -8 3 -5 6 6 6 11 1 17 -2 13 -5z
m-1087 -8 c0 -3 -4 -8 -10 -11 -5 -3 -10 -1 -10 4 0 6 5 11 10 11 6 0 10 -2
10 -4z m1072 -28 c-7 -7 -12 -8 -12 -2 0 14 12 26 19 19 2 -3 -1 -11 -7 -17z
m38 12 c0 -5 -5 -10 -11 -10 -5 0 -7 5 -4 10 3 6 8 10 11 10 2 0 4 -4 4 -10z
m-3296 -81 c12 10 14 8 12 -12 -2 -13 -6 -29 -10 -35 -5 -8 -2 -10 9 -6 17 7
45 -12 45 -30 0 -6 -5 -4 -11 4 -6 8 -12 11 -15 5 -16 -36 -22 -39 -47 -22
-23 15 -26 15 -31 0 -14 -35 -17 -1 -5 51 10 45 15 54 26 45 9 -9 17 -8 27 0z
m2086 -14 c-7 -9 -15 -13 -18 -10 -3 2 1 11 8 20 7 9 15 13 18 10 3 -2 -1 -11
-8 -20z m1075 15 c3 -5 1 -10 -4 -10 -6 0 -11 5 -11 10 0 6 2 10 4 10 3 0 8
-4 11 -10z m-1135 -84 c0 -3 -4 -8 -10 -11 -5 -3 -10 -1 -10 4 0 6 5 11 10 11
6 0 10 -2 10 -4z m-2040 -32 c0 -2 -7 -4 -15 -4 -8 0 -15 4 -15 10 0 5 7 7 15
4 8 -4 15 -8 15 -10z m2000 -14 c0 -5 -4 -10 -10 -10 -5 0 -10 5 -10 10 0 6 5
10 10 10 6 0 10 -4 10 -10z m-40 -55 c0 -8 -7 -15 -15 -15 -8 0 -15 -5 -15
-12 0 -6 -3 -9 -6 -6 -8 8 14 48 26 48 6 0 10 -7 10 -15z m-1997 -15 c-3 -12
-8 -19 -11 -16 -5 6 5 36 12 36 2 0 2 -9 -1 -20z m-4070 -30 c16 0 18 -3 9 -9
-11 -7 -11 -9 2 -14 10 -4 16 -1 16 8 0 18 24 19 53 3 34 -19 145 -17 153 2 5
12 8 10 17 -10 8 -21 11 -22 14 -7 3 9 9 17 15 17 5 0 8 -6 5 -14 -7 -17 52
-29 71 -14 9 8 12 6 12 -7 0 -10 3 -15 7 -12 3 4 12 2 19 -3 6 -6 29 -12 50
-14 26 -2 40 -10 45 -22 4 -11 8 -15 8 -10 1 5 8 3 16 -4 9 -8 15 -8 15 -2 0
6 9 10 20 9 11 -1 20 -4 20 -8 0 -3 11 -11 25 -17 18 -8 25 -8 25 -1 0 7 9 5
24 -4 13 -9 33 -13 46 -10 12 3 25 1 29 -5 4 -6 22 -13 41 -15 19 -2 46 -9 58
-16 13 -7 35 -10 48 -7 14 4 24 2 24 -4 0 -6 5 -8 11 -5 5 4 19 -3 30 -16 10
-12 22 -19 26 -16 3 4 15 0 25 -9 14 -14 20 -15 33 -4 13 11 19 10 36 -8 22
-24 34 -27 44 -12 10 16 25 12 25 -7 0 -9 3 -13 7 -10 3 4 12 2 18 -3 7 -6 35
-12 62 -15 69 -6 112 -23 93 -35 -11 -7 -7 -10 17 -10 17 0 34 -4 37 -9 7 -11
46 -2 46 10 0 5 5 9 10 9 16 0 11 -19 -9 -37 -11 -9 -18 -20 -15 -25 3 -4 -5
-9 -18 -9 -18 -1 -19 -2 -5 -6 10 -3 24 1 32 7 8 7 22 10 30 6 9 -3 14 -2 12
2 -3 4 1 13 9 20 12 11 14 8 14 -20 0 -25 3 -29 10 -18 9 13 11 13 20 0 5 -8
10 -10 10 -4 0 5 -5 15 -11 21 -9 9 -7 11 9 6 12 -3 21 -8 20 -12 -4 -35 3
-41 50 -41 29 0 42 -3 34 -9 -10 -6 -9 -10 7 -14 35 -9 36 -8 37 13 1 23 11
36 20 27 4 -3 1 -20 -5 -37 -9 -28 -9 -31 5 -26 9 3 19 6 24 6 5 0 10 8 13 18
3 13 6 11 15 -10 6 -16 19 -28 27 -28 9 0 13 5 10 10 -3 6 4 10 17 10 17 0 19
-3 9 -9 -21 -13 -2 -34 26 -28 18 3 27 -1 33 -17 9 -21 9 -21 9 -1 1 22 33 28
59 12 6 -5 16 -5 22 -2 6 4 7 -1 3 -11 -5 -13 -3 -16 10 -11 10 4 17 1 17 -6
0 -7 7 -4 15 6 13 18 14 18 25 -2 13 -25 32 -19 23 6 -6 15 -5 15 17 0 14 -9
41 -17 62 -17 23 0 38 -5 39 -12 0 -10 2 -10 6 0 7 17 43 15 43 -2 0 -20 26
-27 55 -16 17 7 25 6 25 -1 0 -6 7 -9 15 -5 8 3 15 1 15 -3 0 -5 9 -7 20 -4
14 4 20 0 20 -11 0 -9 5 -16 10 -16 6 0 10 6 10 13 0 9 3 8 9 -2 6 -9 11 -10
15 -2 5 7 12 7 26 -1 10 -7 17 -15 14 -19 -6 -11 50 -5 58 5 4 6 14 3 26 -7
10 -9 22 -14 26 -10 4 4 11 1 15 -6 5 -7 24 -15 42 -17 18 -2 35 -8 38 -13 5
-7 44 -23 61 -26 3 0 10 -3 15 -7 6 -4 17 -3 25 2 9 5 20 4 29 -3 12 -10 13
-9 7 3 -4 8 -1 7 8 -4 8 -10 19 -15 25 -12 5 3 16 -1 25 -9 12 -12 20 -14 36
-5 15 8 20 8 20 -1 0 -7 10 -9 25 -7 14 3 25 2 25 -3 0 -4 9 -6 20 -4 11 2 22
0 25 -5 3 -4 14 -6 25 -3 11 3 27 0 35 -7 8 -7 21 -10 29 -7 8 3 16 1 18 -5 2
-6 11 -12 19 -14 7 -1 29 -4 48 -7 25 -4 38 -1 47 10 10 15 12 15 18 -3 7 -22
53 -47 62 -33 3 5 18 2 34 -8 23 -13 32 -14 44 -4 17 14 51 1 73 -28 8 -11 12
-12 13 -3 0 15 51 5 62 -12 5 -7 8 -7 8 2 0 10 5 9 17 -4 11 -11 18 -13 21 -5
5 16 22 14 22 -3 0 -9 7 -12 20 -9 13 3 20 0 20 -8 1 -9 5 -8 15 5 14 19 15
19 35 -4 11 -13 20 -18 20 -13 0 16 82 -6 98 -25 11 -14 12 -14 12 1 0 13 5
15 24 7 16 -6 27 -5 35 3 9 9 11 8 6 -5 -6 -14 0 -17 43 -16 34 0 52 5 56 14
3 8 13 14 23 13 16 0 15 -1 -2 -9 -18 -7 -16 -8 10 -11 18 -3 30 -10 30 -19 0
-16 58 -23 84 -10 9 5 23 0 35 -11 21 -20 41 -24 50 -11 6 10 66 3 66 -8 0 -4
11 -10 25 -12 14 -3 25 -1 25 4 0 5 5 6 12 2 7 -5 9 -2 5 9 -3 8 0 18 8 21 10
3 12 0 8 -11 -4 -11 -2 -14 5 -9 7 4 12 2 12 -3 0 -6 -5 -11 -11 -11 -5 0 -7
-5 -3 -11 4 -8 9 -8 17 0 13 13 30 15 23 2 -8 -12 21 -34 34 -26 5 3 10 11 10
16 0 6 -4 7 -10 4 -5 -3 -10 -2 -10 3 0 12 29 24 40 17 4 -3 6 -15 4 -28 -2
-12 -2 -16 2 -10 3 8 15 11 29 7 23 -6 24 -4 16 35 -1 2 -7 -2 -15 -8 -11 -9
-15 -7 -18 12 -3 13 -1 32 3 43 6 16 8 15 8 -8 1 -21 6 -28 21 -28 12 0 17 5
14 14 -3 7 2 16 11 20 9 3 13 10 10 16 -3 5 -1 10 5 10 7 0 10 -6 7 -12 -16
-44 -17 -55 -4 -55 9 0 12 7 9 19 -3 14 -1 17 14 11 17 -6 18 -5 4 12 -14 16
-13 17 8 11 16 -6 22 -3 22 8 0 9 7 16 15 16 21 0 19 -27 -2 -39 -10 -6 -13
-10 -8 -10 14 0 46 25 40 31 -3 3 2 11 11 18 13 11 17 11 24 1 5 -9 10 -10 14
-2 8 12 52 15 59 4 2 -5 2 -2 1 5 -4 15 11 14 56 -3 l35 -13 -35 -2 c-22 -2
-28 -4 -15 -7 27 -7 41 -22 19 -20 -13 1 -19 -5 -19 -18 0 -11 6 -21 13 -21 6
-1 21 -2 32 -3 11 0 20 -6 20 -12 0 -6 -10 -8 -22 -5 -16 4 -14 2 5 -6 26 -12
37 -28 17 -28 -5 0 -10 -5 -10 -11 0 -6 6 -9 14 -6 9 4 16 -4 20 -25 4 -19 14
-32 26 -35 l21 -6 -21 -19 c-16 -15 -18 -23 -10 -33 8 -10 8 -19 0 -34 -12
-23 -36 -28 -43 -8 -2 6 -3 3 -1 -8 3 -21 -8 -47 -20 -46 -20 3 -26 -2 -32
-24 -3 -14 -11 -25 -16 -25 -6 0 -5 -7 2 -15 12 -14 6 -15 -51 -10 -35 4 -139
22 -231 41 -92 19 -243 49 -336 68 -92 19 -180 39 -195 45 -15 6 -58 15 -95
21 -37 6 -103 19 -147 29 -241 55 -359 81 -434 96 -46 8 -88 18 -94 22 -5 3
-62 16 -126 28 -64 13 -159 33 -211 44 -95 22 -404 89 -535 117 -62 13 -140
30 -365 80 -36 8 -121 26 -188 39 -68 14 -128 27 -132 30 -7 4 -203 47 -415
91 -108 22 -332 70 -410 88 -38 9 -155 34 -260 56 -104 22 -203 44 -219 50
-36 13 -59 13 -51 1 3 -5 31 -15 63 -22 31 -6 82 -18 112 -26 30 -8 80 -21
110 -28 30 -7 91 -22 135 -34 44 -11 118 -30 165 -40 137 -32 418 -100 505
-122 44 -12 130 -32 190 -46 144 -33 203 -47 301 -72 44 -11 123 -30 175 -40
52 -11 119 -27 149 -35 30 -8 96 -23 145 -34 50 -11 142 -33 205 -48 133 -31
256 -57 535 -113 179 -36 244 -49 405 -81 25 -5 92 -16 150 -25 58 -9 120 -21
138 -26 18 -6 96 -21 175 -35 193 -33 287 -51 333 -63 22 -5 50 -12 64 -15 14
-2 79 -14 145 -25 66 -12 134 -26 150 -31 17 -5 48 -12 70 -15 22 -4 65 -13
95 -22 30 -8 70 -16 90 -18 19 -2 38 -3 41 -4 4 -1 9 -22 13 -48 4 -27 17 -75
31 -107 l24 -60 -21 -35 c-12 -20 -47 -75 -80 -123 -32 -47 -58 -91 -58 -97 0
-30 24 -14 66 46 109 155 124 173 124 139 0 -8 16 -46 36 -84 l36 -71 -76
-115 c-43 -64 -78 -116 -79 -116 -12 0 -211 43 -272 58 -44 12 -102 24 -130
28 -27 3 -57 10 -65 14 -8 4 -31 10 -50 13 -19 3 -78 15 -130 27 -179 40 -518
113 -650 140 -25 5 -85 18 -135 30 -49 11 -146 32 -215 45 -69 13 -138 28
-155 34 -16 5 -70 17 -120 26 -49 8 -106 19 -125 24 -19 5 -71 17 -115 26 -44
10 -107 24 -140 31 -33 7 -109 23 -169 34 -59 11 -112 22 -116 25 -4 2 -65 16
-136 31 -71 14 -156 32 -189 39 -157 34 -209 45 -328 69 -70 14 -131 28 -136
30 -4 3 -61 16 -127 30 -65 14 -175 39 -244 56 -232 58 -374 91 -500 116 -175
34 -203 40 -305 62 -226 50 -284 64 -340 82 -33 10 -87 27 -120 37 l-60 18 -9
157 c-9 153 -8 157 14 188 22 31 24 32 79 25 60 -6 145 -20 226 -35 28 -6 100
-17 160 -26 61 -9 130 -22 155 -29 25 -8 79 -19 120 -25 69 -11 211 -40 370
-76 36 -8 120 -25 188 -39 68 -13 128 -27 133 -31 6 -3 54 -14 107 -25 53 -11
151 -32 217 -49 66 -16 154 -36 195 -45 41 -9 113 -25 160 -37 47 -11 139 -31
205 -45 66 -13 147 -30 180 -38 143 -31 217 -47 330 -69 66 -13 149 -31 185
-40 36 -9 133 -30 215 -47 83 -17 179 -37 215 -45 36 -8 119 -25 186 -38 67
-13 126 -26 132 -30 7 -4 35 -11 64 -16 53 -9 255 -52 420 -89 48 -11 131 -27
185 -36 54 -9 121 -23 148 -30 28 -8 84 -21 125 -30 95 -20 138 -31 223 -60
37 -12 70 -19 72 -14 3 4 2 10 -3 13 -18 11 -121 46 -182 61 -36 9 -85 22
-110 30 -25 8 -94 24 -155 35 -60 11 -175 34 -255 51 -80 16 -200 41 -268 54
-68 14 -128 27 -133 31 -5 3 -67 16 -137 30 -70 13 -158 31 -197 39 -141 30
-213 45 -343 69 -73 14 -137 28 -143 32 -5 3 -72 17 -147 30 -75 13 -168 31
-207 39 -92 21 -172 38 -329 70 -71 14 -133 28 -139 32 -6 3 -27 10 -46 13
-147 29 -253 53 -291 64 -25 8 -99 26 -165 41 -66 15 -145 33 -175 41 -30 8
-73 19 -95 23 -194 40 -287 61 -294 65 -9 6 -192 45 -331 71 -41 8 -106 21
-145 29 -100 22 -389 65 -533 81 -68 7 -127 16 -130 20 -3 3 -1 14 6 23 23 32
64 127 83 192 33 112 22 267 -25 361 -9 18 -15 39 -15 48 1 13 2 13 6 -1 2
-10 14 -18 26 -18z m6005 -10 c-7 -11 -16 -20 -21 -20 -4 0 -3 9 3 20 6 11 15
20 20 20 6 0 5 -9 -2 -20z m-6071 -250 c-4 -60 -32 -178 -37 -155 -1 6 -1 15
0 20 11 43 16 84 10 80 -4 -3 -10 4 -13 14 -8 30 2 116 13 119 5 2 10 11 11
20 0 11 4 8 10 -8 6 -14 8 -54 6 -90z m5358 100 c3 -5 1 -10 -4 -10 -6 0 -11
5 -11 10 0 6 2 10 4 10 3 0 8 -4 11 -10z m32 -12 c-3 -8 -6 -5 -6 6 -1 11 2
17 5 13 3 -3 4 -12 1 -19z m541 -23 c-3 -3 -9 2 -12 12 -6 14 -5 15 5 6 7 -7
10 -15 7 -18z m-618 -15 c0 -5 -2 -10 -4 -10 -3 0 -8 5 -11 10 -3 6 -1 10 4
10 6 0 11 -4 11 -10z m26 -25 c-4 -12 -12 -14 -28 -10 -19 6 -21 5 -10 -6 14
-16 16 -39 2 -39 -5 0 -10 6 -10 14 0 8 -5 18 -12 22 -7 5 -9 0 -6 -14 4 -12
0 -26 -8 -33 -19 -15 -18 -29 2 -29 8 0 12 5 9 10 -3 6 -1 10 5 10 7 0 9 -7 6
-16 -3 -9 -6 -20 -6 -25 0 -6 -4 -8 -9 -5 -5 3 -11 -4 -14 -16 -5 -18 -8 -19
-21 -8 -14 11 -16 9 -17 -11 -2 -24 -2 -24 -6 -1 -2 12 -9 22 -15 22 -5 0 -8
-7 -4 -15 4 -13 2 -13 -14 -5 -28 15 -32 13 -25 -12 4 -16 3 -19 -3 -8 -13 22
-9 73 6 76 7 1 8 0 2 -3 -13 -6 -13 -23 -1 -23 17 0 24 42 10 51 -20 12 -2 11
22 -1 10 -6 19 -20 19 -30 0 -11 4 -20 8 -20 4 0 8 9 8 20 0 11 -3 20 -7 20
-3 0 -6 19 -7 43 -1 29 1 37 7 27 6 -8 7 -18 5 -22 -3 -4 0 -8 5 -8 6 0 11 5
11 11 0 5 5 7 10 4 6 -3 10 -4 10 -1 0 2 3 12 7 22 4 12 3 15 -5 10 -7 -4 -12
-2 -12 4 0 9 26 7 68 -6 6 -2 12 4 12 13 0 9 3 14 6 10 4 -3 4 -13 0 -22z
m-1763 -87 c-5 -10 -33 10 -33 23 0 5 9 4 19 -3 11 -7 17 -16 14 -20z m617 7
c-7 -9 -15 -13 -17 -11 -7 7 7 26 19 26 6 0 6 -6 -2 -15z m-567 -12 c-7 -2
-19 -2 -25 0 -7 3 -2 5 12 5 14 0 19 -2 13 -5z m2138 -36 c-16 -16 -26 0 -10
19 9 11 15 12 17 4 2 -6 -1 -17 -7 -23z m859 23 c0 -5 -5 -10 -11 -10 -5 0 -7
5 -4 10 3 6 8 10 11 10 2 0 4 -4 4 -10z m-2920 -4 c0 -2 -9 -6 -20 -9 -11 -3
-18 -1 -14 4 5 9 34 13 34 5z m-2093 -78 c-3 -8 -6 -5 -6 6 -1 11 2 17 5 13 3
-3 4 -12 1 -19z m20 0 c-3 -8 -6 -5 -6 6 -1 11 2 17 5 13 3 -3 4 -12 1 -19z
m-1695 -50 c-7 -7 -12 -8 -12 -2 0 6 3 14 7 17 3 4 9 5 12 2 2 -3 -1 -11 -7
-17z m-20 -40 c-7 -7 -12 -8 -12 -2 0 6 3 14 7 17 3 4 9 5 12 2 2 -3 -1 -11
-7 -17z m-62 -82 c0 -15 -77 -96 -91 -96 -5 0 -9 -6 -9 -14 0 -8 -15 -25 -32
-37 -18 -13 -35 -26 -38 -29 -10 -13 -93 -70 -102 -70 -4 0 -8 15 -7 33 0 17
3 26 6 20 6 -17 28 -16 43 2 7 8 17 12 22 9 6 -4 8 2 3 15 -7 24 22 43 35 21
5 -8 10 -9 14 -2 3 6 2 13 -4 17 -20 13 -10 26 11 14 20 -10 21 -9 16 10 -3
11 -1 21 4 21 5 0 9 -4 9 -10 0 -5 20 11 45 37 25 25 45 51 45 58 0 6 3 15 6
18 9 9 24 -2 24 -17z m12 -263 c-1 -58 -3 -107 -5 -109 -4 -4 -155 49 -200 71
-20 9 -37 21 -37 25 0 4 26 17 58 28 31 12 84 39 117 61 33 22 62 38 64 35 3
-2 4 -52 3 -111z m5592 52 c-4 -8 -7 -15 -9 -15 -2 0 -5 7 -9 15 -3 9 0 15 9
15 9 0 12 -6 9 -15z m-887 -91 c-3 -3 -12 -4 -19 -1 -8 3 -5 6 6 6 11 1 17 -2
13 -5z m157 -15 c-3 -5 -10 -7 -15 -3 -5 3 -7 10 -3 15 3 5 10 7 15 3 5 -3 7
-10 3 -15z m-738 -34 c13 -13 13 -15 1 -15 -8 0 -17 7 -21 15 -3 8 -3 15 0 15
3 0 12 -7 20 -15z m274 -25 c0 -5 -4 -10 -10 -10 -5 0 -10 5 -10 10 0 6 5 10
10 10 6 0 10 -4 10 -10z m710 0 c0 -5 -4 -10 -10 -10 -5 0 -10 5 -10 10 0 6 5
10 10 10 6 0 10 -4 10 -10z m-40 -4 c0 -9 -30 -14 -35 -6 -4 6 3 10 14 10 12
0 21 -2 21 -4z m229 -552 c-11 -14 -14 -13 -21 6 -11 30 0 44 19 25 12 -13 13
-18 2 -31z m76 -471 c21 -32 46 -68 57 -80 22 -23 19 -43 -10 -81 l-18 -23
-86 20 c-47 12 -93 21 -101 21 -31 0 -27 20 13 77 23 32 51 73 63 90 12 18 27
33 33 33 6 0 28 -26 49 -57z"/>
<path d="M7970 10760 c-9 -6 -10 -10 -3 -10 6 0 15 5 18 10 8 12 4 12 -15 0z"/>
<path d="M8548 10683 c7 -3 16 -2 19 1 4 3 -2 6 -13 5 -11 0 -14 -3 -6 -6z"/>
<path d="M10190 9831 c0 -7 -8 -11 -17 -9 -13 2 -18 -4 -18 -21 0 -18 11 -29
49 -49 45 -23 59 -26 160 -25 61 1 120 4 131 6 11 3 34 6 50 7 17 1 24 4 18 7
-7 2 -13 9 -13 14 0 6 4 8 9 4 5 -3 12 -1 16 5 3 5 3 11 -2 11 -37 6 -55 10
-103 24 -30 9 -84 16 -120 16 -36 0 -72 3 -79 8 -9 6 -22 6 -34 0 -13 -7 -23
-7 -33 2 -10 8 -14 9 -14 0z"/>
<path d="M10390 9350 c0 -5 5 -10 10 -10 6 0 10 5 10 10 0 6 -4 10 -10 10 -5
0 -10 -4 -10 -10z"/>
<path d="M10950 8720 c0 -5 5 -10 10 -10 6 0 10 5 10 10 0 6 -4 10 -10 10 -5
0 -10 -4 -10 -10z"/>
<path d="M10820 8620 c0 -5 5 -10 10 -10 6 0 10 5 10 10 0 6 -4 10 -10 10 -5
0 -10 -4 -10 -10z"/>
<path d="M10225 8220 c-13 -6 -15 -9 -5 -9 8 0 22 4 30 9 18 12 2 12 -25 0z"/>
<path d="M10165 8210 c-3 -5 -1 -10 4 -10 6 0 11 5 11 10 0 6 -2 10 -4 10 -3
0 -8 -4 -11 -10z"/>
<path d="M10080 8149 c0 -5 5 -7 10 -4 6 3 10 8 10 11 0 2 -4 4 -10 4 -5 0
-10 -5 -10 -11z"/>
<path d="M9800 7965 c0 -8 2 -15 4 -15 2 0 6 7 10 15 3 8 1 15 -4 15 -6 0 -10
-7 -10 -15z"/>
<path d="M9655 7890 c3 -5 8 -10 11 -10 2 0 4 5 4 10 0 6 -5 10 -11 10 -5 0
-7 -4 -4 -10z"/>
<path d="M9205 7510 c3 -5 11 -10 16 -10 6 0 7 5 4 10 -3 6 -11 10 -16 10 -6
0 -7 -4 -4 -10z"/>
<path d="M8735 8160 c-3 -5 -2 -10 4 -10 5 0 13 5 16 10 3 6 2 10 -4 10 -5 0
-13 -4 -16 -10z"/>
<path d="M8510 8016 c0 -2 7 -9 15 -16 13 -11 14 -10 9 4 -5 14 -24 23 -24 12z"/>
<path d="M4640 8249 c0 -5 5 -7 10 -4 6 3 10 8 10 11 0 2 -4 4 -10 4 -5 0 -10
-5 -10 -11z"/>
<path d="M4407 7789 c7 -7 15 -10 18 -7 3 3 -2 9 -12 12 -14 6 -15 5 -6 -5z"/>
<path d="M7768 7113 c7 -3 16 -2 19 1 4 3 -2 6 -13 5 -11 0 -14 -3 -6 -6z"/>
<path d="M7875 7100 c3 -5 8 -10 11 -10 2 0 4 5 4 10 0 6 -5 10 -11 10 -5 0
-7 -4 -4 -10z"/>
<path d="M6668 6373 c7 -3 16 -2 19 1 4 3 -2 6 -13 5 -11 0 -14 -3 -6 -6z"/>
<path d="M6960 6245 c0 -8 4 -15 10 -15 5 0 7 7 4 15 -4 8 -8 15 -10 15 -2 0
-4 -7 -4 -15z"/>
<path d="M7508 5973 c6 -2 18 -2 25 0 6 3 1 5 -13 5 -14 0 -19 -2 -12 -5z"/>
<path d="M8037 7989 c7 -7 15 -10 18 -7 3 3 -2 9 -12 12 -14 6 -15 5 -6 -5z"/>
<path d="M10840 7735 c0 -8 5 -15 11 -15 5 0 7 5 4 10 -3 6 -1 10 5 10 6 0 15
-10 20 -22 5 -14 9 -17 9 -7 1 18 -18 39 -36 39 -7 0 -13 -7 -13 -15z"/>
<path d="M11040 7743 c0 -4 5 -15 10 -23 8 -13 10 -13 10 2 0 9 -4 20 -10 23
-5 3 -10 3 -10 -2z"/>
<path d="M11190 7640 c0 -5 5 -10 11 -10 5 0 7 5 4 10 -3 6 -8 10 -11 10 -2 0
-4 -4 -4 -10z"/>
<path d="M11196 7443 c-12 -12 -6 -43 9 -43 8 0 15 -8 15 -17 0 -15 -2 -16
-10 -3 -5 8 -12 11 -16 7 -4 -4 -2 -13 5 -20 10 -9 16 -7 31 13 20 27 18 42
-5 33 -11 -3 -13 -1 -9 10 6 16 -9 31 -20 20z"/>
<path d="M11230 7345 c0 -8 2 -15 4 -15 2 0 6 7 10 15 3 8 1 15 -4 15 -6 0
-10 -7 -10 -15z"/>
<path d="M11190 7313 c0 -22 6 -48 14 -59 13 -16 13 -22 0 -41 -13 -21 -13
-23 6 -23 13 0 24 10 31 26 5 15 8 27 7 28 -34 13 -43 26 -40 59 2 19 -1 38
-7 42 -7 4 -11 -8 -11 -32z m43 -88 c-3 -9 -8 -14 -10 -11 -3 3 -2 9 2 15 9
16 15 13 8 -4z"/>
<path d="M11230 7300 c-11 -7 -12 -12 -4 -20 8 -8 13 -6 17 9 3 12 4 21 4 21
-1 0 -9 -5 -17 -10z"/>
<path d="M11030 7240 c0 -5 5 -10 11 -10 5 0 7 5 4 10 -3 6 -8 10 -11 10 -2 0
-4 -4 -4 -10z"/>
<path d="M11150 7170 c0 -5 5 -10 11 -10 5 0 7 5 4 10 -3 6 -8 10 -11 10 -2 0
-4 -4 -4 -10z"/>
<path d="M11180 7149 c0 -18 2 -19 15 -9 8 7 15 16 15 21 0 5 -7 9 -15 9 -9 0
-15 -9 -15 -21z"/>
<path d="M10830 7131 c0 -6 4 -13 10 -16 6 -3 7 1 4 9 -7 18 -14 21 -14 7z"/>
<path d="M11120 7056 c0 -9 30 -14 35 -6 4 6 -3 10 -14 10 -12 0 -21 -2 -21
-4z"/>
<path d="M11080 6930 c0 -5 5 -10 10 -10 6 0 10 5 10 10 0 6 -4 10 -10 10 -5
0 -10 -4 -10 -10z"/>
<path d="M9981 6414 c0 -11 3 -14 6 -6 3 7 2 16 -1 19 -3 4 -6 -2 -5 -13z"/>
<path d="M10000 6420 c0 -5 5 -10 10 -10 6 0 10 5 10 10 0 6 -4 10 -10 10 -5
0 -10 -4 -10 -10z"/>
<path d="M5765 6330 c-3 -5 -3 -14 0 -20 3 -5 -1 -10 -10 -10 -9 0 -14 -4 -11
-9 3 -5 15 -7 27 -4 13 4 17 9 10 16 -5 5 -7 16 -4 23 6 16 -3 19 -12 4z"/>
<path d="M5594 6309 c-3 -6 -1 -16 5 -22 8 -8 11 -5 11 11 0 24 -5 28 -16 11z"/>
<path d="M5841 6224 c0 -11 3 -14 6 -6 3 7 2 16 -1 19 -3 4 -6 -2 -5 -13z"/>
<path d="M5880 6171 c0 -5 11 -16 25 -25 29 -19 34 -7 7 17 -21 19 -32 22 -32
8z"/>
<path d="M5190 5520 c8 -5 20 -10 25 -10 6 0 3 5 -5 10 -8 5 -19 10 -25 10 -5
0 -3 -5 5 -10z"/>
<path d="M5245 5500 c3 -5 8 -10 11 -10 2 0 4 5 4 10 0 6 -5 10 -11 10 -5 0
-7 -4 -4 -10z"/>
<path d="M4950 5476 c0 -2 7 -7 16 -10 8 -3 12 -2 9 4 -6 10 -25 14 -25 6z"/>
<path d="M6768 5243 c7 -3 16 -2 19 1 4 3 -2 6 -13 5 -11 0 -14 -3 -6 -6z"/>
<path d="M10590 5174 c0 -8 5 -12 10 -9 6 3 10 10 10 16 0 5 -4 9 -10 9 -5 0
-10 -7 -10 -16z"/>
<path d="M10544 5108 c3 -15 26 -23 26 -8 0 6 -4 9 -9 6 -5 -4 -12 -1 -14 4
-3 6 -4 5 -3 -2z"/>
<path d="M10450 5040 c0 -5 5 -10 10 -10 6 0 10 5 10 10 0 6 -4 10 -10 10 -5
0 -10 -4 -10 -10z"/>
<path d="M10495 5037 c-12 -9 -14 -16 -7 -21 6 -3 16 3 22 14 13 24 10 25 -15
7z"/>
<path d="M10450 4939 c0 -5 5 -7 10 -4 6 3 10 8 10 11 0 2 -4 4 -10 4 -5 0
-10 -5 -10 -11z"/>
<path d="M10440 4890 c-8 -5 -12 -12 -9 -15 4 -3 12 1 19 10 14 17 11 19 -10
5z"/>
<path d="M10316 4863 c4 -15 11 -29 15 -31 4 -2 5 -11 2 -20 -3 -11 -2 -13 4
-6 4 6 15 14 23 17 12 4 11 6 -3 6 -10 1 -15 6 -12 12 4 6 -3 20 -14 31 l-22
19 7 -28z"/>
<path d="M10362 4882 c-10 -7 -8 -13 7 -26 22 -20 36 -7 18 17 -7 10 -17 13
-25 9z"/>
<path d="M10280 4745 c0 -14 5 -25 11 -25 5 0 8 4 4 9 -3 5 -1 12 5 16 15 9
12 25 -5 25 -9 0 -15 -9 -15 -25z"/>
<path d="M10246 4704 c-11 -28 -6 -39 9 -20 8 11 15 23 15 28 0 14 -18 9 -24
-8z"/>
<path d="M9683 4021 c1 -18 7 -27 15 -24 13 6 15 14 6 37 -10 26 -23 18 -21
-13z"/>
<path d="M9495 3951 c-3 -2 -5 -10 -5 -18 0 -10 5 -11 19 -3 11 5 30 10 42 10
12 0 20 3 16 6 -7 7 -66 12 -72 5z"/>
<path d="M9515 3830 c-3 -5 -1 -10 4 -10 6 0 11 5 11 10 0 6 -2 10 -4 10 -3 0
-8 -4 -11 -10z"/>
<path d="M9350 3798 c0 -12 3 -18 7 -14 11 10 12 36 2 36 -5 0 -9 -10 -9 -22z"/>
<path d="M9285 3709 c-4 -6 -5 -12 -2 -15 2 -3 7 2 10 11 7 17 1 20 -8 4z"/>
<path d="M9285 3540 c-3 -5 -1 -10 4 -10 6 0 11 5 11 10 0 6 -2 10 -4 10 -3 0
-8 -4 -11 -10z"/>
<path d="M9120 3301 c0 -5 9 -7 20 -4 11 3 20 7 20 9 0 2 -9 4 -20 4 -11 0
-20 -4 -20 -9z"/>
<path d="M9350 5869 c0 -5 5 -7 10 -4 6 3 10 8 10 11 0 2 -4 4 -10 4 -5 0 -10
-5 -10 -11z"/>
<path d="M9155 5710 c3 -5 8 -10 11 -10 2 0 4 5 4 10 0 6 -5 10 -11 10 -5 0
-7 -4 -4 -10z"/>
<path d="M11510 5601 c0 -11 4 -22 9 -25 4 -3 6 6 3 19 -5 30 -12 33 -12 6z"/>
<path d="M8870 5518 c0 -16 21 -18 42 -3 23 15 23 16 -9 13 -18 -1 -33 -6 -33
-10z"/>
<path d="M8878 5483 c7 -3 16 -2 19 1 4 3 -2 6 -13 5 -11 0 -14 -3 -6 -6z"/>
<path d="M8755 5360 c-3 -5 -1 -10 4 -10 6 0 11 5 11 10 0 6 -2 10 -4 10 -3 0
-8 -4 -11 -10z"/>
<path d="M8785 5349 c-4 -5 -4 -13 -1 -16 3 -4 6 0 6 8 0 11 2 11 10 -1 6 -9
10 -10 10 -3 0 17 -17 25 -25 12z"/>
<path d="M8731 5324 c0 -11 3 -14 6 -6 3 7 2 16 -1 19 -3 4 -6 -2 -5 -13z"/>
<path d="M8618 5243 c7 -3 16 -2 19 1 4 3 -2 6 -13 5 -11 0 -14 -3 -6 -6z"/>
<path d="M8646 5217 c3 -10 9 -15 12 -12 3 3 0 11 -7 18 -10 9 -11 8 -5 -6z"/>
<path d="M8620 5204 c0 -6 7 -19 15 -30 8 -10 14 -14 14 -9 0 6 -6 19 -14 29
-8 11 -15 15 -15 10z"/>
<path d="M8671 5194 c0 -11 3 -14 6 -6 3 7 2 16 -1 19 -3 4 -6 -2 -5 -13z"/>
<path d="M8357 4899 c7 -7 15 -10 18 -7 3 3 -2 9 -12 12 -14 6 -15 5 -6 -5z"/>
<path d="M10467 4183 c-4 -3 -7 -11 -7 -17 0 -6 5 -5 12 2 6 6 9 14 7 17 -3 3
-9 2 -12 -2z"/>
<path d="M11345 5149 c-9 -14 -2 -20 14 -10 8 6 9 11 3 15 -6 3 -14 1 -17 -5z"/>
<path d="M5095 3890 c-3 -5 1 -10 9 -10 9 0 16 5 16 10 0 6 -4 10 -9 10 -6 0
-13 -4 -16 -10z"/>
<path d="M3838 3883 c7 -3 16 -2 19 1 4 3 -2 6 -13 5 -11 0 -14 -3 -6 -6z"/>
<path d="M3888 3873 c6 -2 18 -2 25 0 6 3 1 5 -13 5 -14 0 -19 -2 -12 -5z"/>
<path d="M3943 3863 c9 -2 23 -2 30 0 6 3 -1 5 -18 5 -16 0 -22 -2 -12 -5z"/>
<path d="M8257 3193 c-4 -3 -7 -11 -7 -17 0 -6 5 -5 12 2 6 6 9 14 7 17 -3 3
-9 2 -12 -2z"/>
<path d="M3665 4050 c-3 -5 -1 -10 4 -10 6 0 11 5 11 10 0 6 -2 10 -4 10 -3 0
-8 -4 -11 -10z"/>
<path d="M3736 7452 c-3 -6 3 -12 15 -15 12 -3 19 -1 16 6 -5 15 -24 20 -31 9z"/>
<path d="M4065 7120 c3 -5 12 -7 20 -3 21 7 19 13 -6 13 -11 0 -18 -4 -14 -10z"/>
<path d="M11796 5775 c9 -14 21 -25 27 -25 6 0 0 11 -13 25 -13 14 -25 25 -27
25 -2 0 4 -11 13 -25z"/>
<path d="M11805 5610 c-3 -5 -1 -10 4 -10 6 0 11 5 11 10 0 6 -2 10 -4 10 -3
0 -8 -4 -11 -10z"/>
<path d="M11696 5571 c-6 -9 36 -41 54 -41 5 0 10 5 10 11 0 5 -4 7 -10 4 -5
-3 -15 3 -22 15 -14 22 -24 25 -32 11z"/>
<path d="M11800 5524 c0 -9 -5 -12 -12 -8 -8 5 -9 2 -5 -10 5 -13 3 -17 -6
-13 -8 3 -13 -3 -14 -17 -2 -19 0 -19 23 7 21 25 32 57 19 57 -3 0 -5 -7 -5
-16z"/>
<path d="M11795 5470 c-3 -6 1 -7 9 -4 18 7 21 14 7 14 -6 0 -13 -4 -16 -10z"/>
<path d="M11791 5424 c0 -11 3 -14 6 -6 3 7 2 16 -1 19 -3 4 -6 -2 -5 -13z"/>
<path d="M11765 5390 c-4 -6 -11 -7 -17 -4 -7 4 -8 2 -4 -5 6 -9 11 -9 22 0
14 11 18 19 10 19 -3 0 -8 -5 -11 -10z"/>
<path d="M11740 5335 c0 -7 7 -15 15 -19 8 -3 15 -1 15 4 0 6 1 13 3 17 1 3
-6 7 -15 9 -10 1 -18 -4 -18 -11z"/>
<path d="M11625 5319 c-4 -6 -5 -12 -2 -15 2 -3 7 2 10 11 7 17 1 20 -8 4z"/>
<path d="M11590 5261 c0 -5 7 -11 14 -14 10 -4 13 -1 9 9 -6 15 -23 19 -23 5z"/>
<path d="M11741 5224 c0 -11 3 -14 6 -6 3 7 2 16 -1 19 -3 4 -6 -2 -5 -13z"/>
<path d="M11600 5220 c0 -5 5 -10 11 -10 5 0 7 5 4 10 -3 6 -8 10 -11 10 -2 0
-4 -4 -4 -10z"/>
<path d="M11380 4830 c-13 -8 -12 -10 3 -10 9 0 17 5 17 10 0 12 -1 12 -20 0z"/>
<path d="M11325 4800 c-3 -5 -1 -10 4 -10 6 0 11 5 11 10 0 6 -2 10 -4 10 -3
0 -8 -4 -11 -10z"/>
<path d="M11281 4684 c0 -11 3 -14 6 -6 3 7 2 16 -1 19 -3 4 -6 -2 -5 -13z"/>
</g>
</svg>
