<?xml version="1.0" standalone="no"?>
<!DOCTYPE svg PUBLIC "-//W3C//DTD SVG 20010904//EN"
 "http://www.w3.org/TR/2001/REC-SVG-20010904/DTD/svg10.dtd">
<svg version="1.0" xmlns="http://www.w3.org/2000/svg"
 width="1244.000000pt" height="1651.000000pt" viewBox="0 0 1244.000000 1651.000000"
 preserveAspectRatio="xMidYMid meet">

<g transform="translate(0.000000,1651.000000) scale(0.100000,-0.100000)"
fill="#000000" stroke="none">
<path d="M5214 15373 c-35 -38 -53 -84 -70 -177 -8 -43 -19 -96 -25 -117 -9
-27 -9 -50 -1 -81 27 -109 23 -270 -11 -468 -17 -97 -18 -99 -62 -200 -59
-134 -85 -230 -85 -315 0 -43 -5 -93 -12 -112 -11 -29 -6 -55 7 -41 3 3 16 50
30 105 13 55 38 135 55 179 18 43 40 122 51 174 10 52 28 138 39 190 11 52 19
104 16 114 -3 11 -1 27 4 36 5 9 19 111 30 225 12 122 27 219 35 234 13 25 14
23 17 -44 3 -96 3 -104 -11 -240 -16 -164 -30 -261 -46 -320 -8 -27 -16 -63
-18 -80 -12 -82 -21 -116 -48 -188 -31 -81 -69 -227 -69 -263 0 -22 43 -49 61
-39 13 9 11 72 -3 95 -11 16 -9 22 6 33 19 14 38 70 55 162 5 28 14 62 20 77
6 16 8 40 5 55 -3 16 1 41 10 58 9 17 16 48 16 71 0 26 7 49 20 64 16 18 20
37 19 97 -1 57 3 79 16 93 13 15 16 30 12 62 -4 32 -1 47 14 66 11 15 19 40
19 63 0 21 4 40 9 44 6 3 13 27 16 53 4 26 13 72 21 103 8 31 14 71 14 89 0
18 5 50 11 70 18 58 7 84 -35 87 l-35 3 -38 -118 c-32 -97 -39 -111 -41 -83
-2 18 5 68 14 110 10 42 18 80 19 85 0 21 -26 16 -51 -11z m140 -89 c7 -18
-18 -64 -34 -64 -13 0 -13 36 0 61 13 23 26 24 34 3z m-34 -150 c0 -13 -9 -28
-20 -34 -17 -9 -20 -8 -20 14 0 13 3 31 6 40 8 22 34 8 34 -20z m-30 -154 c0
-11 -7 -20 -15 -20 -15 0 -21 21 -8 33 12 13 23 7 23 -13z"/>
<path d="M7148 15392 c-32 -2 -58 -7 -58 -12 0 -6 6 -10 13 -10 7 0 22 -7 33
-15 16 -13 16 -14 2 -9 -10 3 -18 1 -18 -4 0 -6 12 -9 26 -6 22 4 25 2 20 -13
-4 -9 -4 -14 0 -11 8 8 34 -14 27 -24 -7 -12 -35 -9 -63 5 -30 16 -56 11 -41
-7 6 -7 13 -28 15 -47 3 -19 8 -51 12 -71 4 -26 3 -38 -5 -38 -6 0 -11 -7 -11
-15 0 -8 7 -15 15 -15 8 0 15 -4 15 -10 0 -5 -5 -10 -11 -10 -10 0 -145 31
-264 61 -22 6 -76 12 -120 13 -80 3 -223 34 -247 54 -7 5 -33 16 -58 23 -25 7
-48 18 -52 24 -5 6 -8 6 -8 -2 0 -9 -6 -7 -19 5 -41 36 -52 43 -62 37 -18 -12
-59 4 -53 20 4 9 0 15 -9 15 -17 0 -31 27 -17 32 5 2 6 9 1 16 -5 9 -32 12
-97 10 l-89 -3 100 -59 c55 -33 107 -65 115 -71 8 -7 29 -15 45 -19 17 -4 54
-19 84 -32 29 -14 60 -27 70 -29 9 -2 46 -15 82 -29 37 -14 69 -22 73 -19 3 4
6 1 6 -6 0 -7 4 -10 9 -6 5 3 16 -2 24 -10 9 -8 23 -15 31 -15 9 0 16 -4 16
-9 0 -4 14 -12 31 -17 17 -5 30 -13 29 -18 -1 -5 4 -12 10 -16 9 -6 6 -10 -8
-14 -13 -5 -42 3 -77 20 -55 25 -86 26 -51 1 22 -16 11 -51 -15 -44 -17 5 -17
4 -1 -22 28 -44 104 -134 136 -163 17 -15 27 -28 22 -28 -13 0 -100 44 -104
53 -2 4 -10 7 -18 7 -8 0 -17 7 -20 15 -4 8 -16 15 -29 15 -13 0 -25 7 -29 15
-3 8 -12 15 -20 15 -7 0 -16 7 -20 15 -3 8 -12 15 -21 15 -8 0 -15 5 -15 10 0
6 -11 10 -25 10 -14 0 -67 22 -119 49 -52 28 -97 47 -100 43 -4 -3 -9 3 -12
15 -3 11 -27 35 -52 53 -66 46 -170 156 -212 223 -29 47 -40 57 -63 57 l-29 0
42 -76 41 -76 -17 -41 c-15 -36 -19 -91 -25 -364 l-7 -322 -45 -93 c-25 -51
-53 -115 -62 -143 -37 -112 -29 -253 23 -383 l25 -64 -41 -81 c-85 -170 -93
-198 -99 -346 -3 -103 -9 -148 -24 -183 -20 -48 -26 -143 -10 -152 5 -4 26 23
46 59 20 36 62 90 93 120 l57 55 -22 42 c-40 79 -37 136 17 351 18 71 25 87
41 87 23 0 23 2 0 -68 -10 -31 -21 -79 -24 -107 -6 -47 -5 -48 8 -25 8 14 14
33 15 43 0 10 9 37 20 59 11 23 20 48 20 55 0 23 21 14 150 -67 70 -44 145
-87 166 -95 21 -9 47 -20 56 -25 63 -35 160 -81 164 -78 7 8 -23 30 -206 153
-327 221 -371 259 -418 355 -24 49 -27 66 -27 165 0 90 3 115 18 135 18 25 18
25 11 -36 -5 -50 -2 -75 15 -125 29 -84 36 -97 106 -177 60 -68 168 -160 353
-300 54 -40 111 -86 127 -101 17 -15 71 -51 120 -81 50 -29 99 -60 110 -69 11
-9 31 -22 44 -29 116 -66 161 -93 161 -99 0 -14 -105 32 -292 127 -75 39 -145
70 -155 70 -11 0 -66 24 -123 53 -58 30 -114 56 -125 59 -11 3 -29 9 -39 14
-15 6 -18 4 -13 -9 5 -14 3 -15 -19 -5 -13 6 -24 16 -23 22 3 24 -1 36 -12 36
-7 0 -9 -11 -5 -30 6 -32 -12 -42 -33 -17 -16 20 -104 -1 -94 -23 3 -8 7 -36
7 -62 1 -39 7 -53 35 -82 32 -33 33 -36 13 -36 -12 0 -22 -4 -22 -9 0 -15 21
-24 31 -14 5 5 31 6 62 2 99 -15 222 -30 272 -32 45 -2 50 -4 50 -26 l0 -24
-175 -4 c-203 -5 -270 -14 -312 -44 -28 -21 -71 -96 -72 -128 -1 -9 -30 -23
-76 -38 -41 -13 -88 -29 -105 -37 -16 -7 -47 -20 -67 -29 -144 -63 -196 -169
-124 -254 13 -16 37 -35 53 -43 34 -17 63 -40 63 -51 0 -4 -28 -28 -62 -52
-83 -60 -132 -109 -154 -155 -34 -71 -10 -304 52 -509 26 -86 52 -128 84 -138
19 -6 19 -8 4 -37 -14 -27 -15 -70 -9 -362 5 -235 4 -356 -5 -416 -6 -47 -14
-116 -17 -155 -5 -66 -3 -72 26 -112 38 -52 91 -70 230 -79 123 -7 198 -21
204 -39 3 -7 3 -16 -1 -19 -10 -11 -11 -28 -21 -341 -6 -165 -13 -313 -16
-330 -15 -85 -23 -296 -14 -360 25 -181 27 -168 -36 -305 -31 -69 -72 -168
-91 -220 -38 -106 -38 -113 -31 -405 3 -99 0 -225 -6 -280 -10 -92 -15 -168
-16 -237 -1 -39 -34 -68 -75 -68 -47 0 -56 -18 -22 -45 31 -24 30 -42 -3 -100
-10 -16 -23 -52 -30 -80 -7 -27 -20 -61 -29 -75 -16 -26 -24 -57 -46 -200 -22
-140 0 -126 -204 -135 -97 -5 -196 -9 -219 -9 -37 -1 -77 -16 -41 -16 47 0
235 -23 243 -30 6 -5 26 -11 45 -15 19 -3 44 -8 55 -10 11 -2 34 -4 52 -4 22
-1 33 -7 38 -21 11 -34 -4 -60 -33 -60 -15 -1 -51 -6 -80 -13 -53 -13 -53 -13
-33 -31 40 -36 29 -46 -86 -76 -91 -23 -30 -68 122 -90 39 -5 74 -10 79 -10 8
0 6 -21 -11 -90 l-9 -35 -169 -43 c-94 -23 -195 -45 -225 -50 -46 -6 -55 -10
-55 -27 0 -19 6 -20 212 -16 184 3 214 1 219 -12 7 -20 -15 -249 -26 -260 -4
-5 -27 -2 -51 7 -136 47 -167 58 -194 71 -71 32 -109 45 -128 45 -18 0 -19 -4
-13 -62 4 -35 9 -78 13 -95 l5 -33 163 0 c90 0 174 -4 187 -9 22 -8 25 -18 36
-113 15 -131 7 -157 -57 -188 -41 -19 -61 -21 -190 -18 l-145 3 -11 45 c-23
86 -149 242 -207 254 -13 3 -103 9 -201 14 -119 7 -183 14 -190 22 -10 10 18
11 138 5 134 -7 256 -8 261 -2 1 1 4 163 8 360 l6 359 -26 50 c-38 74 -106
136 -211 191 -51 26 -95 52 -98 58 -4 5 8 9 24 9 17 0 31 3 31 8 0 12 -223
122 -247 122 -12 0 -25 4 -28 10 -8 12 -15 13 78 -5 43 -8 81 -15 83 -15 10 0
33 67 48 140 9 41 22 105 30 143 14 64 13 73 -10 178 -14 60 -36 140 -50 176
-14 36 -27 85 -30 107 -4 38 -66 170 -223 476 -33 63 -58 116 -57 117 1 1 19
-5 40 -15 31 -14 54 -40 117 -135 43 -65 100 -161 126 -213 26 -51 54 -94 61
-94 17 0 16 8 -19 106 -57 160 -141 319 -221 417 -45 53 -47 80 -5 47 16 -12
30 -20 33 -18 2 3 -14 30 -36 62 -79 112 -36 147 60 48 39 -40 75 -93 120
-181 36 -68 71 -133 78 -145 9 -14 12 -44 8 -94 -3 -50 0 -87 11 -120 22 -65
27 -68 53 -32 22 31 22 35 11 100 -7 38 -19 74 -27 81 -8 6 -14 17 -14 24 0 7
-7 18 -15 25 -30 25 -97 301 -88 364 3 23 -8 68 -36 142 -22 60 -42 135 -46
167 -6 51 -5 57 12 57 11 0 29 -9 42 -21 l22 -21 -5 59 c-4 32 -15 96 -26 143
-24 103 -95 454 -115 565 -19 103 -19 144 1 219 9 33 17 66 18 71 1 6 5 16 10
23 4 7 4 18 -2 25 -5 7 -9 34 -10 61 0 46 0 47 15 26 8 -12 13 -24 10 -26 -3
-3 5 -16 17 -29 12 -12 29 -46 40 -74 10 -29 32 -63 51 -80 19 -16 31 -32 28
-35 -3 -3 7 -8 21 -12 15 -3 30 -3 34 1 4 4 8 210 8 458 2 611 1 604 60 558
15 -12 31 -21 36 -21 20 0 1 23 -37 45 -34 19 -40 27 -37 51 4 34 19 54 30 38
7 -12 46 -34 58 -34 4 0 -1 9 -11 20 -10 11 -24 20 -30 20 -16 0 -40 28 -31
37 3 4 23 -1 42 -11 52 -24 54 -12 4 19 -30 19 -39 30 -32 37 8 8 15 8 26 -1
8 -7 25 -11 38 -9 20 3 19 5 -14 21 -40 19 -47 31 -23 41 8 3 15 12 15 21 0
20 13 19 34 -4 18 -20 21 -43 27 -201 1 -57 4 -75 6 -45 6 85 9 92 51 98 21 4
59 21 85 38 31 20 53 28 67 24 19 -6 20 -2 20 93 0 66 5 112 15 135 18 45 18
47 1 47 -8 0 -23 -15 -34 -34 -26 -44 -65 -70 -92 -61 -25 8 -26 27 0 50 10 9
24 34 31 54 6 20 25 60 42 90 l30 54 -7 121 c-3 66 -8 168 -11 226 -7 123 -9
157 -29 345 -15 142 -41 244 -70 273 -15 15 -16 13 -16 -23 0 -22 9 -87 19
-145 11 -58 22 -152 26 -210 3 -58 8 -134 10 -170 18 -266 17 -324 -4 -378
-12 -29 -21 -64 -21 -78 0 -31 -27 -84 -42 -84 -19 0 -78 44 -78 58 0 7 -4 11
-9 8 -5 -3 -11 1 -14 9 -5 12 -2 12 19 3 18 -9 27 -9 36 0 11 11 11 12 -37 27
-29 9 -17 35 16 35 32 0 32 0 24 43 -18 105 -10 269 16 319 5 10 9 24 9 31 0
8 9 22 20 32 29 26 25 47 -25 175 -77 192 -99 232 -154 283 -29 26 -56 47 -61
47 -6 0 -10 7 -10 16 0 8 -5 12 -10 9 -6 -4 -16 -3 -23 2 -7 5 -30 15 -52 22
-21 8 -53 23 -70 33 -16 11 -22 18 -12 14 9 -3 17 -1 17 4 0 16 -21 22 -35 10
-10 -8 -19 -9 -32 -1 -17 10 -17 10 2 12 11 1 23 1 27 1 3 -1 11 5 18 13 10
12 8 16 -11 23 -51 20 -96 32 -117 32 -12 0 -30 4 -40 10 -16 9 -68 22 -207
52 -66 14 -408 18 -512 6 -48 -6 -65 -4 -76 7 -13 13 -17 13 -27 0 -10 -12
-10 -15 0 -15 8 0 10 -3 7 -7 -4 -3 -17 2 -28 13 -16 14 -23 16 -26 6 -4 -10
-8 -10 -19 -1 -16 13 -43 -8 -37 -28 3 -9 -4 -11 -26 -7 -20 4 -31 2 -31 -5 0
-6 5 -11 10 -11 6 0 10 -8 10 -17 0 -11 -3 -14 -8 -7 -7 11 -45 34 -56 34 -3
0 -6 -7 -6 -15 0 -9 9 -15 21 -15 17 0 19 -3 10 -14 -7 -8 -23 -17 -37 -20
-14 -4 -22 -11 -19 -16 3 -6 3 -10 -2 -10 -4 0 -15 -4 -23 -10 -12 -7 -9 -13
13 -31 16 -11 26 -24 23 -27 -3 -3 -1 -11 5 -18 6 -7 6 -15 1 -18 -5 -3 -8
-23 -6 -45 3 -34 -1 -44 -35 -76 -33 -32 -38 -43 -36 -72 2 -19 6 -38 9 -41 3
-3 -1 -14 -10 -24 -12 -12 -14 -21 -7 -30 20 -25 -3 -54 -56 -71 -54 -17 -59
-21 -123 -79 -22 -21 -46 -38 -53 -38 -20 0 -96 -60 -90 -70 4 -6 -8 -13 -26
-17 -28 -5 -30 -8 -15 -18 20 -15 21 -29 1 -22 -8 4 -17 2 -20 -4 -4 -5 -11
-7 -16 -3 -5 3 -23 -2 -41 -10 -38 -19 -35 -19 -41 -2 -4 10 0 14 11 11 9 -1
22 3 29 10 9 10 6 12 -15 10 -64 -6 -92 -27 -51 -38 27 -7 15 -27 -17 -27 -13
0 -24 -4 -24 -8 0 -5 -10 -14 -22 -21 -23 -11 -23 -11 2 -5 14 4 30 8 35 10 6
3 23 -7 38 -22 25 -23 33 -25 75 -19 50 7 69 5 65 -7 -2 -5 0 -7 5 -7 4 1 17
1 30 0 l23 -1 -24 -32 c-14 -18 -27 -42 -29 -53 -4 -24 -48 -48 -63 -35 -7 6
-16 5 -23 -2 -9 -9 -12 -9 -12 0 0 7 -6 12 -13 12 -8 0 -13 -8 -13 -17 1 -17
-13 -31 -15 -15 -4 30 -20 40 -50 32 -18 -5 -35 -7 -40 -5 -4 3 -10 1 -14 -4
-3 -6 -12 -8 -19 -5 -15 6 -28 -29 -19 -52 3 -8 15 -14 27 -14 17 0 19 2 6 11
-10 7 -11 9 -2 7 24 -6 16 -23 -13 -28 -16 -3 -28 -8 -27 -12 5 -19 1 -28 -13
-28 -8 0 -15 9 -15 20 0 26 -15 25 -34 -2 -24 -34 -34 -11 -27 60 7 66 0 87
-19 52 -24 -46 -30 -16 -30 158 0 228 11 248 55 101 15 -52 14 -155 -2 -181
-2 -5 -1 -13 2 -18 9 -14 54 21 55 43 0 9 5 17 10 17 6 0 10 11 10 24 0 14 4
27 10 31 5 3 7 12 4 19 -3 8 4 32 15 55 25 48 26 67 6 75 -8 3 -15 12 -15 21
0 8 -4 15 -10 15 -6 0 -5 10 2 25 9 21 8 28 -5 38 -9 7 -20 38 -26 75 -10 65
-18 85 -29 78 -17 -10 -29 25 -29 84 0 36 -4 73 -8 83 -5 11 -1 25 10 37 24
26 12 37 -22 19 -34 -18 -141 -143 -147 -172 -3 -12 -8 -74 -11 -137 -7 -128
-39 -400 -56 -482 -7 -29 -12 -138 -13 -243 l-1 -190 29 -48 c15 -26 39 -55
53 -65 14 -9 46 -36 72 -59 43 -38 100 -67 161 -80 25 -6 25 -5 -6 28 -17 19
-41 49 -53 67 -20 29 -26 32 -57 26 -30 -5 -34 -4 -34 15 0 21 8 25 82 35 31
4 38 2 38 -12 1 -40 99 -106 124 -82 14 14 25 89 26 173 0 91 14 106 59 63 34
-33 43 -33 30 0 -11 32 -7 38 19 30 19 -6 32 -43 32 -89 0 -22 49 -92 58 -82
3 3 12 -9 19 -26 24 -57 13 -297 -24 -544 -9 -60 -17 -123 -18 -140 -2 -16 -6
-50 -9 -75 l-6 -45 16 50 c23 72 28 80 55 80 34 0 69 -72 69 -140 -1 -82 -42
-225 -117 -408 -50 -124 -103 -270 -103 -287 0 -7 6 -6 15 4 8 8 15 19 15 25
0 6 7 11 15 11 14 0 19 11 16 38 -1 6 5 12 13 12 13 0 13 -4 1 -34 -8 -18 -12
-36 -9 -38 4 -5 -10 -63 -34 -143 -5 -16 -7 -36 -5 -42 6 -17 23 -16 23 1 0
21 27 38 50 31 16 -5 19 -12 15 -33 -3 -15 -8 -49 -11 -77 -3 -27 -12 -68 -20
-90 -47 -132 -90 -272 -86 -283 5 -17 32 -15 32 3 0 8 5 15 10 15 6 0 10 8 10
18 1 9 10 35 21 57 l20 40 -5 -50 c-3 -27 -9 -61 -12 -74 -7 -23 -5 -24 24
-18 18 4 32 3 32 -1 1 -4 5 -38 10 -76 7 -59 6 -77 -11 -120 -10 -28 -19 -63
-19 -77 0 -14 -5 -41 -12 -60 -15 -44 -95 -149 -114 -149 -8 0 -14 -4 -14 -10
0 -5 -19 -42 -43 -82 -23 -40 -50 -89 -59 -108 -47 -101 -67 -151 -83 -205 -9
-33 -23 -80 -30 -105 -7 -25 -16 -65 -19 -90 -14 -96 -49 -228 -77 -285 -30
-63 -37 -121 -18 -157 7 -13 8 -23 1 -27 -16 -10 -25 -143 -12 -190 8 -32 8
-54 -2 -96 -7 -30 -16 -55 -19 -55 -11 0 -26 -53 -55 -200 -24 -118 -27 -160
-28 -332 -1 -109 -3 -198 -6 -198 -7 0 -27 50 -35 88 -5 24 -11 32 -22 28 -8
-3 -17 -6 -19 -6 -15 0 23 -128 57 -192 18 -34 9 -43 -11 -10 -11 17 -24 32
-29 32 -13 0 5 -74 33 -140 47 -109 41 -144 -11 -70 -48 68 -56 48 -22 -52 11
-34 27 -75 36 -91 35 -68 -22 -43 -78 34 -47 65 -63 65 -30 0 12 -22 21 -43
21 -46 0 -9 -36 -5 -46 5 -15 15 -28 -19 -48 -115 -28 -138 -48 -229 -54 -245
-3 -8 -7 -25 -8 -37 -5 -40 -33 -108 -43 -105 -11 2 -15 -56 -11 -140 1 -30
-2 -38 -16 -38 -14 0 -16 -6 -11 -36 7 -43 -6 -74 -32 -74 -24 0 -31 18 -38
97 -7 70 -17 74 -27 12 -5 -34 -10 -40 -24 -33 -9 4 -28 8 -41 9 -14 1 -27 7
-29 14 -5 16 23 57 53 77 21 14 28 14 42 3 15 -13 16 -11 10 18 -8 38 14 211
37 296 9 32 16 61 16 64 0 3 -128 4 -285 2 -157 -2 -285 -7 -285 -11 0 -3 30
-9 68 -13 112 -10 133 -15 159 -41 13 -13 27 -24 31 -24 12 0 174 -52 211 -68
l35 -15 -55 -49 c-116 -105 -160 -152 -177 -184 -9 -18 -44 -52 -77 -75 -33
-23 -64 -48 -68 -55 -6 -10 -29 -14 -77 -14 -53 0 -70 -3 -70 -14 0 -16 19
-19 256 -42 l181 -17 45 21 c55 27 58 27 58 2 0 -12 -17 -39 -38 -61 -36 -39
-42 -41 -117 -49 -150 -16 -168 -24 -141 -64 20 -31 14 -57 -23 -108 -27 -37
-32 -68 -10 -68 5 0 9 -4 9 -9 0 -12 -87 -44 -119 -43 -38 1 -101 -17 -101
-28 0 -6 5 -10 10 -10 6 0 10 -5 10 -11 0 -5 -4 -7 -10 -4 -6 4 -10 -5 -10
-19 0 -30 9 -32 121 -40 72 -4 171 -26 211 -47 15 -8 18 -4 19 23 0 18 3 42 5
53 3 11 6 63 7 115 4 114 10 129 109 232 89 93 173 205 174 233 1 12 18 43 38
69 20 27 69 97 108 157 39 60 73 107 75 105 5 -4 -26 -69 -83 -176 -11 -19
-23 -38 -28 -41 -5 -4 -5 -13 -1 -20 5 -8 5 -11 0 -7 -10 9 -28 -23 -48 -88
-18 -58 -26 -117 -33 -239 -3 -49 -10 -103 -16 -118 -6 -15 -8 -30 -6 -33 7
-6 134 125 166 172 14 21 27 33 30 26 11 -33 -199 -316 -282 -382 -69 -55
-175 -198 -192 -260 -9 -33 -14 -40 -19 -28 -9 21 -42 33 -58 20 -18 -14 -94
-30 -177 -37 -124 -10 -115 -2 -118 -100 l-3 -85 35 0 c19 0 69 5 111 11 42 6
79 8 83 5 8 -9 -28 -83 -53 -106 -14 -13 -41 -22 -76 -26 -106 -10 -95 14 -97
-219 l-1 -205 32 -16 c18 -10 37 -23 42 -30 6 -7 38 -18 73 -24 89 -16 115
-29 107 -54 -14 -45 -13 -72 3 -89 26 -30 -1 -37 -123 -33 -60 2 -116 1 -123
-2 -10 -3 -12 -273 -11 -1319 1 -1530 -6 -1429 99 -1477 41 -19 60 -20 215
-17 238 6 288 5 475 -4 153 -7 169 -10 222 -36 32 -16 86 -37 120 -46 59 -16
355 -17 4332 -20 4729 -4 4369 -9 4511 61 126 62 206 174 241 337 15 67 16
658 10 6599 -5 5861 -7 6532 -21 6589 -33 138 -124 255 -239 311 l-61 29 -5
-22 c-3 -12 -7 111 -10 273 -3 162 -7 -1224 -9 -3080 -2 -1856 -6 -3365 -8
-3352 -5 27 -38 48 -49 30 -5 -7 -8 -24 -8 -38 0 -22 5 -25 32 -24 l32 2 0
-155 c0 -85 -4 -152 -8 -149 -5 3 -26 0 -48 -6 l-39 -11 33 -9 c23 -6 38 -5
48 3 12 10 14 -9 14 -125 l0 -137 -22 12 c-13 7 -38 23 -56 37 -30 23 -44 25
-210 34 -165 9 -180 11 -214 35 -41 28 -71 27 -76 -2 -6 -32 -24 -47 -48 -41
-13 4 -26 1 -29 -5 -4 -6 -1 -9 6 -8 8 1 23 -2 33 -6 13 -6 21 -4 24 3 2 8 10
9 20 3 28 -14 100 -21 217 -22 61 0 126 -4 145 -10 39 -11 115 -60 115 -74 0
-6 -34 -13 -75 -17 -41 -4 -104 -12 -140 -17 -36 -6 -94 -13 -130 -17 -281
-24 -285 -27 -90 -57 91 -14 121 -24 200 -67 19 -10 41 -19 48 -20 14 0 -20
37 -57 62 -19 13 -21 18 -11 22 84 28 141 39 238 42 l112 5 0 -168 0 -167 -30
29 c-22 21 -30 38 -30 62 0 31 -2 33 -25 27 -17 -4 -51 5 -106 27 l-81 33 -16
-22 c-15 -19 -32 -23 -123 -32 -348 -33 -387 -59 -79 -53 85 2 180 -1 210 -7
61 -11 139 -47 184 -84 l29 -24 -36 -32 c-86 -75 -102 -81 -196 -77 -57 2
-103 -1 -136 -11 -91 -27 -190 -18 -403 35 -106 27 -195 46 -198 41 -3 -4 2
-17 10 -29 33 -47 19 -50 -208 -49 -253 1 -237 3 -206 -15 14 -8 48 -15 75
-15 28 0 79 -7 115 -16 52 -13 94 -14 210 -9 160 8 531 8 688 0 55 -3 119 -12
141 -20 23 -8 69 -19 104 -25 34 -6 72 -13 85 -15 l22 -5 0 -220 0 -220 -32 0
c-18 0 -69 -3 -113 -6 -65 -5 -93 -2 -152 16 -40 12 -84 31 -97 41 -15 11 -48
22 -78 25 -29 3 -71 13 -93 21 -22 8 -67 19 -101 24 -34 5 -70 12 -80 15 -11
4 -5 -6 15 -25 29 -26 32 -31 15 -32 -10 -1 -22 -1 -26 0 -4 0 -26 -6 -49 -15
-32 -14 -56 -15 -122 -9 -125 12 -559 12 -563 0 -2 -5 2 -46 9 -89 9 -59 17
-82 31 -90 24 -13 175 -124 229 -167 58 -47 51 -54 -70 -67 -60 -7 -113 -12
-119 -12 -13 0 -37 76 -29 90 8 12 -3 50 -14 50 -5 0 -11 -48 -14 -107 -4 -89
-10 -118 -32 -165 -14 -32 -32 -61 -38 -65 -7 -5 -18 -19 -25 -33 -13 -26 -53
-50 -82 -50 -9 0 -27 -12 -40 -27 -22 -26 -24 -26 -31 -7 -11 29 -11 32 13 54
14 13 19 24 13 28 -22 15 -47 65 -42 83 6 22 6 22 -27 9 -14 -5 -26 -17 -26
-27 0 -13 -3 -14 -12 -5 -16 16 -40 15 -74 -3 -16 -8 -43 -15 -61 -15 -17 0
-34 -4 -37 -9 -8 -12 -210 -91 -233 -91 -27 0 -7 14 127 85 174 93 281 166
383 264 89 86 138 163 154 240 5 29 4 33 -10 28 -24 -9 -27 17 -6 52 10 17 19
41 19 54 0 12 7 30 15 41 13 17 11 23 -16 62 -42 62 -59 58 -52 -9 8 -78 -30
-140 -40 -64 -3 24 -4 20 -5 -16 -2 -60 -17 -54 -25 10 -9 75 -70 226 -124
306 -87 130 -226 250 -320 276 -88 25 -80 7 25 -54 71 -41 133 -94 205 -175
47 -53 20 -48 -32 5 -82 86 -233 175 -296 175 l-36 0 15 -28 c11 -22 31 -35
77 -52 48 -17 75 -36 117 -79 51 -54 96 -123 86 -133 -12 -13 -59 9 -102 47
-26 23 -69 53 -97 67 -27 14 -63 33 -80 41 -40 22 -43 14 -9 -30 16 -21 34
-45 39 -54 6 -9 22 -32 37 -51 32 -39 63 -108 49 -108 -13 0 -105 74 -128 104
-11 14 -33 30 -47 36 -35 13 -36 13 -36 -5 0 -27 -24 -27 -83 0 -32 14 -62 25
-67 25 -5 0 5 -30 22 -67 43 -95 59 -153 48 -173 -11 -20 -82 -45 -104 -37
-26 10 -18 22 27 38 41 14 42 15 39 58 -4 71 -77 161 -129 161 -27 0 -29 -8
-8 -37 23 -33 2 -37 -52 -8 -26 13 -77 38 -113 54 -36 17 -92 55 -125 85 -66
60 -67 72 -2 27 51 -34 122 -71 138 -71 22 0 -32 48 -97 86 -35 21 -72 46 -81
57 -17 19 -17 20 2 14 57 -16 97 -36 118 -55 13 -12 27 -22 33 -22 12 0 -75
78 -106 95 -14 7 -63 52 -109 99 -46 47 -88 86 -94 86 -6 0 -25 11 -42 24 -32
25 -85 44 -85 31 0 -4 20 -25 45 -48 30 -28 59 -72 89 -133 67 -136 160 -228
322 -319 85 -48 90 -59 22 -52 -63 6 -127 31 -195 77 -38 26 -52 30 -83 25
-46 -8 -70 13 -107 93 -23 48 -24 57 -13 95 24 87 24 92 -15 146 -20 28 -41
51 -46 51 -5 0 -12 -12 -15 -27 -4 -16 -9 -32 -13 -38 -3 -5 -4 -22 -2 -37 4
-38 -85 -131 -143 -152 -38 -13 -152 -39 -218 -50 -36 -6 -27 17 15 38 73 36
156 134 93 110 -10 -4 -18 0 -22 10 -10 27 -53 20 -66 -11 l-12 -28 -4 24 c-2
13 2 27 9 32 19 11 9 18 -30 21 -19 1 -38 10 -44 19 -6 9 -18 14 -27 12 -9 -3
-24 3 -34 12 -9 9 -31 18 -49 20 -17 2 -47 9 -65 17 -29 11 -37 11 -63 -5 -17
-9 -35 -15 -39 -12 -12 8 -4 63 14 100 8 16 18 48 21 70 5 29 18 50 46 76 21
20 39 42 39 50 0 8 8 24 18 36 13 16 24 20 45 16 15 -3 27 -11 27 -19 0 -7 9
-18 20 -24 35 -19 36 15 1 51 -17 17 -31 39 -31 49 0 25 26 43 52 36 33 -8
156 -103 163 -125 6 -18 65 -77 65 -64 0 4 5 2 12 -5 16 -16 48 -15 48 2 0 7
-14 16 -31 20 l-31 6 23 21 c17 14 20 22 11 26 -7 2 -29 21 -50 40 -45 42
-112 89 -156 107 -47 20 -54 55 -20 111 28 48 58 135 46 135 -4 0 -36 -48 -72
-107 -88 -145 -175 -232 -305 -304 -112 -62 -163 -85 -172 -76 -6 6 83 97 178
180 30 26 79 77 109 113 95 113 221 224 253 224 8 0 20 6 26 13 10 13 43 132
55 201 3 16 7 31 10 33 2 3 91 0 198 -6 106 -5 200 -10 208 -10 304 0 512 -11
532 -28 15 -14 19 -14 33 1 13 13 30 15 78 11 34 -2 202 -10 372 -16 171 -6
324 -14 340 -18 l30 -7 -3 -66 -4 -65 32 -7 c41 -8 291 -7 475 2 l141 7 36 39
c21 22 35 43 32 48 -3 4 3 5 12 1 11 -4 15 -3 10 5 -17 28 77 72 153 72 34 0
36 3 22 28 -6 11 -4 44 4 87 7 39 16 97 19 130 4 33 11 87 16 120 5 33 16 114
25 180 9 66 18 136 20 155 16 120 23 132 64 110 17 -9 21 -8 21 5 0 9 4 14 9
11 15 -9 -4 -765 -20 -781 -5 -5 -29 -16 -52 -22 -36 -11 -20 -12 113 -7 250
9 250 9 250 44 0 17 -4 18 -26 10 -30 -12 -134 -13 -134 -2 0 4 7 45 16 92 8
47 17 99 20 115 3 17 7 37 10 45 3 8 8 29 11 45 7 38 9 46 16 65 3 8 8 40 12
70 4 30 8 64 10 75 2 11 6 43 9 70 3 28 8 64 11 80 2 17 7 59 10 95 3 36 13
116 21 179 17 132 20 124 -76 187 -36 24 -84 57 -107 74 -64 47 -110 54 -435
71 -126 7 -228 17 -228 22 0 6 82 8 205 5 158 -3 208 -1 216 8 14 17 3 34 -21
34 -10 0 -20 6 -23 13 -3 7 1 107 9 222 18 279 22 315 33 329 5 6 12 83 15
171 7 174 14 319 21 405 13 159 16 183 19 189 3 4 7 31 11 61 3 30 10 84 15
120 11 81 21 363 23 627 1 150 5 204 14 207 9 4 12 -35 14 -167 2 -285 4 -337
10 -337 10 0 18 66 34 263 33 417 38 589 28 926 -7 253 9 512 62 1001 2 19 11
101 21 183 9 81 15 150 11 153 -11 12 -45 -7 -51 -29 -3 -13 -9 -18 -14 -12
-11 12 -23 71 -16 78 3 3 7 31 9 63 2 33 6 75 9 94 16 125 17 172 4 187 -9 12
-9 15 0 9 17 -10 15 9 -3 24 -8 7 -15 9 -15 6 0 -4 -7 -1 -15 8 -8 8 -15 19
-15 24 0 5 -11 17 -25 26 -28 18 -44 78 -26 100 6 7 8 16 4 19 -3 4 -8 19 -9
33 -2 20 1 24 13 20 14 -6 14 -4 1 16 -12 19 -16 79 -9 130 1 4 13 6 29 5 25
-2 27 1 25 33 -10 189 -10 209 6 213 9 3 -45 5 -119 6 -74 0 -130 -3 -124 -7
12 -7 18 -90 29 -407 4 -82 9 -170 11 -193 5 -38 4 -43 -12 -40 -11 2 -18 13
-19 33 -13 200 -16 252 -21 323 -3 45 -10 82 -15 82 -5 0 -9 -39 -10 -87 0
-49 -2 -115 -4 -148 -2 -33 -7 -118 -10 -190 -4 -71 -8 -157 -10 -190 -2 -33
-5 -78 -6 -100 -1 -22 -6 -48 -10 -57 -6 -10 -5 -19 1 -23 7 -4 7 -12 2 -18
-5 -7 -9 -34 -11 -62 -2 -54 -9 -140 -12 -140 0 0 -3 -16 -4 -36 -2 -20 -10
-80 -18 -135 -9 -54 -27 -214 -41 -354 -28 -271 -39 -361 -61 -505 -7 -49 -23
-153 -34 -230 -32 -215 -47 -314 -81 -520 -17 -104 -38 -246 -46 -314 -8 -68
-25 -180 -39 -250 -69 -356 -90 -504 -110 -781 -8 -113 -22 -279 -30 -370 -20
-220 -44 -560 -47 -659 l-2 -81 -39 0 c-37 0 -38 1 -33 33 3 17 8 84 11 147 8
150 13 229 25 375 5 66 12 158 15 205 3 47 10 130 15 185 5 55 14 168 20 250
17 246 25 301 42 311 5 3 5 11 -2 19 -8 10 -5 22 10 49 24 44 24 47 5 40 -18
-7 -19 3 -2 36 7 14 14 45 15 70 3 53 39 234 54 272 5 15 9 30 8 33 -1 4 6 12
15 19 12 8 17 34 21 101 2 50 8 113 13 140 31 173 70 449 106 745 20 162 38
309 40 325 2 17 7 59 10 95 3 36 8 74 11 85 5 25 16 151 15 184 -1 13 3 40 9
59 6 22 6 41 0 53 -7 12 -6 20 1 25 8 4 7 9 -2 15 -11 7 -11 14 4 39 21 34 16
39 -12 11 -12 -12 -21 -39 -24 -77 -4 -33 -13 -104 -22 -159 -9 -55 -18 -116
-21 -135 -2 -19 -15 -114 -29 -210 -14 -96 -39 -276 -55 -400 -57 -418 -190
-1182 -235 -1356 -17 -67 -31 -226 -45 -534 -6 -124 -15 -313 -20 -420 -5
-107 -12 -256 -15 -330 -3 -74 -8 -170 -11 -212 -6 -76 -7 -78 -33 -78 -40 0
-51 -12 -67 -76 -44 -168 -189 -344 -285 -344 -19 0 -18 3 14 27 22 17 34 34
31 44 -2 8 5 34 16 57 11 22 20 45 20 49 -1 13 -40 -41 -40 -54 0 -7 -24 -37
-54 -67 l-53 -55 -49 13 c-146 39 -230 136 -304 356 -48 142 -63 180 -71 180
-5 0 -5 -7 -2 -17 4 -11 3 -14 -5 -9 -7 4 -12 2 -12 -3 0 -6 4 -11 10 -11 5 0
7 -7 4 -15 -4 -9 -1 -15 7 -15 10 0 10 -3 1 -12 -9 -9 -8 -16 5 -30 16 -18 16
-18 -2 -12 -17 7 -17 6 1 -25 15 -26 16 -33 5 -40 -11 -7 -11 -9 0 -14 11 -3
11 -7 3 -17 -9 -9 -15 -3 -24 27 -7 21 -17 43 -21 49 -5 6 -11 24 -13 40 -3
16 -11 50 -20 77 -8 26 -13 47 -11 47 2 0 -3 16 -11 35 -14 35 -14 36 12 45
24 9 26 14 21 46 -3 19 -2 46 3 60 12 31 -18 65 -50 57 -19 -5 -21 -2 -19 55
2 64 13 96 27 76 4 -6 17 -14 29 -18 29 -9 31 -2 38 209 13 392 28 494 40 267
4 -79 11 -140 16 -135 4 4 11 154 15 333 l6 325 -28 29 c-16 16 -66 53 -111
82 l-83 54 0 45 c0 43 -1 45 -24 39 -16 -4 -37 2 -62 18 -22 13 -63 34 -91 47
-100 46 -55 48 112 6 160 -41 309 -55 332 -32 4 5 0 5 -10 1 -9 -3 -17 -1 -17
5 0 14 -50 60 -74 67 -26 8 -137 86 -201 140 -68 57 -168 114 -200 114 -15 0
-37 -11 -52 -26 -23 -23 -25 -31 -20 -79 5 -48 3 -55 -15 -61 -13 -4 -29 2
-46 18 -15 12 -28 24 -30 24 -1 1 -4 11 -7 22 -6 33 -25 62 -40 62 -7 0 -17
14 -20 32 -7 32 -40 69 -96 109 -16 11 -27 25 -24 30 9 13 -9 11 -23 -3 -12
-12 -23 -4 -34 24 -2 4 -15 9 -30 12 -14 2 -36 10 -49 16 -19 11 -20 14 -6 21
9 6 26 5 43 -1 15 -6 43 -8 61 -5 109 17 201 -2 436 -91 49 -19 98 -34 110
-34 26 0 109 -42 152 -77 17 -14 67 -60 112 -103 82 -80 123 -102 152 -83 22
15 17 55 -13 117 -21 43 -39 60 -103 103 -43 28 -97 60 -120 72 -23 11 -58 41
-78 66 -21 25 -42 45 -47 45 -6 0 -24 10 -41 23 -18 12 -41 27 -52 33 -11 6
-49 29 -85 51 -36 22 -85 51 -110 65 -25 14 -61 34 -80 45 -54 30 -282 127
-408 173 -62 23 -142 60 -178 83 -132 86 -244 168 -243 180 0 9 2 9 6 0 2 -7
9 -13 15 -13 5 0 39 -13 74 -30 36 -16 104 -43 152 -59 225 -76 265 -91 361
-133 24 -11 67 -28 95 -39 28 -12 55 -24 61 -29 13 -11 298 -134 395 -171 71
-27 76 -28 88 -11 7 9 41 31 75 47 62 30 84 55 50 55 -11 0 -47 11 -81 25 -59
24 -124 33 -287 39 -107 4 -175 16 -232 42 -28 13 -56 24 -60 24 -5 0 -29 10
-54 22 -57 28 -33 35 70 18 91 -15 238 -15 255 -1 7 6 28 11 47 13 19 1 45 9
59 17 35 22 90 76 90 88 0 6 7 13 15 17 19 7 19 30 0 46 -9 7 -14 18 -12 25 3
6 -1 19 -9 30 -8 10 -14 22 -14 27 0 13 29 9 56 -8 22 -15 24 -15 18 0 -3 9
-10 16 -15 16 -13 0 -59 46 -59 59 0 6 -4 11 -9 11 -4 0 -44 37 -87 82 -44 46
-125 130 -180 188 -56 58 -112 125 -124 150 -34 67 -72 119 -126 173 -84 83
-13 39 88 -54 142 -132 153 -142 278 -242 138 -111 365 -251 583 -360 136 -67
160 -69 126 -7 -27 49 -75 95 -188 187 -83 67 -213 204 -321 337 -30 37 -63
77 -73 89 -10 11 -20 31 -23 43 -3 12 -12 25 -21 28 -9 4 -12 13 -8 26 5 16 2
20 -15 20 -17 0 -19 3 -10 19 10 20 -1 38 -18 27 -5 -3 -6 8 -4 25 4 25 2 28
-13 22 -15 -5 -17 -2 -13 15 4 16 2 22 -9 22 -11 0 -14 7 -11 24 5 24 4 25
-23 10 -39 -20 -47 -18 -21 6 12 12 22 25 22 30 0 16 -37 12 -54 -6 -9 -8 -16
-11 -16 -6 0 5 9 17 20 27 30 28 24 49 -26 91 -52 44 -95 69 -289 167 -91 46
-133 72 -121 75 10 2 28 0 40 -6 34 -15 91 -32 110 -32 9 0 88 -28 174 -61 86
-34 241 -92 344 -130 103 -37 201 -75 218 -84 47 -25 49 -10 3 38 -47 49 -64
87 -61 139 1 34 -5 44 -72 108 -40 38 -75 70 -79 70 -5 0 -19 11 -88 70 -12
10 -31 23 -42 30 -12 6 -21 17 -21 25 0 8 -5 15 -12 15 -7 0 -22 10 -33 23
-11 13 -28 26 -37 30 -10 3 -18 13 -18 22 0 19 1 19 52 -4 24 -11 75 -32 113
-47 39 -15 74 -31 80 -36 5 -4 16 -8 25 -8 8 0 42 -13 75 -29 87 -42 104 -46
99 -23 -4 13 3 22 22 31 40 18 126 24 135 10 4 -7 12 -8 20 -3 22 14 70 13 76
-2 2 -7 11 -10 20 -7 8 3 19 0 24 -8 14 -23 26 1 34 67 7 66 7 65 -75 155 -8
9 -73 64 -145 123 -154 126 -141 116 -184 146 -74 53 -132 103 -259 225 -51
49 -89 79 -100 77 -22 -5 -41 -22 -24 -22 7 0 22 -9 34 -20 12 -11 18 -20 14
-20 -14 0 -51 23 -59 36 -4 8 -15 14 -22 14 -8 0 -15 7 -15 15 0 8 -4 15 -10
15 -12 0 -50 36 -50 48 0 4 -13 17 -28 29 -37 30 -37 69 0 65 19 -2 27 2 31
17 3 12 1 24 -5 27 -9 6 -750 2 -870 -4z m83 -145 c-6 -6 -18 -3 -31 6 -15 10
-17 16 -8 19 18 7 50 -14 39 -25z m29 -11 c0 -3 -4 -8 -10 -11 -5 -3 -10 -1
-10 4 0 6 5 11 10 11 6 0 10 -2 10 -4z m-1200 -71 c8 -7 30 -20 48 -29 30 -15
45 -46 22 -46 -36 0 21 -75 97 -129 5 -3 24 -26 43 -51 19 -25 44 -52 55 -60
11 -8 36 -32 55 -53 71 -80 119 -124 176 -162 32 -22 65 -47 74 -55 9 -8 48
-44 88 -79 39 -35 68 -69 65 -74 -3 -6 -1 -7 5 -3 6 3 23 -5 37 -20 25 -25 26
-27 8 -46 -10 -11 -18 -23 -18 -26 0 -15 -46 3 -155 60 -63 33 -141 76 -172
95 -60 37 -97 39 -80 6 10 -19 4 -83 -8 -83 -4 0 -12 11 -18 25 -8 17 -16 23
-28 18 -11 -4 -15 -3 -10 5 3 6 0 14 -7 19 -7 4 -17 17 -22 28 -7 19 -8 19
-14 -5 -5 -16 -3 -26 5 -28 7 -2 11 -9 8 -16 -6 -15 -64 -9 -64 8 -1 25 -21
-26 -25 -63 -3 -31 -1 -39 9 -35 8 3 17 1 21 -5 3 -6 1 -11 -4 -11 -17 0 -13
-43 6 -70 10 -14 16 -33 15 -42 -7 -38 81 -194 194 -348 21 -29 25 -42 20 -77
-5 -39 -3 -44 34 -76 22 -19 40 -37 40 -41 0 -11 -159 75 -239 128 -83 56
-181 143 -181 162 0 8 -5 14 -11 14 -5 0 -8 4 -5 8 2 4 -11 49 -30 100 -45
120 -72 238 -76 334 -3 73 -2 76 14 61 10 -9 18 -21 18 -27 1 -6 9 -29 20 -51
11 -22 19 -45 20 -52 0 -6 5 -15 10 -18 12 -7 8 37 -16 175 -36 201 -45 273
-54 410 -5 80 -11 169 -15 197 -5 48 -4 52 12 46 10 -3 25 -12 33 -18z m2146
-70 c16 -8 22 -15 13 -15 -8 0 -24 7 -35 15 -25 19 -14 19 22 0z m104 -93 c0
-8 -1 -13 -3 -11 -1 2 -9 12 -16 22 -12 15 -12 17 3 11 9 -3 16 -13 16 -22z
m-1484 3 c4 -10 10 -12 18 -6 7 5 21 5 36 -2 l25 -10 -24 -5 c-30 -5 -73 6
-66 18 3 5 -5 11 -17 13 l-23 4 23 2 c12 0 25 -6 28 -14z m1509 -15 c3 -5 1
-10 -4 -10 -6 0 -11 5 -11 10 0 6 2 10 4 10 3 0 8 -4 11 -10z m-1345 -36 c12
-12 11 -14 -12 -14 -29 0 -81 24 -72 33 10 9 67 -4 84 -19z m1377 1 c8 -9 13
-18 11 -21 -3 -2 -13 5 -23 16 -21 23 -11 27 12 5z m1887 -236 c-3 -5 -10 -7
-15 -3 -5 3 -7 10 -3 15 3 5 10 7 15 3 5 -3 7 -10 3 -15z m-49 -179 c3 -5 -1
-10 -9 -10 -9 0 -16 5 -16 10 0 6 4 10 9 10 6 0 13 -4 16 -10z m5 -60 c0 -10
-7 -20 -15 -23 -17 -7 -30 9 -16 18 6 3 8 12 4 20 -4 11 -1 13 11 9 9 -3 16
-14 16 -24z m-3930 -53 c0 -7 -7 -22 -15 -33 -14 -18 -15 -17 -11 11 5 38 4
35 16 35 6 0 10 -6 10 -13z m3936 -22 c8 -30 -20 -67 -43 -58 -11 4 -12 8 -2
13 7 5 12 22 11 39 -1 38 25 43 34 6z m-2125 -858 c71 -66 108 -98 135 -117
12 -8 46 -34 75 -57 30 -23 88 -67 129 -99 41 -32 77 -61 78 -66 2 -4 11 -8
20 -9 10 0 12 -3 5 -5 -9 -4 -149 77 -163 95 -3 4 -18 15 -34 25 -55 35 -170
134 -246 210 -85 86 -84 103 1 23z m-4816 -347 c8 -13 -5 -13 -25 0 -13 8 -13
10 2 10 9 0 20 -4 23 -10z m3145 -25 c0 -18 -5 -25 -18 -25 -11 0 -43 -9 -73
-20 -30 -10 -85 -30 -124 -44 -44 -16 -91 -26 -126 -26 -57 0 -158 15 -168 26
-9 9 42 43 82 54 21 6 75 15 120 21 45 5 125 16 177 23 135 19 130 20 130 -9z
m-2195 -45 c8 -13 -5 -13 -25 0 -13 8 -13 10 2 10 9 0 20 -4 23 -10z m6130 0
c3 -5 1 -10 -4 -10 -6 0 -11 5 -11 10 0 6 2 10 4 10 3 0 8 -4 11 -10z m-6085
-14 c0 -2 -7 -7 -16 -10 -8 -3 -12 -2 -9 4 6 10 25 14 25 6z m4082 -65 c7 -10
23 -21 36 -25 21 -7 30 -24 15 -28 -37 -7 -61 -4 -56 9 4 9 0 11 -13 6 -14 -5
-16 -3 -11 11 4 9 3 15 -2 11 -12 -7 -24 12 -16 25 10 16 33 12 47 -9z m2016
-20 c1 -22 -1 -42 -6 -44 -4 -3 -8 15 -9 39 -3 54 11 59 15 5z m-4048 -21
c147 -23 392 -83 379 -94 -2 -1 -80 1 -174 6 -252 11 -510 10 -595 -3 -41 -7
-97 -22 -125 -34 -27 -13 -66 -26 -85 -30 -45 -9 -60 -22 -60 -51 0 -25 27
-39 74 -35 37 2 68 -8 61 -20 -4 -5 -18 -9 -33 -9 -15 0 -56 -9 -92 -20 l-65
-20 -17 21 c-43 51 -13 112 79 166 24 14 43 27 43 30 0 3 -18 2 -40 -2 -22 -4
-40 -4 -40 -1 0 11 113 57 174 71 33 8 124 18 201 21 77 4 151 11 165 15 14 4
36 6 50 4 14 -2 59 -9 100 -15z m2070 -50 c0 -5 -2 -10 -4 -10 -3 0 -8 5 -11
10 -3 6 -1 10 4 10 6 0 11 -4 11 -10z m1986 -106 c12 -199 10 -517 -2 -521 -9
-3 -12 50 -12 193 -1 108 -3 199 -6 201 -3 3 -1 14 5 24 5 11 6 19 1 19 -10 0
-16 176 -6 191 11 18 14 4 20 -107z m-4236 -134 c47 -5 112 -12 145 -15 98
-10 187 -23 194 -30 3 -4 -74 -4 -171 0 -210 8 -278 2 -278 -26 0 -24 -1 -24
283 -54 205 -22 287 -36 287 -47 0 -2 -170 -3 -377 -3 -374 0 -378 0 -409 -22
l-31 -22 21 -61 c11 -33 28 -62 37 -65 34 -11 218 -13 222 -2 6 19 40 -9 43
-37 3 -29 -13 -45 -22 -22 -7 19 -26 21 -23 4 3 -27 -2 -38 -16 -38 -19 0 -82
-35 -119 -67 -17 -14 -40 -29 -53 -34 -24 -9 -32 -29 -10 -29 6 0 41 9 77 20
83 26 232 62 236 57 11 -11 -40 -38 -106 -57 -277 -80 -454 -153 -530 -217
-22 -19 -44 -33 -47 -29 -3 3 2 44 12 91 18 88 16 107 -9 86 -20 -17 -22 12
-15 179 4 96 11 144 22 165 25 47 112 126 131 119 10 -4 16 -1 16 9 0 17 34
32 63 28 10 -1 17 4 17 15 0 11 6 15 20 11 15 -4 20 0 20 14 0 17 3 18 21 9
11 -7 23 -9 27 -6 3 3 0 6 -7 6 -7 0 -10 4 -7 9 3 5 16 7 28 3 17 -4 20 -2 15
11 -18 47 113 68 293 47z m-1522 -332 c-4 -31 -25 -34 -25 -3 0 15 5 25 14 25
9 0 13 -8 11 -22z m52 7 c0 -2 -9 -3 -19 -2 -11 0 -18 5 -15 9 4 6 34 0 34 -7z
m2175 -49 c114 -29 219 -69 531 -198 124 -51 230 -106 221 -114 -2 -3 -65 20
-138 50 -348 142 -494 196 -757 276 -40 13 -75 26 -77 30 -5 8 109 -15 220
-44z m-697 32 c14 -14 16 -48 3 -48 -6 0 -17 10 -25 22 -22 31 -4 52 22 26z
m-1628 -2 c0 -3 -4 -8 -10 -11 -5 -3 -10 -1 -10 4 0 6 5 11 10 11 6 0 10 -2
10 -4z m123 -20 c4 -10 0 -14 -13 -13 -14 1 -16 4 -8 14 13 16 15 16 21 -1z
m-8 -56 c-3 -5 -12 -10 -18 -10 -7 0 -6 4 3 10 19 12 23 12 15 0z m3068 -77
c7 -10 4 -13 -12 -13 -12 0 -21 6 -21 15 0 8 -6 15 -12 16 -7 0 -4 4 7 8 12 5
21 4 24 -3 2 -6 8 -17 14 -23z m2547 18 c0 -6 -4 -13 -10 -16 -5 -3 -10 1 -10
9 0 9 5 16 10 16 6 0 10 -4 10 -9z m4 -47 c9 -22 8 -24 -9 -18 -8 4 -15 12
-15 20 0 19 16 18 24 -2z m-2494 -16 c16 -15 19 -23 11 -26 -7 -2 -25 7 -39
22 -33 33 -7 37 28 4z m87 -52 c2 -45 1 -47 -16 -32 -12 11 -16 26 -13 51 6
52 27 38 29 -19z m2411 -25 c1 -30 -2 -51 -8 -51 -6 0 -10 23 -9 55 2 67 14
65 17 -4z m-7761 23 c-3 -3 -12 -4 -19 -1 -8 3 -5 6 6 6 11 1 17 -2 13 -5z
m-47 -8 c0 -3 -4 -8 -10 -11 -5 -3 -10 -1 -10 4 0 6 5 11 10 11 6 0 10 -2 10
-4z m45 -26 c-3 -4 -15 -6 -27 -2 -21 5 -21 6 -2 12 21 8 37 3 29 -10z m5327
-49 c24 -16 102 -68 174 -114 72 -47 149 -102 170 -123 22 -20 82 -65 135
-100 98 -66 164 -123 124 -108 -25 10 -143 83 -215 135 -30 21 -62 39 -70 39
-9 0 -24 -22 -37 -53 -12 -28 -58 -135 -103 -236 -45 -101 -95 -220 -111 -264
-16 -44 -37 -92 -46 -106 -10 -14 -23 -48 -29 -76 -7 -27 -30 -102 -51 -165
-45 -129 -69 -152 -64 -60 1 30 4 57 7 61 2 3 -3 15 -11 25 -14 19 -15 18 -32
-2 -10 -12 -28 -25 -40 -29 -34 -10 -30 -44 7 -56 17 -6 30 -18 30 -26 0 -9
10 -35 22 -59 20 -41 20 -45 5 -62 -10 -10 -14 -21 -11 -25 3 -3 -2 -29 -11
-57 -16 -49 -18 -51 -46 -45 -24 6 -29 3 -29 -13 0 -12 9 -22 21 -25 24 -6 24
-5 -6 -117 -9 -36 -23 -72 -30 -80 -8 -8 -14 -29 -14 -45 1 -33 -92 -380 -110
-413 -19 -35 -41 -16 -41 33 0 52 14 92 42 122 18 20 20 27 10 48 -17 37 -15
72 7 92 12 12 20 38 24 81 3 39 11 68 20 75 18 14 40 87 27 87 -5 0 -12 -4
-15 -10 -15 -24 -24 -6 -29 58 -3 37 -8 102 -12 146 -6 76 -5 79 20 103 26 24
34 60 17 78 -9 10 -1 79 17 145 5 19 39 93 75 164 37 70 70 145 73 165 8 42
69 189 88 211 8 8 16 26 19 40 19 78 41 157 49 173 5 11 8 20 6 21 -47 31 -62
36 -79 31 -16 -5 -19 -13 -15 -30 6 -23 -14 -49 -21 -29 -11 31 -22 38 -37 25
-9 -8 -16 -20 -16 -27 0 -23 40 -56 61 -51 16 4 19 0 19 -26 0 -44 -15 -67
-25 -38 -7 24 -40 28 -49 6 -10 -27 5 -47 30 -41 32 8 31 -3 -12 -104 -19 -46
-44 -114 -56 -150 -24 -76 -94 -230 -103 -230 -4 0 -4 16 -1 35 8 43 -7 75
-37 75 -19 0 -24 -10 -43 -88 -22 -95 -21 -122 8 -129 20 -6 20 -6 12 -27 -3
-9 -15 -16 -25 -16 -20 0 -27 -34 -10 -45 5 -3 -1 -31 -13 -63 -12 -31 -26
-69 -29 -85 -4 -15 -12 -27 -17 -27 -13 0 -24 45 -17 72 3 12 1 41 -6 66 -11
42 -11 45 16 64 33 24 33 31 1 99 l-27 54 21 65 c30 92 65 265 68 332 3 69 48
180 179 433 116 226 127 245 142 245 7 0 32 -13 55 -29z m-3272 -22 c0 -5 -9
-4 -19 3 -11 7 -17 16 -14 20 5 10 33 -10 33 -23z m5710 -36 c0 -25 -2 -44 -4
-42 -10 9 -14 89 -5 89 5 0 9 -21 9 -47z m-5660 7 c0 -6 -9 -5 -20 2 -11 7
-20 16 -20 21 0 4 9 3 20 -3 11 -6 20 -15 20 -20z m2050 -109 c0 -17 -14 -19
-435 -77 -148 -20 -375 -66 -375 -75 0 -20 45 -28 164 -30 172 -3 252 -25 298
-83 16 -20 15 -62 -1 -76 -3 -3 -12 -17 -20 -32 -8 -16 -20 -28 -28 -28 -7 0
-13 -4 -13 -10 0 -5 -8 -10 -17 -10 -19 -1 -62 -50 -43 -50 5 0 10 4 10 9 0 5
11 9 25 9 32 0 31 -11 -4 -85 -28 -57 -32 -61 -72 -67 -30 -5 -51 -17 -74 -42
-30 -33 -105 -168 -105 -189 0 -6 -13 -19 -30 -28 -43 -26 -37 -37 21 -37 27
0 83 -5 122 -10 40 -6 106 -15 147 -21 131 -18 194 -32 250 -56 30 -13 45 -22
33 -19 -13 2 -23 0 -23 -5 0 -5 -7 -9 -15 -9 -35 0 -11 -18 31 -25 101 -15 88
-24 -36 -25 -375 -4 -489 -9 -600 -29 -134 -23 -177 -37 -206 -63 -21 -19 -21
-19 -38 6 -9 14 -16 34 -16 45 0 11 -6 24 -14 28 -31 17 -34 55 -10 133 13 41
31 131 40 200 21 162 21 163 45 117 24 -45 43 -55 64 -33 9 9 13 16 8 16 -4 1
2 9 15 20 13 11 21 24 18 29 -11 17 14 23 30 7 18 -19 34 -13 30 12 -2 9 -7
42 -11 72 -9 68 -32 139 -80 249 -36 85 -36 85 -17 110 19 26 40 34 197 75
205 54 735 109 735 77z m-4402 -50 c23 -28 42 -53 42 -56 0 -3 -14 -5 -32 -3
-24 2 -38 12 -55 37 -25 37 -30 71 -10 71 6 0 31 -22 55 -49z m946 -113 c10
-52 7 -1599 -4 -1853 -6 -126 -17 -277 -25 -335 -8 -58 -18 -185 -22 -282 -6
-163 -8 -178 -24 -178 -10 0 -24 10 -30 22 -12 22 -8 69 26 328 21 155 26 373
40 1685 6 511 11 645 25 645 4 0 10 -15 14 -32z m732 -1328 c8 -168 20 -388
25 -490 5 -102 14 -210 20 -240 14 -69 68 -238 126 -394 41 -112 48 -153 22
-144 -10 3 -17 19 -77 188 -31 87 -60 205 -87 345 -49 252 -93 1120 -68 1336
7 55 9 38 16 -116 4 -99 14 -317 23 -485z m3364 595 c-6 -25 -5 -44 1 -51 16
-19 22 -212 8 -261 -13 -47 -42 -59 -54 -22 -4 11 -12 18 -18 16 -19 -6 -21
-40 -3 -53 21 -15 12 -63 -13 -71 -41 -15 -42 -25 -3 -63 47 -47 66 -101 46
-127 -7 -10 -14 -30 -14 -45 0 -15 -4 -30 -10 -33 -5 -3 -10 -21 -10 -38 0
-37 -25 -163 -41 -203 l-10 -28 -23 29 c-13 16 -22 35 -19 41 2 7 0 15 -6 19
-20 12 -11 65 20 128 28 56 30 65 19 100 -6 22 -16 37 -23 34 -13 -4 -39 -101
-82 -302 -127 -589 -195 -1021 -197 -1241 0 -110 -11 -143 -43 -131 -12 5 -15
13 -10 25 9 18 15 67 40 312 36 345 92 685 176 1069 23 102 50 225 60 273 26
123 114 427 155 533 53 138 72 169 54 90z m-4006 -515 c-2 -329 -11 -454 -27
-410 -19 51 -10 823 11 870 14 33 19 -112 16 -460z m4066 306 c0 -3 -4 -8 -10
-11 -5 -3 -10 -1 -10 4 0 6 5 11 10 11 6 0 10 -2 10 -4z m-1362 -230 c11 -19
24 -61 27 -93 4 -32 13 -64 19 -72 26 -32 -2 -493 -32 -523 -6 -6 -14 -10 -16
-7 -2 2 -7 78 -11 169 -3 91 -11 217 -16 280 -11 148 -11 280 0 280 5 0 18
-15 29 -34z m172 -40 c0 -3 -4 -8 -10 -11 -5 -3 -10 -1 -10 4 0 6 5 11 10 11
6 0 10 -2 10 -4z m76 -93 c4 -32 8 -60 9 -63 4 -14 16 -162 17 -215 1 -33 -2
-116 -6 -185 -7 -115 -6 -129 13 -173 29 -66 35 -159 22 -303 -11 -121 -25
-184 -42 -184 -5 0 -9 24 -9 53 0 29 -7 78 -16 107 l-16 54 -14 -33 c-14 -33
-71 -253 -125 -481 -16 -69 -39 -162 -49 -207 -24 -99 -25 -174 -4 -237 13
-37 15 -66 10 -124 -4 -43 -10 -126 -15 -187 -5 -63 -15 -127 -25 -150 -29
-69 -74 -102 -61 -46 10 47 -19 47 -69 1 -24 -22 -46 -40 -49 -40 -15 0 22 92
56 137 34 46 41 65 58 160 20 108 35 259 44 428 4 84 3 88 -9 54 -8 -19 -35
-120 -61 -225 -46 -186 -71 -261 -59 -178 3 22 2 56 -3 75 -7 24 -6 44 3 69 7
19 13 47 13 62 1 15 7 42 15 60 7 18 37 106 65 196 37 113 58 165 71 172 26
14 37 61 50 215 6 72 16 152 21 179 5 27 16 96 24 153 8 57 28 158 44 226 17
67 33 151 36 187 7 79 13 139 21 205 3 28 7 59 8 69 2 11 -1 42 -6 70 -8 51 7
156 22 156 4 0 11 -26 16 -57z m1234 -23 c0 -68 -3 -81 -19 -90 -39 -20 -44
-14 -37 52 7 59 31 118 48 118 4 0 8 -36 8 -80z m-1309 -110 c4 -65 -23 -235
-51 -325 -17 -55 -44 -149 -60 -210 -15 -60 -35 -128 -44 -150 -23 -60 -38
-164 -52 -355 -8 -119 -17 -155 -36 -144 -11 7 -5 141 12 254 5 36 12 101 15
145 5 71 22 139 71 294 8 25 14 57 14 72 0 14 6 44 14 66 12 35 41 193 67 368
6 39 16 90 22 115 l12 45 7 -75 c4 -41 8 -86 9 -100z m1287 -57 c4 -38 -13
-73 -34 -73 -13 0 -15 -9 -11 -47 3 -37 -2 -60 -22 -103 l-26 -55 -3 40 c-5
56 15 139 38 160 15 13 20 31 20 67 0 42 3 49 18 46 11 -2 18 -14 20 -35z
m-4768 13 c0 -3 -4 -8 -10 -11 -5 -3 -10 -1 -10 4 0 6 5 11 10 11 6 0 10 -2
10 -4z m10 -246 c0 -5 -4 -10 -9 -10 -6 0 -13 5 -16 10 -3 6 1 10 9 10 9 0 16
-4 16 -10z m5788 -12 c8 -8 8 -17 1 -30 -13 -24 -29 -14 -29 18 0 26 9 31 28
12z m-1113 -168 c9 -15 9 -80 -1 -90 -5 -4 -18 -10 -29 -12 -17 -3 -20 2 -17
32 4 58 12 80 27 80 7 0 16 -4 20 -10z m-3446 -202 c13 -45 36 -116 52 -157
19 -47 27 -77 20 -84 -6 -6 -13 -2 -19 9 -18 35 -81 229 -88 272 -11 73 12 47
35 -40z m4391 37 c0 -8 -7 -15 -15 -15 -8 0 -15 7 -15 15 0 8 7 15 15 15 8 0
15 -7 15 -15z m438 -57 c-2 -13 -7 -23 -13 -23 -5 0 -11 10 -13 23 -2 15 2 22
13 22 11 0 15 -7 13 -22z m-1380 -11 c8 -9 8 -24 2 -49 -12 -41 -44 -75 -55
-58 -35 57 14 155 53 107z m3036 -146 c4 -5 -3 -7 -14 -4 -23 6 -26 13 -6 13
8 0 17 -4 20 -9z m-7174 -35 c0 -3 -4 -8 -10 -11 -5 -3 -10 -1 -10 4 0 6 5 11
10 11 6 0 10 -2 10 -4z m0 -51 c0 -8 -7 -15 -15 -15 -16 0 -20 12 -8 23 11 12
23 8 23 -8z m-6 -132 c4 -53 3 -100 -1 -104 -12 -12 -34 5 -34 27 -1 48 15
174 21 174 4 0 10 -44 14 -97z m5446 -63 c0 -11 -4 -20 -10 -20 -5 0 -10 2
-10 4 0 2 -3 11 -6 20 -4 11 -1 16 10 16 9 0 16 -8 16 -20z m-5505 -120 c3 -5
-8 -148 -25 -317 -49 -502 -50 -706 -3 -1020 18 -122 32 -151 25 -52 -5 73 10
74 31 1 12 -39 18 -48 41 -50 36 -5 40 12 22 109 -51 279 -44 882 11 1074 l6
20 7 -20 c4 -11 8 -142 8 -292 0 -250 7 -373 33 -558 19 -133 23 -303 9 -320
-8 -9 -73 -45 -144 -80 -98 -48 -150 -80 -206 -129 -159 -139 -204 -176 -217
-176 -24 0 -14 19 52 93 61 71 152 145 240 197 50 30 55 37 45 69 -47 149 -43
1031 6 1391 4 25 11 51 16 58 12 14 34 16 43 2z m-211 -48 c-54 -49 -123 -96
-130 -90 -11 12 59 78 108 102 29 14 54 26 57 26 4 -1 -13 -18 -35 -38z m1221
-355 c67 -209 114 -493 122 -745 l6 -193 -39 3 -38 3 -13 85 c-7 47 -14 94
-16 105 -2 11 -13 21 -24 23 -17 3 -21 16 -32 140 -7 75 -14 151 -16 167 -1
17 3 57 10 90 7 36 9 76 4 102 -5 23 -8 84 -8 135 1 53 -6 121 -15 158 -9 36
-16 72 -15 80 0 26 47 -72 74 -153z m-1500 57 c-63 -96 -182 -298 -225 -384
-47 -94 -110 -246 -110 -266 0 -24 16 -15 33 19 10 17 31 55 47 82 16 28 35
62 41 78 6 15 14 27 18 27 4 0 13 16 20 35 7 19 17 35 23 35 6 0 8 10 5 22 -7
27 20 92 57 136 47 55 60 34 31 -49 -18 -49 -5 -77 20 -43 19 25 19 18 -5 -57
-29 -95 -66 -258 -89 -394 -12 -66 -24 -132 -27 -147 -7 -29 12 -40 22 -14 3
8 11 13 19 10 8 -4 13 -29 14 -81 1 -42 4 -79 6 -84 3 -4 1 -10 -5 -14 -6 -4
-7 -12 -3 -18 4 -6 7 -50 8 -97 1 -47 4 -91 8 -97 4 -6 4 -18 1 -26 -3 -8 -1
-18 5 -21 6 -4 8 -13 5 -21 -3 -8 3 -34 15 -57 26 -56 36 -109 19 -106 -8 2
-12 -6 -11 -19 2 -13 -1 -23 -6 -23 -5 0 -19 -15 -30 -32 -27 -44 -62 -82 -85
-95 -24 -13 -100 -122 -168 -240 -63 -112 -74 -116 -104 -38 -7 17 -22 55 -35
85 -21 50 -23 70 -24 235 -1 179 13 375 25 375 4 0 8 26 9 58 1 31 11 106 21
166 11 60 20 124 20 142 0 34 56 262 91 374 32 98 129 291 209 415 73 111 162
215 168 195 2 -6 -12 -36 -33 -66z m4256 -121 c-9 -15 -10 -13 -11 13 0 17 3
34 8 38 11 12 14 -32 3 -51z m2544 -68 l0 -50 -43 -3 -43 -3 7 38 c10 59 22
75 52 71 25 -3 27 -6 27 -53z m-2460 -152 c-48 -72 -154 -178 -231 -230 -95
-64 -152 -95 -170 -91 -12 2 23 42 115 133 129 127 168 158 183 149 5 -3 8 0
8 5 0 13 121 103 128 96 3 -3 -12 -31 -33 -62z m-1240 -433 c-3 -5 -1 -10 4
-10 6 0 11 -19 11 -42 0 -49 22 -78 59 -78 31 0 71 -25 71 -45 0 -20 -33 -36
-51 -24 -7 5 -30 9 -50 9 -30 0 -42 6 -63 34 -14 19 -26 43 -26 53 0 26 32
113 43 113 4 0 5 -4 2 -10z m32 -222 c7 -5 25 -7 40 -4 33 7 59 -6 48 -24 -5
-8 -21 -10 -46 -6 -37 6 -52 -5 -28 -19 24 -15 -1 -29 -55 -31 -53 -2 -57 0
-54 20 3 18 8 21 48 18 l45 -3 -29 16 c-15 8 -40 15 -53 15 -20 0 -23 3 -15
13 13 16 82 19 99 5z m-127 -57 c0 -6 -5 -13 -10 -16 -15 -9 -43 3 -35 15 8
13 45 13 45 1z m-24 -69 c5 -4 20 -31 33 -61 25 -60 25 -62 -5 -291 -21 -159
-20 -211 7 -328 21 -90 21 -101 9 -216 -15 -137 -15 -405 -1 -419 7 -7 16 -5
26 3 14 12 18 11 26 -1 12 -19 11 -29 -2 -29 -7 0 -8 -5 -3 -12 5 -7 9 -35 9
-63 l0 -50 -50 -3 c-68 -4 -107 4 -135 30 l-23 22 7 208 c5 182 4 208 -9 208
-8 0 -15 5 -15 10 0 6 9 10 20 10 27 0 26 27 -1 35 -21 7 -21 11 -14 122 4 62
14 140 21 171 30 116 44 212 46 317 4 135 -9 145 -47 38 -32 -90 -55 -123 -55
-81 0 31 34 179 54 236 17 46 75 152 84 152 4 0 12 -4 18 -8z m306 -84 c-7 -7
-12 -8 -12 -2 0 14 12 26 19 19 2 -3 -1 -11 -7 -17z m5038 -23 c0 -28 -17 -34
-27 -9 -3 9 0 20 8 25 19 12 19 12 19 -16z m-7600 7 c0 -10 -30 -24 -195 -88
-171 -66 -183 -73 -287 -176 -96 -94 -144 -149 -104 -118 11 8 30 24 42 35 12
11 35 32 50 46 16 14 36 29 44 34 18 10 -21 -34 -111 -124 -36 -37 -71 -77
-78 -89 -8 -16 -10 -91 -5 -282 7 -243 8 -260 26 -260 10 0 18 -7 18 -16 0 -8
4 -13 8 -10 4 2 14 1 22 -5 12 -7 9 -9 -10 -10 -14 0 -19 -3 -12 -6 17 -6 -30
-52 -77 -74 -32 -15 -33 -17 -13 -23 12 -4 22 -15 22 -25 0 -27 -191 -206
-217 -202 -16 2 -24 -6 -33 -33 -6 -20 -29 -60 -51 -89 -31 -40 -46 -52 -67
-52 -23 0 -27 -5 -30 -33 -3 -33 -60 -102 -85 -102 -7 0 -17 25 -24 61 -6 33
-18 68 -26 77 -19 23 -28 62 -14 62 7 0 4 7 -6 15 -18 13 -17 17 18 105 20 50
45 116 56 147 19 57 26 163 10 163 -5 0 -31 -34 -57 -76 -27 -42 -56 -86 -64
-99 -8 -12 -32 -52 -53 -89 -21 -36 -42 -66 -46 -66 -3 0 -12 13 -18 29 -9 25
-6 43 16 108 26 78 182 356 258 460 21 29 54 75 73 103 57 83 169 220 239 293
73 77 179 156 327 244 126 76 167 94 289 131 140 43 165 48 165 34z m2543 -62
c-3 -12 -8 -19 -11 -16 -5 6 5 36 12 36 2 0 2 -9 -1 -20z m2127 -289 c0 -4
-17 -20 -37 -34 -21 -15 -51 -37 -68 -49 l-30 -23 22 35 c12 19 41 45 64 58
48 25 49 25 49 13z m340 5 c0 -11 -19 -15 -25 -6 -3 5 1 10 9 10 9 0 16 -2 16
-4z m-91 -64 c26 -13 35 -14 38 -4 7 19 30 14 36 -7 4 -16 -3 -19 -47 -25 -28
-3 -77 -6 -109 -6 -38 0 -71 -7 -97 -20 -42 -21 -60 -25 -60 -12 0 12 56 42
78 42 26 0 37 17 23 34 -6 7 -8 16 -4 20 12 11 104 -3 142 -22z m-1238 -11
c151 -100 215 -181 264 -333 22 -69 24 -89 20 -211 -2 -75 -7 -151 -10 -170
-8 -43 -47 -92 -66 -85 -9 4 -24 45 -39 104 -13 55 -32 124 -42 154 -26 75
-188 398 -215 429 -30 33 -29 39 10 79 31 32 31 34 13 48 -20 14 -20 14 0 14
11 0 40 -13 65 -29z m1677 -23 c29 -29 6 -122 -41 -158 -31 -24 -37 -53 -9
-43 12 4 14 3 7 -5 -14 -15 -181 -26 -230 -15 -33 7 -40 13 -40 33 0 19 7 27
31 35 46 15 155 82 205 125 48 42 59 46 77 28z m552 -25 c0 -7 -4 -13 -10 -13
-5 0 -10 12 -10 28 0 21 2 24 10 12 5 -8 10 -21 10 -27z m-2346 12 c-7 -16
-24 -21 -24 -6 0 8 7 13 27 20 1 1 0 -6 -3 -14z m996 -90 c0 -2 -11 -29 -25
-59 -14 -30 -25 -61 -25 -68 0 -17 -49 -77 -50 -61 0 16 59 164 72 181 10 12
28 17 28 7z m50 -14 c0 -4 -8 -19 -17 -32 -10 -13 -31 -50 -48 -82 -19 -37
-31 -52 -33 -42 -2 10 1 22 7 28 6 6 11 19 11 29 0 10 4 18 9 18 5 0 12 14 16
30 7 31 29 60 46 60 5 0 9 -4 9 -9z m2325 -22 c39 -6 174 -14 300 -18 176 -6
239 -12 269 -25 21 -9 51 -16 67 -16 l29 0 0 -129 0 -128 -92 -7 c-50 -3 -176
-6 -280 -6 l-190 0 7 31 c6 29 6 30 -13 20 -30 -16 -45 -14 -39 7 19 58 19 62
6 62 -8 0 -20 -9 -27 -20 -19 -30 -30 -24 -34 18 -4 50 -19 45 -41 -14 -10
-27 -23 -50 -28 -52 -5 -2 -9 -14 -9 -27 0 -12 -6 -25 -14 -28 -26 -10 -40 23
-42 97 -1 39 -7 96 -14 127 l-13 56 -23 -20 c-13 -11 -24 -29 -24 -39 0 -11
-11 -29 -25 -42 -15 -14 -25 -34 -25 -52 0 -27 -1 -27 -17 -11 -16 16 -16 19
0 46 18 31 23 91 8 91 -13 0 -21 -27 -15 -45 4 -10 0 -15 -15 -15 -12 0 -21 5
-21 10 0 6 -7 10 -16 10 -11 0 -14 -5 -9 -17 4 -10 11 -30 15 -44 4 -14 15
-40 25 -58 l17 -33 -44 7 c-24 4 -87 22 -141 40 -92 31 -145 63 -212 130 -20
20 -20 20 15 27 19 4 60 14 90 23 30 9 129 25 220 36 90 11 166 22 168 24 5 4
96 -3 187 -16z m-901 -84 c-4 -8 -8 -15 -10 -15 -2 0 -4 7 -4 15 0 8 4 15 10
15 5 0 7 -7 4 -15z m-215 -166 c-6 -16 -34 -48 -63 -72 -51 -44 -102 -76 -94
-60 2 4 21 44 42 88 20 44 42 90 48 103 6 12 19 22 28 22 23 0 50 32 33 37
-10 4 -10 7 0 18 17 18 22 -98 6 -136z m201 134 c0 -13 -41 -75 -46 -70 -3 2
5 21 17 41 21 35 29 44 29 29z m-2464 -94 c-5 -57 -6 -59 -16 -59 -11 0 -14
113 -3 124 11 11 22 -27 19 -65z m1847 -13 c7 -16 -4 -61 -23 -95 -15 -29 -9
-34 25 -21 15 6 30 9 32 6 3 -2 -7 -24 -21 -49 -14 -24 -26 -47 -26 -52 0 -18
41 30 76 92 44 75 58 84 108 76 31 -5 36 -9 36 -33 0 -60 -128 -159 -257 -200
-38 -12 -47 -11 -77 5 -49 26 -92 17 -244 -55 -73 -34 -151 -65 -174 -68 l-42
-5 58 65 c34 39 81 79 117 99 34 19 73 43 87 55 15 11 52 35 82 52 30 17 87
56 125 86 71 55 108 68 118 42z m-932 -59 c-13 -13 -15 1 -4 30 7 17 8 17 11
-1 2 -10 -1 -23 -7 -29z m-5076 24 c-3 -5 -1 -12 5 -16 14 -9 13 -25 -2 -25
-7 0 -14 11 -14 25 -1 14 2 25 8 25 5 0 7 -4 3 -9z m7535 -30 c0 -26 -16 -35
-24 -15 -10 25 -7 34 9 34 8 0 15 -9 15 -19z m-7520 -40 c0 -26 -10 -51 -20
-51 -7 0 -8 20 -1 63 2 16 21 6 21 -12z m8103 -56 l87 -8 0 -167 0 -168 -67 5
c-64 5 -100 23 -88 43 6 10 61 21 98 20 40 -1 34 23 -17 64 -23 20 -46 36 -49
36 -4 0 -15 -17 -26 -38 -15 -30 -29 -41 -63 -52 -24 -7 -50 -20 -59 -27 -8
-7 -24 -13 -34 -13 -16 0 -17 7 -12 75 3 42 1 75 -4 75 -13 0 -38 -53 -45 -99
-7 -46 -20 -53 -33 -18 -5 13 -16 29 -25 36 -14 11 -16 11 -16 -3 0 -9 5 -25
12 -36 7 -10 10 -22 6 -25 -3 -3 -40 -3 -82 1 -86 8 -96 23 -24 39 32 7 43 14
40 24 -3 8 8 25 24 37 26 22 27 24 11 42 -15 17 -15 20 0 41 l16 24 -36 -7
c-33 -6 -37 -5 -37 14 0 21 -24 28 -35 10 -3 -5 -17 -10 -31 -10 -32 0 -84
-27 -84 -43 0 -7 9 -33 21 -56 22 -45 20 -71 -6 -71 -10 0 -15 10 -15 33 0 48
-12 62 -40 47 -20 -11 -21 -10 -15 9 4 14 0 23 -17 32 -29 15 -47 39 -48 62 0
27 34 20 64 -13 27 -31 46 -32 46 -3 0 19 34 63 66 84 21 13 56 15 227 14 111
-1 241 -6 290 -10z m-8099 -20 c-4 -8 -15 -15 -26 -15 -17 0 -18 3 -8 15 7 8
19 15 26 15 8 0 11 -6 8 -15z m1151 -19 c17 -1 47 -3 68 -4 20 -1 37 -6 37
-11 0 -4 -75 -6 -167 -4 -93 3 -176 4 -185 4 -30 -1 -47 -1 -65 0 -10 0 -68 0
-129 -1 -62 0 -120 3 -130 7 -45 17 36 22 281 17 143 -4 274 -7 290 -8z m3740
-36 c-9 -18 -18 -30 -21 -28 -2 3 3 19 12 37 9 18 18 30 21 28 2 -3 -3 -19
-12 -37z m2315 5 c-22 -27 -50 -38 -50 -20 0 24 40 59 53 46 7 -7 6 -15 -3
-26z m115 -24 c-10 -9 -25 14 -24 37 l1 27 13 -30 c7 -16 12 -32 10 -34z
m-522 5 c9 -7 28 -11 42 -8 32 6 25 -19 -11 -38 -13 -7 -22 -15 -19 -18 2 -3
16 3 29 12 14 9 34 16 46 16 17 0 19 -3 8 -19 -9 -15 -9 -26 1 -47 10 -24 10
-30 -2 -39 -18 -13 -7 -39 27 -67 l21 -17 -20 -20 c-19 -19 -25 -20 -115 -10
-52 6 -96 12 -98 14 -2 1 6 20 17 41 12 21 21 46 21 54 0 9 7 26 16 38 8 12
12 26 9 32 -3 5 -1 18 5 29 7 13 7 22 0 26 -12 7 -14 35 -2 35 4 0 15 -7 25
-14z m-3743 -21 c0 -8 -4 -17 -10 -20 -6 -4 -10 5 -10 20 0 15 4 24 10 20 6
-3 10 -12 10 -20z m-2970 -4 c0 -15 -99 -83 -110 -76 -22 13 -7 31 48 57 31
14 58 27 60 27 1 1 2 -3 2 -8z m7561 -31 c21 0 7 -19 -23 -29 -23 -8 -35 -8
-42 0 -14 13 22 42 42 34 8 -3 18 -5 23 -5z m-577 -44 c-3 -14 -10 -26 -15
-26 -10 0 -12 53 -2 63 13 13 24 -10 17 -37z m327 -5 c16 -16 29 -34 29 -40 0
-21 -41 -11 -65 15 -26 28 -29 36 -18 47 12 12 24 7 54 -22z m-117 0 c3 -4 -1
-17 -9 -27 -17 -22 -20 -54 -5 -54 16 0 12 -26 -9 -51 -25 -31 -34 -21 -18 20
8 22 9 34 1 39 -19 13 -23 39 -8 61 16 22 39 28 48 12z m-6424 -18 c24 -22
-162 -26 -280 -6 -30 5 -32 7 -15 14 19 8 285 1 295 -8z m-790 -13 c0 -5 -5
-10 -11 -10 -5 0 -7 5 -4 10 3 6 8 10 11 10 2 0 4 -4 4 -10z m510 -15 c65 -6
94 -15 84 -25 -7 -6 -500 12 -522 19 -2 1 0 6 4 13 5 8 58 9 198 4 105 -4 211
-9 236 -11z m180 -20 c0 -8 -7 -15 -15 -15 -26 0 -18 20 13 29 1 1 2 -6 2 -14z
m2385 -37 c13 -88 11 -133 -5 -133 -12 0 -16 18 -18 88 -3 91 12 121 23 45z
m3229 17 c3 -8 8 -47 12 -88 7 -74 0 -103 -33 -135 -18 -19 -30 -7 -13 13 10
12 11 42 6 125 -6 95 -5 109 8 104 8 -3 17 -12 20 -19z m82 -57 c-3 -13 -6
-30 -6 -37 0 -11 -3 -12 -11 -4 -12 12 -2 63 13 63 6 0 8 -10 4 -22z m-5841
-17 c0 -11 -38 -13 -210 -12 -115 1 -211 4 -213 6 -2 2 -1 9 3 15 4 7 72 10
213 8 167 -2 207 -6 207 -17z m6578 5 c10 4 21 -4 31 -23 8 -15 34 -48 56 -71
22 -24 40 -50 40 -58 0 -9 11 -14 28 -14 17 0 37 -9 48 -21 l19 -22 -31 16
c-23 12 -34 13 -42 5 -9 -9 -15 -7 -25 7 -15 19 -37 13 -37 -11 0 -19 -5 -18
-35 8 -28 24 -33 48 -10 48 13 0 13 4 3 23 -7 12 -25 36 -39 54 -15 17 -29 37
-31 45 -4 11 -8 11 -21 -1 -19 -15 -23 -1 -5 17 8 8 15 8 23 2 7 -6 19 -8 28
-4z m237 -1 c0 -1 -7 -16 -16 -33 -20 -41 -10 -56 32 -49 19 3 34 2 34 -3 0
-5 -17 -12 -37 -15 -21 -3 -48 -8 -61 -11 -20 -4 -22 -2 -16 21 14 57 12 60
-35 57 -58 -5 -51 20 9 30 23 4 45 9 47 12 4 4 43 -4 43 -9z m-6625 -15 c-16
-4 -41 -8 -55 -9 -20 0 -22 1 -10 9 8 5 33 9 55 9 39 -1 39 -2 10 -9z m163 -7
c-10 -2 -28 -2 -40 0 -13 2 -5 4 17 4 22 1 32 -1 23 -4z m6088 -35 c88 -92
102 -129 64 -163 -19 -18 -50 -15 -50 5 0 6 12 15 26 20 l25 10 -29 25 c-17
14 -34 25 -39 25 -12 0 -63 49 -63 61 0 6 7 9 15 5 19 -7 19 4 -1 32 -28 40 8
26 52 -20z m924 35 c-1 -19 -21 -35 -88 -68 -40 -19 -75 -35 -77 -35 -18 0 33
51 63 63 20 9 46 22 57 31 21 16 45 21 45 9z m-6312 -18 c7 -6 -109 -16 -118
-10 -24 15 5 25 58 19 31 -4 58 -8 60 -9z m2692 -92 c0 -32 -22 -29 -42 6 -19
35 -14 43 18 29 15 -7 24 -20 24 -35z m3260 6 c0 -11 -4 -19 -9 -19 -10 0 -21
24 -21 47 0 13 3 13 15 3 8 -7 15 -21 15 -31z m-750 21 c0 -10 -79 -34 -87
-26 -7 6 48 35 70 36 9 0 17 -4 17 -10z m1319 -64 c-1 -46 -2 -48 -11 -23 -10
27 -31 36 -43 17 -8 -13 -52 -13 -60 1 -4 5 0 18 9 28 9 10 16 22 16 28 0 17
22 21 57 10 32 -10 33 -12 32 -61z m-1609 52 c-1 -19 -59 -86 -60 -69 0 17 41
81 53 81 4 0 7 -6 7 -12z m865 -9 c10 -15 -1 -23 -20 -15 -9 3 -13 10 -10 16
8 13 22 13 30 -1z m583 -1 c-5 -14 -68 -42 -68 -30 0 8 50 41 63 42 5 0 7 -5
5 -12z m-1060 -19 c2 -11 -17 -25 -60 -45 -35 -16 -63 -35 -64 -41 -1 -7 -2
-17 -2 -21 -3 -12 -120 -67 -128 -60 -3 4 20 25 51 49 55 41 71 66 21 34 -29
-19 -70 -17 -74 5 -2 10 14 21 47 33 27 9 55 17 63 17 7 0 29 11 48 25 39 28
93 30 98 4z m-5458 1 c0 -5 -7 -10 -16 -10 -8 0 -12 5 -9 10 3 6 10 10 16 10
5 0 9 -4 9 -10z m1237 -5 c28 -8 88 -22 134 -31 74 -15 101 -18 172 -23 9 0
17 -8 17 -17 0 -13 -7 -15 -37 -11 -21 3 -81 11 -133 17 -140 17 -210 41 -210
72 0 10 -2 11 57 -7z m3513 -54 c-1 -42 -13 -27 -24 28 -5 29 -4 32 9 21 8 -7
15 -28 15 -49z m1280 3 c0 -25 -20 -31 -54 -18 -23 9 -20 21 11 38 34 17 43
13 43 -20z m-470 7 c0 -12 -20 -25 -27 -18 -7 7 6 27 18 27 5 0 9 -4 9 -9z
m-4440 -15 c48 -3 289 -50 355 -68 42 -11 41 -13 -18 -23 -21 -3 -35 -10 -32
-15 3 -5 -3 -10 -12 -12 -23 -4 -178 18 -216 32 -55 19 -57 12 -57 -241 0
-217 -1 -229 -19 -229 -47 0 -84 16 -126 52 -25 22 -45 36 -46 31 -1 -4 -2
-19 -2 -33 -2 -20 -9 -26 -42 -32 -22 -5 -43 -12 -47 -16 -5 -5 22 -31 60 -59
40 -30 68 -58 68 -69 1 -11 4 -26 8 -35 8 -19 -27 -29 -98 -29 -46 0 -89 -19
-46 -20 l25 -1 -24 -10 c-13 -5 -58 -7 -100 -4 -48 4 -117 0 -186 -10 -70 -11
-135 -14 -181 -10 -70 6 -72 5 -78 -19 -14 -55 -11 -56 208 -56 111 0 240 -5
286 -10 106 -13 183 -37 176 -55 -7 -19 24 -41 64 -44 38 -3 120 -38 120 -51
0 -13 -28 -20 -58 -14 -19 4 -34 0 -45 -10 -8 -9 -23 -16 -32 -16 -8 0 -26 -6
-38 -14 -12 -7 -44 -19 -71 -25 -64 -16 -106 -38 -106 -56 0 -10 11 -15 33
-16 46 -1 80 -12 85 -28 3 -8 -1 -12 -9 -9 -8 3 -19 -2 -25 -11 -13 -17 9 -32
86 -57 25 -9 52 -18 60 -21 8 -3 23 -5 33 -4 9 1 20 -5 23 -13 5 -12 11 -13
24 -6 25 13 30 13 30 -5 0 -19 -32 -36 -50 -25 -8 5 -19 6 -24 2 -18 -11 -106
-22 -221 -28 -128 -6 -188 7 -193 43 -2 17 -17 27 -60 43 -31 11 -75 28 -98
36 -22 9 -64 21 -93 27 -29 7 -52 16 -52 22 0 5 21 15 47 22 64 16 75 29 33
42 -31 8 -32 10 -12 16 33 10 37 34 8 47 -14 6 -25 17 -25 25 0 7 -5 13 -12
13 -6 0 -3 7 8 15 19 14 19 14 -3 15 -30 0 -36 13 -14 36 22 25 16 44 -15 44
-13 0 -24 5 -24 10 0 6 -6 10 -14 10 -21 0 -29 -34 -21 -91 4 -27 3 -49 -1
-49 -14 0 -135 132 -151 165 -9 17 -24 39 -34 51 -11 12 -22 43 -26 72 -5 44
-3 52 10 52 10 0 14 6 11 15 -4 8 -9 13 -13 11 -3 -2 -7 18 -8 46 -1 27 -14
81 -29 119 -21 53 -25 72 -16 81 9 9 23 1 60 -35 80 -78 86 -58 12 39 -45 59
-61 94 -43 94 3 0 56 -16 117 -36 110 -36 112 -36 216 -28 136 11 365 11 459
0 46 -5 71 -5 68 1 -3 5 0 34 8 64 8 30 18 86 21 124 3 39 10 78 15 88 6 9 7
17 4 17 -4 0 -3 6 2 13 4 6 6 22 5 34 -2 11 2 24 7 28 6 3 11 15 11 25 0 20
27 41 44 34 6 -2 31 -6 56 -8z m-406 -17 c5 -5 -9 -11 -32 -15 -23 -4 -39 -10
-36 -15 3 -5 0 -9 -7 -9 -9 0 -10 -3 -2 -11 5 -5 57 -15 114 -21 143 -14 182
-21 187 -36 3 -9 -41 -10 -200 -6 -112 4 -205 9 -208 11 -2 2 12 19 32 36 20
18 44 44 53 59 14 23 21 26 53 21 20 -3 41 -9 46 -14z m2162 11 c8 -8 19 -7
38 1 27 13 43 8 31 -10 -3 -6 -17 -11 -30 -11 -28 0 -41 -16 -26 -34 7 -9 7
-16 -1 -24 -26 -26 -38 -13 -38 38 0 50 7 59 26 40z m-1246 -10 c0 -5 -5 -10
-11 -10 -5 0 -7 5 -4 10 3 6 8 10 11 10 2 0 4 -4 4 -10z m3301 -24 c11 -19 33
-39 50 -46 42 -18 49 -34 10 -25 -30 6 -31 6 -31 -28 0 -42 -21 -65 -40 -42
-7 8 -19 15 -26 15 -10 0 -11 6 -4 25 8 22 5 31 -26 65 -43 48 -40 70 11 70
30 0 39 -5 56 -34z m1736 18 c22 -22 4 -34 -37 -24 -19 4 -28 8 -19 9 9 1 19
8 23 16 7 19 14 19 33 -1z m-1580 -30 c10 -27 -14 -40 -37 -19 -11 10 -20 22
-20 27 0 15 50 8 57 -8z m717 -10 c15 -14 25 -28 22 -31 -3 -4 -12 -1 -18 5
-7 7 -25 12 -40 12 -21 0 -28 5 -28 20 0 28 29 25 64 -6z m58 15 c16 -9 18
-13 7 -19 -14 -9 -49 5 -49 20 0 13 17 13 42 -1z m-2912 -19 c0 -5 -9 -10 -21
-10 -11 0 -17 5 -14 10 3 6 13 10 21 10 8 0 14 -4 14 -10z m1680 -45 c0 -19
-39 -40 -52 -27 -6 6 -2 17 13 30 23 22 39 21 39 -3z m1650 11 c0 -9 -14 -14
-45 -14 -52 -1 -61 15 -12 21 17 2 38 5 45 5 6 1 12 -4 12 -12z m-332 -18 c-2
-6 -10 -14 -16 -16 -7 -2 -10 2 -6 12 7 18 28 22 22 4z m-598 -8 c13 -9 13
-11 1 -19 -17 -11 -130 -26 -137 -18 -5 5 92 46 111 46 6 1 17 -4 25 -9z
m-582 -12 c18 -18 15 -38 -6 -38 -21 0 -42 18 -42 37 0 16 32 17 48 1z m-4083
-23 c210 -9 255 -15 255 -31 0 -8 -12 -19 -27 -25 -19 -8 -23 -13 -13 -16 42
-13 42 -13 31 -26 -8 -10 -7 -17 1 -25 8 -8 8 -15 0 -25 -9 -10 -33 -12 -97
-9 -59 3 -85 1 -85 -7 0 -6 5 -11 12 -11 6 0 9 -3 5 -6 -3 -4 -59 -5 -124 -4
-65 2 -161 2 -213 -1 -136 -5 -229 -3 -272 5 -69 13 -40 26 57 26 94 0 95 0
134 35 l38 35 114 0 c63 -1 176 -7 252 -13 132 -12 177 -8 124 12 -23 9 -228
41 -359 57 -32 3 -58 10 -58 15 0 16 35 29 65 25 17 -3 89 -8 160 -11z m3885
6 c0 -15 -15 -21 -72 -31 -98 -16 -333 -60 -350 -66 -10 -3 -18 -1 -18 5 0 6
8 11 18 11 11 0 29 9 41 20 13 10 42 22 64 25 23 3 101 14 172 24 72 11 133
19 138 20 4 1 7 -3 7 -8z m1060 -10 c0 -11 -11 -33 -25 -48 -23 -26 -24 -27
-25 -7 0 19 34 74 46 74 2 0 4 -9 4 -19z m1050 -41 l0 -50 -67 -1 c-181 -3
-288 2 -295 14 -16 25 -9 39 18 34 15 -2 58 -1 96 4 43 5 77 5 88 -1 19 -10
110 15 110 30 0 7 17 15 43 19 4 0 7 -21 7 -49z m-445 20 c4 -6 19 -16 35 -23
25 -10 27 -14 16 -29 -6 -9 -28 -19 -47 -23 -29 -5 -41 -1 -72 24 -21 16 -43
31 -49 33 -6 2 -8 10 -4 16 9 15 112 16 121 2z m-240 -24 c15 -14 32 -27 38
-29 7 -2 9 -7 6 -11 -6 -7 -109 46 -109 57 0 16 41 6 65 -17z m-907 -155 c12
-7 22 -18 22 -26 0 -25 -57 4 -105 53 -57 58 -48 74 13 23 26 -21 57 -44 70
-50z m752 59 c0 -16 -4 -30 -10 -30 -5 0 -10 14 -10 30 0 17 5 30 10 30 6 0
10 -13 10 -30z m64 -59 c-6 -6 -24 19 -24 34 1 6 7 1 15 -9 8 -11 12 -22 9
-25z m-1901 -8 c-7 -2 -19 -2 -25 0 -7 3 -2 5 12 5 14 0 19 -2 13 -5z m1557
-17 c6 -8 26 -20 44 -26 32 -10 85 -66 99 -102 9 -25 29 -14 52 30 21 38 33
42 87 27 23 -6 29 -3 39 18 14 31 34 40 57 27 9 -5 55 -21 102 -36 110 -35
128 -44 176 -92 69 -70 76 -95 29 -104 -25 -4 -32 -36 -9 -45 9 -3 26 -1 37 6
16 10 21 10 28 0 4 -8 3 -20 -4 -28 -10 -11 -8 -13 11 -7 31 10 27 -1 -7 -19
-26 -13 -59 -14 -238 -6 -114 5 -273 17 -351 27 -137 17 -144 19 -153 42 l-10
25 -29 -28 c-15 -15 -33 -25 -38 -21 -19 12 -710 8 -733 -4 -30 -17 -51 4 -23
24 18 14 147 28 244 27 181 -3 192 -2 206 10 7 6 27 8 45 5 24 -3 37 1 56 20
13 13 26 24 28 24 3 0 28 11 57 23 75 34 126 49 138 42 13 -8 13 1 0 25 -5 10
-30 30 -56 45 l-46 27 20 21 c18 17 56 29 118 36 6 0 17 -6 24 -13z m-369 -38
c-37 -29 -62 -23 -27 7 16 13 33 22 39 18 6 -4 1 -14 -12 -25z m1489 17 c0 -8
-7 -15 -15 -15 -8 0 -15 -7 -15 -15 0 -9 7 -18 15 -21 12 -5 15 -27 15 -110
l0 -103 -32 5 c-18 4 -52 15 -76 25 -49 21 -71 61 -77 141 -2 27 -9 55 -15 63
-10 12 -10 18 0 30 9 11 35 15 106 15 77 0 94 -3 94 -15z m-1337 -39 c-6 -29
-20 -36 -50 -25 -32 12 -28 28 9 44 40 16 47 13 41 -19z m-125 -48 c-5 -13
-18 -21 -63 -37 -16 -6 -38 -25 -47 -41 -18 -32 -38 -40 -38 -15 0 15 14 31
61 70 40 34 95 48 87 23z m-2103 -139 c0 -11 -18 -14 -77 -16 -83 -1 -106 12
-35 21 23 3 53 7 67 9 35 6 45 2 45 -14z m1425 -4 c0 -8 -4 -15 -10 -15 -5 0
-7 7 -4 15 4 8 8 15 10 15 2 0 4 -7 4 -15z m135 -5 c3 -5 1 -10 -4 -10 -6 0
-11 5 -11 10 0 6 2 10 4 10 3 0 8 -4 11 -10z m-65 -41 c0 -11 -4 -17 -10 -14
-5 3 -10 13 -10 21 0 8 5 14 10 14 6 0 10 -9 10 -21z m2070 -259 c0 -27 -4
-40 -14 -40 -7 0 -19 -7 -26 -15 -7 -9 -21 -13 -31 -10 -10 4 -26 2 -36 -3
-13 -7 -30 -2 -62 17 -73 43 -65 57 38 67 45 5 114 17 129 23 1 1 2 -17 2 -39z
m-1290 23 c0 -1 -4 -13 -10 -27 -5 -14 -5 -28 0 -31 12 -8 40 23 40 46 0 16 7
19 44 19 l45 0 -6 -35 c-7 -44 17 -49 38 -7 8 15 18 30 24 34 27 20 206 3 300
-27 22 -7 57 -16 77 -20 24 -4 51 -19 75 -43 l38 -37 -27 -3 c-30 -4 -35 -11
-16 -30 15 -15 2 -29 -31 -34 -40 -5 -35 -25 13 -53 38 -22 46 -32 46 -56 0
-27 2 -28 24 -18 32 15 67 5 107 -28 18 -16 51 -37 73 -49 23 -11 42 -28 44
-36 3 -13 -7 -15 -55 -13 -75 3 -73 2 -73 20 0 18 -12 19 -27 4 -9 -9 -20 -9
-40 -1 -15 6 -41 13 -58 17 -54 13 -320 56 -335 54 -8 0 -76 -2 -150 -3 -129
-3 -335 -21 -373 -32 -40 -12 -97 -11 -97 2 0 15 35 28 50 19 6 -4 23 1 38 11
15 10 35 17 45 15 21 -3 47 16 47 35 0 10 -6 11 -25 4 -20 -7 -25 -6 -25 5 0
18 -14 19 -41 5 -15 -9 -19 -7 -19 6 0 9 -9 18 -20 21 -11 3 -20 11 -20 19 0
24 -23 27 -41 6 -20 -25 -49 -29 -49 -7 0 9 -9 15 -22 14 -13 0 -50 4 -83 10
-33 5 -103 17 -156 25 -155 24 -239 46 -318 82 -41 19 -89 34 -107 34 -44 0
-43 13 4 36 28 13 74 19 187 24 83 4 160 11 172 16 17 7 693 14 693 7z m705
-173 c3 -5 1 -10 -4 -10 -6 0 -11 5 -11 10 0 6 2 10 4 10 3 0 8 -4 11 -10z
m-2175 -60 c12 -8 11 -10 -7 -10 -13 0 -23 5 -23 10 0 13 11 13 30 0z m106
-26 c38 -14 72 -30 75 -36 4 -6 33 -25 65 -42 51 -27 63 -39 87 -89 16 -33 27
-60 25 -61 -2 -1 -31 -9 -66 -17 l-63 -16 -36 29 c-21 16 -48 28 -67 29 -32 0
-75 4 -181 14 -61 6 -120 22 -142 38 -16 12 -5 30 13 23 8 -3 34 1 57 8 23 8
68 22 100 31 31 10 58 20 58 24 7 31 4 51 -8 55 -12 5 -12 8 -1 20 7 9 14 15
14 16 1 0 32 -12 70 -26z m2617 -70 c9 -9 -4 -34 -18 -34 -17 0 -27 27 -12 34
17 7 23 7 30 0z m37 -60 c0 -8 -5 -12 -10 -9 -6 4 -8 11 -5 16 9 14 15 11 15
-7z m-9571 -248 c14 -17 -3 -29 -56 -41 -26 -5 -33 -3 -33 9 0 18 37 46 61 46
9 0 22 -6 28 -14z m9006 -111 c22 -2 50 -4 62 -4 19 -1 20 -4 10 -26 -7 -13
-22 -27 -35 -30 -34 -8 -152 -4 -158 6 -3 5 0 9 5 9 6 0 11 9 11 20 0 17 -5
19 -24 14 -27 -7 -49 2 -41 17 3 5 34 6 68 3 34 -3 80 -8 102 -9z m235 -19
c19 -4 44 -16 57 -28 28 -26 31 -53 6 -45 -67 21 -131 37 -150 37 -13 0 -23 5
-23 11 0 18 33 38 55 34 11 -2 36 -6 55 -9z m-6745 -430 c457 -70 756 -465
705 -929 -25 -231 -109 -400 -275 -555 -88 -82 -214 -149 -346 -184 -121 -32
-357 -32 -479 1 -235 62 -414 202 -524 412 -63 118 -86 214 -93 374 -7 176 16
287 88 434 47 95 63 117 153 207 86 85 115 108 195 147 189 95 371 124 576 93z
m-2097 -18 c7 -9 9 -138 6 -385 -2 -215 0 -373 5 -373 5 0 44 43 87 96 78 95
245 297 416 500 47 57 98 118 111 135 l24 31 172 2 c140 1 171 -2 171 -13 0
-7 -35 -52 -77 -98 -43 -47 -111 -124 -152 -171 -88 -103 -280 -320 -368 -415
-35 -37 -63 -72 -63 -78 0 -6 54 -75 119 -154 66 -79 175 -212 242 -297 68
-84 172 -210 231 -280 59 -70 108 -134 108 -143 0 -13 -24 -15 -172 -15 -95 0
-178 4 -184 8 -6 4 -62 72 -124 152 -63 80 -177 224 -254 320 -78 97 -172 215
-210 263 -37 48 -72 87 -77 87 -5 0 -10 -182 -11 -412 l-3 -413 -40 -3 c-22
-2 -86 -1 -142 3 l-103 7 0 824 0 823 98 4 c53 1 116 4 138 5 24 1 46 -3 52
-10z m3712 -2 c329 -16 540 -217 540 -515 0 -244 -132 -424 -372 -508 -65 -23
-94 -27 -258 -32 l-185 -6 -3 -293 -2 -293 -143 3 -142 3 0 820 0 820 200 5
c110 3 216 4 235 3 19 -1 78 -4 130 -7z m1828 -133 l3 -133 -331 0 -330 0 2
-207 3 -208 130 -1 c72 0 203 -1 293 -2 l162 -2 0 -130 0 -130 -289 0 c-178 0
-292 -4 -296 -10 -10 -16 -9 -410 1 -420 6 -6 150 -11 344 -12 l335 -3 0 -125
0 -125 -485 0 -485 0 -3 810 c-1 446 0 816 3 823 3 10 103 12 472 10 l468 -3
3 -132z m689 125 c4 -7 9 -155 10 -328 2 -173 5 -321 8 -328 3 -10 84 -12 377
-10 l373 3 5 335 5 335 115 3 c63 1 125 0 138 -3 l22 -5 0 -820 0 -821 -137 3
-138 3 -3 348 c-2 267 -5 347 -15 348 -51 4 -741 -1 -746 -6 -3 -4 -6 -160 -6
-348 l0 -342 -140 0 -140 0 -3 814 c-2 621 1 816 10 822 22 14 256 11 265 -3z
m1795 2 c4 0 9 -125 10 -277 l3 -276 180 -3 c151 -1 192 -5 255 -24 157 -46
255 -121 316 -245 74 -151 74 -359 0 -510 -69 -140 -196 -233 -382 -281 -91
-23 -113 -24 -375 -24 l-279 0 0 819 c0 533 3 820 10 823 7 2 159 1 262 -2z"/>
<path d="M6193 14615 c-3 -9 -3 -18 -1 -21 3 -3 8 4 11 16 6 23 -1 27 -10 5z"/>
<path d="M6170 14560 c0 -5 4 -10 9 -10 6 0 13 5 16 10 3 6 -1 10 -9 10 -9 0
-16 -4 -16 -10z"/>
<path d="M6260 14527 c0 -14 -5 -29 -11 -33 -8 -4 -7 -9 2 -15 8 -5 16 -9 19
-9 8 0 6 68 -3 76 -4 4 -7 -4 -7 -19z"/>
<path d="M6210 14514 c0 -14 4 -23 10 -19 6 3 10 15 10 26 0 10 -4 19 -10 19
-5 0 -10 -12 -10 -26z"/>
<path d="M6196 14465 c-3 -8 -1 -15 4 -15 6 0 10 7 10 15 0 8 -2 15 -4 15 -2
0 -6 -7 -10 -15z"/>
<path d="M7810 11764 c0 -8 5 -12 10 -9 6 3 10 10 10 16 0 5 -4 9 -10 9 -5 0
-10 -7 -10 -16z"/>
<path d="M7662 11481 c-21 -13 -11 -56 13 -56 15 0 20 7 20 29 0 31 -12 41
-33 27z"/>
<path d="M7551 11212 c-12 -23 -6 -62 11 -73 21 -13 39 12 36 50 -3 41 -30 54
-47 23z"/>
<path d="M7816 11222 c-2 -4 -1 -14 4 -22 7 -11 12 -12 21 -3 6 6 8 16 5 22
-8 13 -23 14 -30 3z"/>
<path d="M7670 11010 c0 -13 5 -20 13 -17 6 2 12 10 12 17 0 7 -6 15 -12 18
-8 2 -13 -5 -13 -18z"/>
<path d="M7736 10983 c-4 -9 -3 -20 2 -25 11 -11 45 19 37 33 -10 15 -32 10
-39 -8z"/>
<path d="M7604 10715 c-10 -25 4 -45 32 -45 20 0 25 4 20 16 -3 9 -6 17 -6 19
0 3 -9 9 -20 15 -16 9 -22 8 -26 -5z"/>
<path d="M5710 11169 c0 -5 5 -7 10 -4 6 3 10 8 10 11 0 2 -4 4 -10 4 -5 0
-10 -5 -10 -11z"/>
<path d="M5595 7360 c-3 -5 -1 -10 4 -10 6 0 11 5 11 10 0 6 -2 10 -4 10 -3 0
-8 -4 -11 -10z"/>
<path d="M2675 6861 c-3 -10 -1 -29 4 -42 l10 -24 0 27 c1 14 4 33 7 42 3 9 1
16 -4 16 -6 0 -13 -8 -17 -19z"/>
<path d="M2675 6690 c-8 -13 4 -32 16 -25 12 8 12 35 0 35 -6 0 -13 -4 -16
-10z"/>
<path d="M2676 6614 c-4 -9 -4 -19 -2 -21 8 -8 26 8 26 23 0 19 -16 18 -24 -2z"/>
<path d="M2680 6528 c0 -19 2 -20 10 -8 13 19 13 30 0 30 -5 0 -10 -10 -10
-22z"/>
<path d="M2680 6476 c0 -9 5 -16 10 -16 6 0 10 4 10 9 0 6 -4 13 -10 16 -5 3
-10 -1 -10 -9z"/>
<path d="M2755 6391 c3 -5 -3 -12 -12 -14 -11 -3 -8 -5 10 -6 29 -1 37 13 11
23 -8 3 -12 2 -9 -3z"/>
<path d="M2670 6269 c-11 -19 -10 -20 9 -9 22 11 29 30 11 30 -5 0 -14 -9 -20
-21z"/>
<path d="M10860 6775 c0 -8 7 -15 15 -15 8 0 15 7 15 15 0 8 -7 15 -15 15 -8
0 -15 -7 -15 -15z"/>
<path d="M10941 6693 c-8 -18 -9 -29 -1 -37 13 -13 26 1 35 37 9 36 -17 37
-34 0z"/>
<path d="M10966 6315 c4 -8 10 -15 15 -15 5 0 9 7 9 15 0 8 -7 15 -15 15 -9 0
-12 -6 -9 -15z"/>
<path d="M4604 5278 c13 -65 27 -110 34 -104 9 10 1 110 -10 124 -19 22 -31
13 -24 -20z"/>
<path d="M4440 5140 c0 -5 5 -10 10 -10 6 0 10 5 10 10 0 6 -4 10 -10 10 -5 0
-10 -4 -10 -10z"/>
<path d="M4745 4970 c4 -6 11 -8 16 -5 14 9 11 15 -7 15 -8 0 -12 -5 -9 -10z"/>
<path d="M4785 4960 c3 -5 10 -10 16 -10 5 0 9 5 9 10 0 6 -7 10 -16 10 -8 0
-12 -4 -9 -10z"/>
<path d="M4765 4940 c3 -5 8 -10 11 -10 2 0 4 5 4 10 0 6 -5 10 -11 10 -5 0
-7 -4 -4 -10z"/>
<path d="M4958 5613 c6 -2 18 -2 25 0 6 3 1 5 -13 5 -14 0 -19 -2 -12 -5z"/>
<path d="M5015 5610 c3 -5 12 -7 20 -3 21 7 19 13 -6 13 -11 0 -18 -4 -14 -10z"/>
<path d="M10280 5390 c0 -5 7 -10 15 -10 8 0 15 5 15 10 0 6 -7 10 -15 10 -8
0 -15 -4 -15 -10z"/>
<path d="M10452 5303 c4 -22 48 -31 48 -10 0 14 -20 27 -42 27 -5 0 -8 -8 -6
-17z"/>
<path d="M10877 5433 c-14 -13 -6 -33 12 -33 19 0 35 23 24 34 -8 8 -28 8 -36
-1z"/>
<path d="M10922 5348 c-22 -22 -14 -40 16 -36 33 4 47 48 15 48 -11 0 -24 -5
-31 -12z"/>
<path d="M10087 4793 c-4 -3 -7 -15 -7 -25 0 -26 24 -17 28 10 3 21 -8 29 -21
15z"/>
<path d="M10310 4709 c0 -5 5 -7 10 -4 6 3 10 8 10 11 0 2 -4 4 -10 4 -5 0
-10 -5 -10 -11z"/>
<path d="M9615 4700 c-3 -5 -1 -10 4 -10 6 0 11 5 11 10 0 6 -2 10 -4 10 -3 0
-8 -4 -11 -10z"/>
<path d="M8540 4550 c0 -5 7 -10 16 -10 8 0 12 5 9 10 -3 6 -10 10 -16 10 -5
0 -9 -4 -9 -10z"/>
<path d="M3605 3526 c-146 -47 -249 -135 -316 -271 -86 -175 -90 -371 -9 -544
58 -124 164 -229 276 -277 108 -46 247 -55 368 -24 239 61 385 251 402 523 8
118 -12 215 -66 322 -55 110 -128 184 -235 238 -126 63 -288 76 -420 33z"/>
<path d="M5267 3523 c-4 -3 -7 -116 -7 -249 0 -230 1 -244 19 -254 31 -16 259
-13 318 5 67 20 136 82 160 143 21 55 23 150 4 206 -20 58 -74 112 -137 136
-46 17 -78 20 -203 20 -81 0 -151 -3 -154 -7z"/>
<path d="M9920 2972 l-55 -7 -3 -255 c-1 -140 0 -265 3 -277 5 -22 9 -23 128
-23 141 0 200 14 273 63 72 48 108 123 107 225 -1 174 -108 269 -313 277 -47
2 -110 0 -140 -3z"/>
<path d="M8222 15328 c52 -40 114 -86 139 -103 84 -56 384 -318 541 -473 78
-77 102 -108 124 -158 15 -35 31 -61 35 -58 16 10 9 49 -15 84 -12 19 -26 53
-30 74 -4 22 -18 55 -32 75 -13 20 -24 50 -24 69 0 88 80 312 112 312 2 0 5
-21 5 -47 1 -27 6 -59 12 -73 7 -18 9 22 7 140 -1 91 1 180 5 198 l7 32 -63 0
-63 0 -18 -52 c-9 -29 -21 -58 -26 -64 -16 -22 -49 -157 -46 -193 3 -31 7 -36
31 -39 22 -3 27 -8 27 -31 0 -15 -3 -31 -6 -34 -10 -10 -44 12 -44 28 0 8 -5
15 -11 15 -6 0 -8 -8 -5 -17 2 -10 8 -42 11 -70 6 -44 4 -53 -9 -53 -8 0 -19
8 -25 18 -14 27 -13 242 3 298 22 77 54 155 72 175 16 18 16 19 -9 19 -15 0
-27 -4 -27 -9 0 -5 -17 -20 -37 -32 -21 -13 -41 -28 -45 -33 -4 -6 -10 -7 -14
-3 -10 10 -14 37 -6 35 12 -4 52 22 52 32 0 6 -136 10 -362 10 l-361 0 95 -72z
m838 27 c15 -18 6 -45 -14 -45 -18 0 -40 36 -31 50 9 15 31 12 45 -5z m-300
-31 c0 -2 -7 -4 -15 -4 -8 0 -15 4 -15 10 0 5 7 7 15 4 8 -4 15 -8 15 -10z
m30 -44 c0 -11 -4 -20 -10 -20 -5 0 -10 2 -10 4 0 2 -3 11 -6 20 -4 11 -1 16
10 16 9 0 16 -8 16 -20z m219 1 c8 -5 11 -16 6 -30 -5 -17 -2 -21 14 -21 24 0
21 -12 -22 -86 l-30 -51 -29 16 c-19 11 -28 23 -26 36 5 32 34 30 43 -2 6 -27
7 -27 21 -9 21 30 17 58 -13 82 -26 21 -27 22 -10 48 19 28 25 30 46 17z"/>
<path d="M10083 15393 c9 -2 23 -2 30 0 6 3 -1 5 -18 5 -16 0 -22 -2 -12 -5z"/>
<path d="M2930 15380 c36 -4 55 -7 43 -8 -15 -1 -23 -8 -23 -19 0 -12 3 -14 8
-6 4 7 13 9 21 4 9 -6 -11 -21 -63 -50 -59 -32 -102 -69 -194 -162 -64 -66
-125 -135 -134 -152 -32 -60 -58 -171 -61 -257 l-2 -85 26 2 c22 1 26 -3 26
-30 0 -20 -8 -38 -21 -49 -18 -14 -19 -20 -8 -37 6 -11 12 -28 12 -36 0 -14 3
-14 28 -1 16 8 34 22 41 30 8 9 18 16 23 16 6 0 -9 -24 -34 -52 -38 -46 -43
-57 -37 -83 4 -16 7 -47 8 -67 1 -37 15 -49 37 -29 52 47 303 71 402 37 96
-33 86 -70 -28 -102 -76 -21 -214 -77 -280 -113 -65 -35 -210 -181 -210 -211
0 -11 -8 -53 -19 -93 -28 -110 -29 -114 -22 -126 5 -8 20 -6 52 8 67 30 214
26 226 -5 3 -8 13 -14 23 -14 9 0 25 -9 35 -20 10 -11 14 -20 10 -20 -4 0 0
-9 9 -19 17 -18 17 -20 -3 -40 -18 -18 -19 -22 -7 -27 8 -3 18 -19 21 -36 8
-34 -5 -47 -89 -86 -42 -19 -47 -25 -41 -45 19 -63 19 -64 -41 -119 -128 -116
-168 -157 -163 -163 4 -3 42 12 85 34 44 22 117 49 164 60 47 11 169 44 271
75 144 42 213 57 305 66 156 15 418 20 520 10 110 -11 326 -73 394 -114 72
-44 89 -52 125 -60 l30 -8 -22 24 c-13 14 -23 31 -23 39 0 8 -7 24 -15 35 -8
10 -15 22 -15 27 0 12 50 8 80 -8 78 -41 87 -37 33 14 -40 37 -53 56 -53 78 0
39 -10 50 -110 123 -100 73 -110 86 -73 93 36 7 132 -3 139 -14 6 -11 65 -12
80 -1 7 4 17 47 23 97 12 87 12 90 -8 104 -30 20 -26 41 7 41 15 0 38 7 50 16
24 17 63 13 109 -11 28 -15 43 -12 43 9 0 7 9 24 21 37 l21 24 -64 60 c-35 33
-62 63 -60 67 1 5 -2 8 -8 8 -5 0 -10 6 -10 13 0 6 -20 23 -44 36 -29 15 -43
28 -39 37 3 8 0 14 -7 14 -6 0 -10 6 -7 13 2 6 15 11 30 9 25 -3 26 -1 20 29
-5 25 -3 31 8 27 8 -3 13 -11 11 -17 -1 -6 4 -11 12 -11 9 0 12 10 10 31 -2
17 1 38 6 48 8 14 10 13 16 -6 8 -29 24 -30 24 -2 0 11 4 17 10 14 6 -4 17 -2
24 4 18 15 72 17 89 3 11 -9 17 -10 22 -2 5 8 11 7 22 -2 14 -11 87 -34 133
-41 8 -1 25 -8 38 -15 27 -15 42 -8 42 19 0 11 5 30 11 41 19 35 -36 75 -284
207 -104 56 -309 129 -494 177 -114 29 -141 44 -79 44 18 0 47 5 65 11 25 9
36 8 57 -5 14 -10 63 -21 111 -27 72 -8 88 -7 103 6 9 8 20 15 23 15 4 0 37
-19 74 -43 38 -24 99 -56 138 -71 38 -16 80 -35 92 -43 13 -9 23 -13 23 -10 0
2 -48 37 -107 77 -60 39 -119 83 -133 96 -14 14 -43 37 -66 52 -56 37 -130
102 -117 102 7 0 18 -6 25 -13 24 -25 149 -87 266 -133 64 -25 143 -59 174
-75 75 -38 88 -38 88 4 0 38 -40 105 -111 187 -27 31 -49 60 -49 63 0 27 62
-14 170 -112 39 -35 47 -39 59 -26 10 10 11 18 4 27 -5 7 -16 34 -23 60 -9 34
-22 55 -46 73 -37 29 -41 41 -20 64 12 14 11 23 -10 65 -13 27 -22 51 -20 53
12 12 85 -125 107 -199 12 -45 29 -64 29 -35 0 65 -96 275 -192 421 -23 35
-37 67 -35 78 5 17 -31 18 -961 16 -532 -1 -938 -4 -902 -8z m149 -60 c-14 -9
-29 -4 -29 10 0 12 34 18 39 7 2 -5 -3 -13 -10 -17z m921 -242 c0 -6 -6 -5
-15 2 -8 7 -15 14 -15 16 0 2 7 1 15 -2 8 -4 15 -11 15 -16z m254 -116 c24
-26 25 -30 11 -42 -14 -12 -20 -10 -41 15 -46 54 -20 78 30 27z m216 -746 c0
-3 -4 -8 -10 -11 -5 -3 -10 -1 -10 4 0 6 5 11 10 11 6 0 10 -2 10 -4z m-1572
-95 c8 -4 13 -12 11 -17 -4 -13 -45 -44 -60 -44 -12 0 -84 -55 -127 -97 -13
-13 -30 -23 -39 -23 -9 0 -21 -7 -28 -17 -7 -9 -17 -13 -24 -8 -9 5 -7 11 8
22 12 8 21 23 21 34 0 11 10 23 24 29 13 5 28 15 33 22 10 16 127 88 143 88 6
0 8 5 5 10 -8 12 15 13 33 1z m-132 -33 c4 -7 4 -10 -1 -6 -4 4 -21 -2 -36
-13 -33 -23 -38 -18 -11 10 20 23 38 26 48 9z m-76 -58 c0 -5 -5 -10 -11 -10
-5 0 -7 5 -4 10 3 6 8 10 11 10 2 0 4 -4 4 -10z m-84 -162 c4 -7 3 -8 -4 -4
-8 5 -12 -3 -12 -22 0 -25 -5 -31 -32 -37 l-33 -8 30 -6 c17 -4 31 -3 33 1 2
4 10 4 18 1 25 -9 -6 -23 -34 -16 -15 3 -27 1 -33 -8 -15 -26 -22 1 -10 41 7
26 16 38 23 34 7 -5 9 -2 5 8 -3 9 -3 19 0 22 11 10 41 7 49 -6z m56 -65 c-6
-2 -10 -9 -7 -14 4 -5 -1 -6 -9 -3 -24 9 -19 24 7 23 12 0 16 -3 9 -6z m43 -3
c3 -5 -1 -10 -10 -10 -9 0 -13 5 -10 10 3 6 8 10 10 10 2 0 7 -4 10 -10z"/>
<path d="M4876 15375 c7 -18 20 -19 30 -4 11 18 72 3 107 -26 18 -15 46 -45
64 -66 17 -22 33 -36 36 -32 2 4 10 32 17 61 6 28 16 55 21 58 29 18 -5 24
-136 24 -124 0 -144 -2 -139 -15z"/>
<path d="M2387 15208 c-3 -24 -4 -54 -2 -68 1 -14 3 -101 4 -195 l2 -170 25
60 c36 85 82 172 122 229 36 52 34 65 -13 70 -30 3 -55 29 -55 56 0 23 -31 54
-56 58 -18 2 -22 -4 -27 -40z"/>
<path d="M8100 15220 c-13 -8 -13 -10 2 -10 9 0 22 -2 30 -3 7 -2 10 -2 5 0
-4 3 -5 9 -1 14 7 12 -17 11 -36 -1z"/>
<path d="M6985 15170 c-3 -5 -1 -10 4 -10 6 0 11 5 11 10 0 6 -2 10 -4 10 -3
0 -8 -4 -11 -10z"/>
<path d="M2379 14564 c-6 -41 -9 -80 -9 -144 -1 -41 -8 -120 -16 -175 -17
-118 -19 -270 -4 -310 8 -21 8 -48 0 -97 -28 -182 -31 -260 -14 -342 15 -68
16 -89 5 -153 -7 -41 -21 -100 -32 -131 -19 -56 -41 -199 -32 -215 5 -9 56 3
64 16 4 5 9 30 13 55 9 67 43 174 82 258 19 41 34 79 34 84 0 25 -21 5 -56
-55 -21 -35 -40 -63 -42 -60 -2 2 1 27 7 55 6 28 11 79 11 113 -1 108 71 494
102 551 7 12 12 28 13 36 4 35 29 101 45 118 10 10 23 28 29 40 7 13 21 22 34
22 23 0 47 17 47 32 0 14 -39 8 -77 -12 -33 -18 -39 -18 -54 -4 -9 8 -20 32
-24 52 -4 20 -10 42 -14 47 -4 6 -16 38 -26 73 -11 38 -24 62 -32 62 -8 0 -11
5 -8 10 3 6 0 10 -7 10 -9 0 -9 3 2 10 8 5 10 10 5 10 -6 0 -15 -4 -21 -10 -6
-6 -11 1 -12 22 -3 31 -11 51 -13 32z"/>
<path d="M9078 14404 c-5 -4 -8 -19 -8 -33 0 -18 3 -22 11 -14 6 6 9 21 7 33
-1 12 -6 18 -10 14z"/>
<path d="M9045 14308 c-63 -91 -162 -252 -183 -297 -20 -44 -24 -66 -21 -125
1 -39 2 -99 1 -133 0 -35 3 -63 8 -63 20 0 31 71 24 152 -6 76 -4 90 21 153
26 69 83 165 97 165 17 0 14 -21 -16 -112 -18 -54 -31 -98 -30 -98 1 0 13 17
26 38 30 45 81 189 72 203 -3 6 1 18 10 27 19 22 32 97 18 106 -6 4 -18 -4
-27 -16z"/>
<path d="M5027 13876 c-3 -22 -10 -63 -15 -91 -12 -59 -5 -71 27 -49 19 14 22
22 16 51 -5 28 -2 39 14 55 30 27 26 52 -8 65 -29 10 -29 10 -34 -31z"/>
<path d="M8650 13914 c0 -3 7 -12 15 -21 20 -19 32 -9 15 12 -12 15 -30 20
-30 9z"/>
<path d="M9970 13900 c0 -5 4 -10 9 -10 6 0 13 5 16 10 3 6 -1 10 -9 10 -9 0
-16 -4 -16 -10z"/>
<path d="M4663 13833 c-18 -7 -16 -23 2 -23 8 0 15 7 15 15 0 8 -1 15 -2 14
-2 0 -9 -3 -15 -6z"/>
<path d="M8512 13808 c-21 -21 -13 -52 28 -98 26 -29 40 -39 40 -28 0 9 -5 18
-11 20 -5 2 -11 10 -12 18 -2 8 -6 20 -10 27 -4 6 -2 15 4 19 6 4 16 -1 21
-10 9 -16 28 -22 28 -8 0 11 -57 72 -67 72 -5 0 -14 -5 -21 -12z"/>
<path d="M10550 13780 c0 -5 5 -10 10 -10 6 0 10 5 10 10 0 6 -4 10 -10 10 -5
0 -10 -4 -10 -10z"/>
<path d="M4926 13744 c-9 -24 -7 -56 3 -50 12 8 20 55 11 61 -4 3 -11 -2 -14
-11z"/>
<path d="M10550 13745 c0 -8 4 -15 10 -15 5 0 7 7 4 15 -4 8 -8 15 -10 15 -2
0 -4 -7 -4 -15z"/>
<path d="M10548 13695 c-1 -16 -2 -39 -3 -50 -1 -11 -4 -25 -7 -30 -17 -30
-32 -270 -33 -525 0 -166 2 -195 15 -195 8 0 16 8 18 18 2 9 -1 17 -7 17 -6 0
-11 5 -11 11 0 5 5 7 10 4 6 -3 10 -1 10 4 0 6 -5 11 -11 11 -6 0 -4 7 4 15
17 16 11 58 -7 49 -6 -3 -2 2 8 10 18 14 15 21 -6 17 -12 -2 -9 9 6 24 14 14
15 62 2 83 -4 7 -4 12 1 12 4 0 8 57 8 128 -1 70 3 132 7 138 4 6 4 25 -1 42
-6 18 -6 32 0 34 5 2 5 16 0 36 -6 20 -6 30 0 27 5 -4 9 6 10 22 0 15 2 45 3
65 2 20 -1 43 -5 50 -6 9 -9 3 -11 -17z"/>
<path d="M4991 13669 c-10 -28 1 -44 23 -36 20 8 21 31 1 47 -12 10 -16 8 -24
-11z"/>
<path d="M6010 13640 c0 -5 7 -7 15 -4 8 4 15 8 15 10 0 2 -7 4 -15 4 -8 0
-15 -4 -15 -10z"/>
<path d="M4891 13616 c-6 -16 -10 -34 -8 -40 6 -17 29 33 24 52 -3 13 -7 10
-16 -12z"/>
<path d="M2795 13621 c-3 -5 2 -11 10 -15 8 -3 17 -1 20 3 3 5 -2 11 -10 15
-8 3 -17 1 -20 -3z"/>
<path d="M4960 13555 c0 -8 7 -15 15 -15 9 0 12 6 9 15 -4 8 -10 15 -15 15 -5
0 -9 -7 -9 -15z"/>
<path d="M3550 13299 c0 -5 5 -7 10 -4 6 3 10 8 10 11 0 2 -4 4 -10 4 -5 0
-10 -5 -10 -11z"/>
<path d="M3625 13300 c-3 -5 1 -10 10 -10 9 0 13 5 10 10 -3 6 -8 10 -10 10
-2 0 -7 -4 -10 -10z"/>
<path d="M3702 13299 c3 -9 18 -13 44 -11 21 1 53 -2 70 -7 17 -5 37 -5 43 -1
7 4 -6 10 -31 13 -24 3 -63 9 -87 13 -35 6 -43 4 -39 -7z"/>
<path d="M3286 13291 c-11 -4 -15 -10 -9 -14 5 -3 19 0 29 8 20 15 11 18 -20
6z"/>
<path d="M3444 13292 c6 -10 42 -9 52 1 4 4 -7 7 -25 7 -18 0 -30 -4 -27 -8z"/>
<path d="M3510 13296 c0 -2 7 -6 15 -10 8 -3 15 -1 15 4 0 6 -7 10 -15 10 -8
0 -15 -2 -15 -4z"/>
<path d="M4840 13286 c0 -8 4 -17 9 -20 5 -4 7 3 4 14 -6 23 -13 26 -13 6z"/>
<path d="M4906 13173 c-4 -21 -10 -49 -13 -63 -9 -40 12 -11 27 38 9 30 10 46
3 53 -7 7 -13 -1 -17 -28z"/>
<path d="M4786 13085 c-18 -27 -14 -45 8 -45 15 0 28 58 15 65 -4 3 -14 -7
-23 -20z"/>
<path d="M4851 13046 c-9 -10 -9 -16 -1 -21 17 -10 37 12 24 25 -8 8 -15 6
-23 -4z"/>
<path d="M4860 12898 c0 -2 9 -32 20 -68 12 -36 25 -94 30 -130 4 -36 13 -96
19 -135 17 -110 20 -380 4 -455 -15 -76 -17 -137 -4 -144 16 -10 54 130 48
176 -4 27 -1 48 9 63 10 15 13 40 9 84 -3 35 0 83 6 107 9 34 8 48 -1 59 -8
10 -10 31 -5 65 5 38 3 56 -9 75 -9 13 -16 44 -16 67 0 24 -7 52 -15 62 -8 11
-15 33 -15 48 0 37 -46 128 -65 128 -8 0 -15 -1 -15 -2z"/>
<path d="M4980 12862 c0 -21 67 -233 77 -242 3 -3 3 8 -1 23 -4 16 -9 45 -12
65 -10 70 -39 165 -52 170 -7 2 -12 -5 -12 -16z"/>
<path d="M10507 12848 c2 -18 7 -58 12 -88 8 -54 9 -54 11 -15 8 109 6 135
-10 135 -12 0 -16 -8 -13 -32z"/>
<path d="M8980 12664 c-46 -58 -126 -136 -156 -152 -23 -12 -33 -32 -16 -32
31 0 212 188 212 221 0 13 -2 12 -40 -37z"/>
<path d="M10510 12690 c0 -5 5 -10 10 -10 6 0 10 5 10 10 0 6 -4 10 -10 10 -5
0 -10 -4 -10 -10z"/>
<path d="M10515 12660 c3 -5 8 -10 11 -10 2 0 4 5 4 10 0 6 -5 10 -11 10 -5 0
-7 -4 -4 -10z"/>
<path d="M10510 12629 c0 -5 5 -7 10 -4 6 3 10 8 10 11 0 2 -4 4 -10 4 -5 0
-10 -5 -10 -11z"/>
<path d="M5059 12568 c4 -28 6 -29 9 -9 2 13 0 27 -5 32 -6 6 -7 -3 -4 -23z"/>
<path d="M8622 12445 c-30 -14 -60 -25 -68 -25 -8 0 -14 -5 -14 -10 0 -11 60
-69 73 -70 12 0 157 110 157 120 0 13 -1 13 -38 -6 -32 -16 -67 -10 -41 7 31
19 -17 8 -69 -16z"/>
<path d="M5017 11880 c-18 -22 -23 -70 -7 -70 5 0 12 12 16 28 3 15 8 35 11
45 6 22 1 22 -20 -3z"/>
<path d="M8842 11818 c-6 -6 -25 -11 -42 -10 -16 0 -30 -4 -30 -10 0 -5 6 -8
13 -5 8 3 19 2 26 -2 10 -6 9 -12 -4 -25 -23 -23 1 -20 35 4 29 21 47 60 26
60 -7 0 -17 -5 -24 -12z"/>
<path d="M8690 11805 c0 -2 12 -11 28 -21 21 -14 24 -14 14 -2 -10 13 -10 17
0 21 7 2 1 4 -14 4 -16 0 -28 -1 -28 -2z"/>
<path d="M2495 11445 c-16 -13 -26 -27 -23 -30 7 -8 68 35 68 47 0 14 -14 8
-45 -17z"/>
<path d="M2470 11355 c-7 -9 -10 -18 -7 -22 8 -7 37 15 37 28 0 14 -16 11 -30
-6z"/>
<path d="M2496 11307 c-27 -24 -47 -49 -45 -56 5 -15 99 68 99 87 0 16 1 17
-54 -31z"/>
<path d="M2493 11240 c-39 -29 -59 -57 -49 -68 7 -6 82 58 90 77 11 24 1 22
-41 -9z"/>
<path d="M2484 11159 c-42 -33 -60 -57 -50 -67 4 -3 28 15 53 41 55 54 53 71
-3 26z"/>
<path d="M2463 11074 c-40 -33 -57 -74 -32 -74 8 0 7 -5 -2 -16 -7 -9 -16 -37
-20 -62 -5 -26 -17 -101 -28 -167 -25 -150 -41 -359 -41 -535 0 -151 -14 -346
-31 -432 -6 -31 -9 -62 -7 -69 7 -20 56 69 116 209 l53 124 -2 166 c-1 161
-13 270 -34 302 -9 15 -11 24 -18 76 -2 17 -6 35 -10 40 -7 12 -4 41 5 50 4 3
4 11 2 18 -6 17 13 66 26 66 5 0 10 -9 10 -20 0 -11 -5 -20 -11 -20 -8 0 -8
-5 1 -15 10 -12 10 -15 -1 -15 -11 0 -11 -2 0 -9 11 -7 12 -15 5 -33 -12 -26
-3 -150 9 -131 4 6 10 29 12 50 3 21 12 94 20 163 22 184 25 202 31 211 10 17
-13 9 -30 -10 -18 -20 -56 -35 -56 -22 0 4 15 25 33 47 64 78 64 78 24 54 -49
-29 -50 -7 -2 40 34 33 43 50 28 50 -5 0 -27 -16 -50 -36z m-3 -284 c0 -5 -4
-10 -10 -10 -5 0 -10 5 -10 10 0 6 5 10 10 10 6 0 10 -4 10 -10z"/>
<path d="M10448 11043 c7 -3 16 -2 19 1 4 3 -2 6 -13 5 -11 0 -14 -3 -6 -6z"/>
<path d="M10436 10877 c-3 -34 -8 -89 -11 -122 -13 -178 -17 -222 -21 -237 -3
-9 -1 -19 5 -22 8 -5 21 66 26 149 1 17 6 73 10 125 4 52 8 110 10 128 4 61
-13 42 -19 -21z"/>
<path d="M10405 10467 c-4 -10 -5 -21 -1 -24 10 -10 18 4 13 24 -4 17 -4 17
-12 0z"/>
<path d="M10399 10418 c0 -7 -2 -22 -3 -33 -2 -11 -6 -59 -10 -107 -4 -48 -9
-98 -11 -110 -11 -65 -14 -229 -4 -226 7 2 13 38 15 83 3 78 5 108 20 270 10
117 11 126 2 131 -4 3 -8 -1 -9 -8z"/>
<path d="M4485 10370 c-3 -5 -2 -10 4 -10 5 0 13 5 16 10 3 6 2 10 -4 10 -5 0
-13 -4 -16 -10z"/>
<path d="M8614 10124 c3 -9 6 -18 6 -20 0 -3 4 -3 10 1 11 7 2 35 -12 35 -6 0
-7 -7 -4 -16z"/>
<path d="M9255 9866 c-10 -7 -24 -35 -31 -62 -18 -66 -17 -71 6 -44 11 13 20
28 20 34 0 6 9 22 20 36 33 42 24 65 -15 36z"/>
<path d="M2222 9433 c-44 -152 -89 -488 -98 -727 -7 -183 -6 -199 9 -193 13 5
17 0 17 -22 0 -16 -7 -31 -15 -35 -12 -4 -15 -26 -14 -113 l1 -108 18 100 c10
55 30 145 45 200 27 103 35 145 28 145 -2 0 -7 -10 -12 -22 -5 -15 -11 40 -15
152 -8 190 1 338 33 535 11 65 19 121 17 122 -1 2 -8 -14 -14 -34z"/>
<path d="M10345 9370 c3 -5 13 -10 21 -10 8 0 12 5 9 10 -3 6 -13 10 -21 10
-8 0 -12 -4 -9 -10z"/>
<path d="M10385 9330 c3 -5 8 -10 11 -10 2 0 4 5 4 10 0 6 -5 10 -11 10 -5 0
-7 -4 -4 -10z"/>
<path d="M10345 9300 c-8 -13 5 -13 25 0 13 8 13 10 -2 10 -9 0 -20 -4 -23
-10z"/>
<path d="M10250 8586 c0 -9 7 -12 20 -9 11 3 20 9 20 14 0 5 -9 9 -20 9 -11 0
-20 -6 -20 -14z"/>
<path d="M8474 8505 c-4 -8 -3 -22 0 -31 9 -24 35 1 29 26 -6 24 -21 26 -29 5z"/>
<path d="M10115 8338 c-60 -3 -170 -8 -242 -10 -96 -2 -134 -6 -137 -15 -3 -7
-2 -14 2 -14 69 -13 522 -22 557 -11 17 4 30 15 30 22 0 24 -89 36 -210 28z"/>
<path d="M10615 8330 c-3 -5 1 -10 10 -10 9 0 13 5 10 10 -3 6 -8 10 -10 10
-2 0 -7 -4 -10 -10z"/>
<path d="M7993 8290 c-13 -5 -23 -12 -23 -14 0 -3 21 -21 46 -41 50 -38 86
-44 106 -19 7 8 21 25 32 36 13 15 15 23 7 31 -15 15 -139 20 -168 7z"/>
<path d="M4570 8212 c0 -19 12 -42 22 -42 14 0 5 43 -9 48 -7 2 -13 -1 -13 -6z"/>
<path d="M8470 8100 c0 -15 5 -20 18 -18 9 2 17 10 17 18 0 8 -8 16 -17 18
-13 2 -18 -3 -18 -18z"/>
<path d="M9442 8112 c-7 -5 -28 -8 -47 -7 -46 1 -35 -7 53 -38 73 -27 169 -37
157 -17 -8 13 -120 70 -137 70 -7 0 -19 -4 -26 -8z"/>
<path d="M7540 8082 c0 -14 73 -79 108 -97 33 -16 62 -12 31 5 -9 5 -40 30
-71 55 -55 45 -68 52 -68 37z"/>
<path d="M8128 8069 c-35 -13 -35 -24 -3 -45 23 -15 32 -15 127 3 98 19 102
20 73 32 -41 17 -164 23 -197 10z"/>
<path d="M8670 8041 c-13 -9 -12 -12 5 -25 11 -9 24 -16 28 -16 12 0 77 -73
77 -87 0 -6 14 -22 31 -34 30 -21 38 -22 181 -16 213 8 221 27 28 67 -124 25
-139 31 -206 77 -53 36 -118 51 -144 34z"/>
<path d="M9627 8024 c3 -8 27 -27 54 -44 27 -16 49 -34 49 -40 0 -19 -76 -42
-190 -57 -63 -8 -126 -15 -139 -15 -17 0 -20 -3 -12 -11 16 -16 275 -15 453 1
136 12 271 46 269 67 0 6 -30 11 -67 13 -59 2 -215 39 -246 58 -6 4 -49 15
-94 24 -66 14 -81 14 -77 4z"/>
<path d="M7760 7917 c0 -10 32 -67 41 -73 17 -10 23 5 11 30 -9 21 -52 56 -52
43z"/>
<path d="M4958 7838 c-29 -6 -48 -16 -48 -24 0 -17 68 -18 195 -3 50 6 99 11
109 11 13 -1 16 2 8 10 -14 14 -206 19 -264 6z"/>
<path d="M7640 7840 c0 -5 5 -10 11 -10 5 0 7 5 4 10 -3 6 -8 10 -11 10 -2 0
-4 -4 -4 -10z"/>
<path d="M1445 7820 c-3 -5 1 -10 9 -10 9 0 16 5 16 10 0 6 -4 10 -9 10 -6 0
-13 -4 -16 -10z"/>
<path d="M7630 7789 c-8 -10 -22 -19 -32 -19 -20 0 -32 -16 -18 -25 5 -3 23 1
39 10 17 8 39 15 51 15 23 0 19 15 -9 29 -13 7 -21 5 -31 -10z"/>
<path d="M2050 7780 c-18 -11 1 -18 30 -10 24 6 24 6 4 12 -12 3 -27 2 -34 -2z"/>
<path d="M4876 7703 c-20 -24 -26 -37 -19 -44 20 -20 47 -5 54 28 9 48 -3 53
-35 16z"/>
<path d="M9895 7691 c-7 -13 17 -24 40 -19 9 1 16 8 16 13 0 14 -48 19 -56 6z"/>
<path d="M9535 7673 c-107 -13 -45 -33 121 -40 127 -6 132 -5 143 16 11 19 9
21 -21 22 -18 0 -73 2 -123 3 -49 1 -103 1 -120 -1z"/>
<path d="M8034 7655 c11 -8 40 -15 65 -15 l46 1 -34 14 c-18 8 -47 15 -65 15
-29 -1 -30 -1 -12 -15z"/>
<path d="M5110 7640 c0 -5 17 -10 38 -9 30 0 33 2 17 9 -28 12 -55 12 -55 0z"/>
<path d="M1443 7633 c15 -2 37 -2 50 0 12 2 0 4 -28 4 -27 0 -38 -2 -22 -4z"/>
<path d="M9100 7566 c0 -8 9 -31 20 -51 11 -20 20 -44 20 -54 0 -9 12 -28 26
-42 15 -13 46 -54 70 -91 44 -68 71 -89 59 -45 -15 52 -59 164 -74 187 -16 25
-96 102 -112 108 -5 2 -9 -3 -9 -12z"/>
<path d="M9247 7553 c4 -10 9 -20 13 -23 3 -3 23 -39 44 -80 46 -90 56 -102
56 -70 0 13 -25 61 -55 107 -55 82 -71 100 -58 66z"/>
<path d="M4914 7504 c-10 -39 -84 -82 -156 -90 -65 -7 -79 -18 -52 -39 22 -15
227 -19 254 -5 14 7 16 18 9 63 -11 88 -41 126 -55 71z"/>
<path d="M1410 7470 c0 -5 -21 -21 -47 -34 l-48 -25 65 -1 c36 0 92 -7 125
-14 75 -18 239 -31 231 -18 -3 5 -26 12 -52 16 -81 11 -123 26 -158 56 -26 23
-43 30 -75 30 -22 0 -41 -4 -41 -10z"/>
<path d="M9875 7260 c-27 -5 -143 -9 -257 -9 -178 -1 -208 -3 -208 -16 0 -8 3
-15 8 -15 4 0 84 -7 177 -14 133 -12 193 -22 275 -46 58 -17 124 -36 147 -40
51 -11 112 -36 133 -55 8 -7 29 -17 45 -20 30 -7 30 -7 8 9 -12 9 -35 36 -52
61 -36 53 -30 60 54 70 33 3 73 9 89 12 27 5 28 7 13 18 -11 8 -57 13 -127 14
-78 1 -126 7 -167 21 -63 21 -64 21 -138 10z"/>
<path d="M1600 7225 c-7 -8 -27 -15 -44 -15 -17 0 -47 -6 -66 -13 -113 -40
-91 -57 76 -57 131 0 157 7 115 30 -11 5 -28 24 -38 40 -20 34 -26 36 -43 15z"/>
<path d="M4890 7195 c0 -3 9 -24 21 -46 11 -22 25 -78 31 -124 6 -46 15 -82
20 -79 4 3 8 38 8 78 0 62 -4 78 -29 118 -27 42 -51 67 -51 53z"/>
<path d="M1993 7145 c-3 -9 -3 -18 -1 -21 3 -3 8 4 11 16 6 23 -1 27 -10 5z"/>
<path d="M1980 7040 c0 -44 -3 -51 -27 -64 l-28 -15 25 -1 c18 0 29 8 38 27
14 32 16 103 2 103 -5 0 -10 -22 -10 -50z"/>
<path d="M1895 6930 c-27 -10 -61 -19 -74 -19 -39 -1 -10 -21 37 -26 31 -3 44
1 59 18 20 22 37 48 31 46 -2 0 -25 -9 -53 -19z"/>
<path d="M1162 6878 c3 -7 22 -14 44 -15 l39 -2 -30 14 c-38 18 -58 19 -53 3z"/>
<path d="M1909 6828 c0 -2 -6 -30 -14 -63 -10 -48 -10 -62 0 -70 7 -5 15 -17
17 -25 3 -8 4 25 4 73 -1 74 -3 97 -7 85z"/>
<path d="M1480 6593 c-14 -3 -38 -14 -54 -26 l-30 -21 26 -7 c94 -25 358 -20
358 6 0 8 -5 17 -12 21 -7 4 -8 3 -4 -4 4 -7 1 -12 -8 -12 -9 0 -16 7 -16 15
0 8 -16 19 -37 24 -37 11 -174 13 -223 4z"/>
<path d="M1121 6533 c-1 -36 1 -41 19 -36 28 7 31 15 14 38 -8 10 -14 15 -15
9 0 -5 -4 0 -9 11 -7 16 -9 11 -9 -22z"/>
</g>
</svg>
